<svg xmlns="http://www.w3.org/2000/svg" xmlns:svg="http://www.w3.org/2000/svg" xmlns:xlink="http://www.w3.org/1999/xlink" id="svg3150" width="57.975" height="56.904" version="1.1" viewBox="0 0 15.339 15.056"><defs id="defs3144"><radialGradient id="SVGID_80_" cx="253.819" cy="466.438" r="2.167" gradientTransform="matrix(561.6445,413.1204,413.1204,-561.6445,-336113.84,158088.78)" gradientUnits="userSpaceOnUse"><stop id="stop659" offset="0" stop-color="#E00D7B"/><stop id="stop661" offset=".461" stop-color="#EA7224"/><stop id="stop663" offset="1" stop-color="#FECC07"/></radialGradient><clipPath id="SVGID_79_"><use id="use656" width="100%" height="100%" x="0" y="0" overflow="visible" xlink:href="#SVGID_78_"/></clipPath><radialGradient id="SVGID_83_" cx="253.829" cy="466.453" r="2.137" gradientTransform="matrix(561.6497,413.1243,413.1243,-561.6497,-336115.94,158091.53)" gradientUnits="userSpaceOnUse"><stop id="stop680" offset="0" stop-color="#E00D7B"/><stop id="stop682" offset=".461" stop-color="#EA7224"/><stop id="stop684" offset="1" stop-color="#FECC07"/></radialGradient><clipPath id="SVGID_82_"><use id="use677" width="100%" height="100%" x="0" y="0" overflow="visible" xlink:href="#SVGID_81_"/></clipPath><radialGradient id="SVGID_86_" cx="253.781" cy="466.382" r="2.25" gradientTransform="matrix(561.623,413.1046,413.1046,-561.623,-336100.84,158082.81)" gradientUnits="userSpaceOnUse"><stop id="stop701" offset="0" stop-color="#E00D7B"/><stop id="stop703" offset=".461" stop-color="#EA7224"/><stop id="stop705" offset="1" stop-color="#FECC07"/></radialGradient><clipPath id="SVGID_85_"><use id="use698" width="100%" height="100%" x="0" y="0" overflow="visible" xlink:href="#SVGID_84_"/></clipPath><radialGradient id="SVGID_89_" cx="253.841" cy="466.349" r="2.257" gradientTransform="matrix(561.6497,413.1242,413.1242,-561.6497,-336125.84,158090.66)" gradientUnits="userSpaceOnUse"><stop id="stop722" offset="0" stop-color="#E00D7B"/><stop id="stop724" offset=".461" stop-color="#EA7224"/><stop id="stop726" offset="1" stop-color="#FECC07"/></radialGradient><clipPath id="SVGID_88_"><use id="use719" width="100%" height="100%" x="0" y="0" overflow="visible" xlink:href="#SVGID_87_"/></clipPath><radialGradient id="SVGID_92_" cx="253.81" cy="466.406" r="2.203" gradientTransform="matrix(561.6472,413.1223,413.1223,-561.6472,-336114.84,158089.19)" gradientUnits="userSpaceOnUse"><stop id="stop743" offset="0" stop-color="#E00D7B"/><stop id="stop745" offset=".461" stop-color="#EA7224"/><stop id="stop747" offset="1" stop-color="#FECC07"/></radialGradient><clipPath id="SVGID_91_"><use id="use740" width="100%" height="100%" x="0" y="0" overflow="visible" xlink:href="#SVGID_90_"/></clipPath><clipPath id="SVGID_94_"><use id="use761" width="100%" height="100%" x="0" y="0" overflow="visible" xlink:href="#SVGID_93_"/></clipPath><radialGradient id="SVGID_97_" cx="253.816" cy="466.412" r="2.191" gradientTransform="matrix(561.6453,413.121,413.121,-561.6453,-336112.84,158089.44)" gradientUnits="userSpaceOnUse"><stop id="stop770" offset="0" stop-color="#E00D7B"/><stop id="stop772" offset=".461" stop-color="#EA7224"/><stop id="stop774" offset="1" stop-color="#FECC07"/></radialGradient><clipPath id="SVGID_96_"><use id="use767" width="100%" height="100%" x="0" y="0" overflow="visible" xlink:href="#SVGID_95_"/></clipPath><radialGradient id="SVGID_100_" cx="253.806" cy="466.4" r="2.21" gradientTransform="matrix(561.6527,413.1264,413.1264,-561.6527,-336116.63,158090.81)" gradientUnits="userSpaceOnUse"><stop id="stop791" offset="0" stop-color="#E00D7B"/><stop id="stop793" offset=".461" stop-color="#EA7224"/><stop id="stop795" offset="1" stop-color="#FECC07"/></radialGradient><clipPath id="SVGID_99_"><use id="use788" width="100%" height="100%" x="0" y="0" overflow="visible" xlink:href="#SVGID_98_"/></clipPath><radialGradient id="SVGID_103_" cx="253.824" cy="466.46" r="2.136" gradientTransform="matrix(561.6417,413.1183,413.1183,-561.6417,-336111.19,158087.94)" gradientUnits="userSpaceOnUse"><stop id="stop812" offset="0" stop-color="#E00D7B"/><stop id="stop814" offset=".461" stop-color="#EA7224"/><stop id="stop816" offset="1" stop-color="#FECC07"/></radialGradient><clipPath id="SVGID_102_"><use id="use809" width="100%" height="100%" x="0" y="0" overflow="visible" xlink:href="#SVGID_101_"/></clipPath><clipPath id="SVGID_105_"><use id="use830" width="100%" height="100%" x="0" y="0" overflow="visible" xlink:href="#SVGID_104_"/></clipPath><radialGradient id="SVGID_108_" cx="253.834" cy="466.477" r="2.126" gradientTransform="matrix(561.6356,413.1137,413.1137,-561.6356,-336118.03,158084.75)" gradientUnits="userSpaceOnUse"><stop id="stop839" offset="0" stop-color="#E00D7B"/><stop id="stop841" offset=".461" stop-color="#EA7224"/><stop id="stop843" offset="1" stop-color="#FECC07"/></radialGradient><clipPath id="SVGID_107_"><use id="use836" width="100%" height="100%" x="0" y="0" overflow="visible" xlink:href="#SVGID_106_"/></clipPath><clipPath id="SVGID_110_"><use id="use857" width="100%" height="100%" x="0" y="0" overflow="visible" xlink:href="#SVGID_109_"/></clipPath><radialGradient id="SVGID_113_" cx="253.807" cy="466.499" r="2.096" gradientTransform="matrix(561.6498,413.1243,413.1243,-561.6498,-336115.44,158091.13)" gradientUnits="userSpaceOnUse"><stop id="stop866" offset="0" stop-color="#E00D7B"/><stop id="stop868" offset=".461" stop-color="#EA7224"/><stop id="stop870" offset="1" stop-color="#FECC07"/></radialGradient><clipPath id="SVGID_112_"><use id="use863" width="100%" height="100%" x="0" y="0" overflow="visible" xlink:href="#SVGID_111_"/></clipPath><radialGradient id="SVGID_116_" cx="253.804" cy="466.409" r="2.2" gradientTransform="matrix(561.6312,413.1106,413.1106,-561.6312,-336105.59,158085.38)" gradientUnits="userSpaceOnUse"><stop id="stop887" offset="0" stop-color="#E00D7B"/><stop id="stop889" offset=".461" stop-color="#EA7224"/><stop id="stop891" offset="1" stop-color="#FECC07"/></radialGradient><clipPath id="SVGID_115_"><use id="use884" width="100%" height="100%" x="0" y="0" overflow="visible" xlink:href="#SVGID_114_"/></clipPath><radialGradient id="SVGID_119_" cx="253.81" cy="466.418" r="2.188" gradientTransform="matrix(561.6459,413.1214,413.1214,-561.6459,-336113.16,158088.91)" gradientUnits="userSpaceOnUse"><stop id="stop908" offset="0" stop-color="#E00D7B"/><stop id="stop910" offset=".461" stop-color="#EA7224"/><stop id="stop912" offset="1" stop-color="#FECC07"/></radialGradient><clipPath id="SVGID_118_"><use id="use905" width="100%" height="100%" x="0" y="0" overflow="visible" xlink:href="#SVGID_117_"/></clipPath><radialGradient id="SVGID_122_" cx="253.83" cy="466.444" r="2.166" gradientTransform="matrix(561.6405,413.1175,413.1175,-561.6405,-336119.56,158088.16)" gradientUnits="userSpaceOnUse"><stop id="stop929" offset="0" stop-color="#E00D7B"/><stop id="stop931" offset=".461" stop-color="#EA7224"/><stop id="stop933" offset="1" stop-color="#FECC07"/></radialGradient><clipPath id="SVGID_121_"><use id="use926" width="100%" height="100%" x="0" y="0" overflow="visible" xlink:href="#SVGID_120_"/></clipPath><radialGradient id="SVGID_125_" cx="253.813" cy="466.376" r="2.236" gradientTransform="matrix(561.6429,413.1192,413.1192,-561.6429,-336112.41,158088.78)" gradientUnits="userSpaceOnUse"><stop id="stop950" offset="0" stop-color="#E00D7B"/><stop id="stop952" offset=".461" stop-color="#EA7224"/><stop id="stop954" offset="1" stop-color="#FECC07"/></radialGradient><clipPath id="SVGID_124_"><use id="use947" width="100%" height="100%" x="0" y="0" overflow="visible" xlink:href="#SVGID_123_"/></clipPath><radialGradient id="SVGID_128_" cx="253.82" cy="466.411" r="2.19" gradientTransform="matrix(561.6274,413.1078,413.1078,-561.6274,-336102.38,158083.88)" gradientUnits="userSpaceOnUse"><stop id="stop971" offset="0" stop-color="#E00D7B"/><stop id="stop973" offset=".461" stop-color="#EA7224"/><stop id="stop975" offset="1" stop-color="#FECC07"/></radialGradient><clipPath id="SVGID_127_"><use id="use968" width="100%" height="100%" x="0" y="0" overflow="visible" xlink:href="#SVGID_126_"/></clipPath><radialGradient id="SVGID_131_" cx="253.818" cy="466.415" r="2.186" gradientTransform="matrix(561.6534,413.1269,413.1269,-561.6534,-336118,158091.34)" gradientUnits="userSpaceOnUse"><stop id="stop992" offset="0" stop-color="#E00D7B"/><stop id="stop994" offset=".461" stop-color="#EA7224"/><stop id="stop996" offset="1" stop-color="#FECC07"/></radialGradient><clipPath id="SVGID_130_"><use id="use989" width="100%" height="100%" x="0" y="0" overflow="visible" xlink:href="#SVGID_129_"/></clipPath><radialGradient id="SVGID_134_" cx="253.816" cy="466.421" r="2.184" gradientTransform="matrix(561.6432,413.1194,413.1194,-561.6432,-336111.56,158088.03)" gradientUnits="userSpaceOnUse"><stop id="stop1013" offset="0" stop-color="#E00D7B"/><stop id="stop1015" offset=".461" stop-color="#EA7224"/><stop id="stop1017" offset="1" stop-color="#FECC07"/></radialGradient><clipPath id="SVGID_133_"><use id="use1010" width="100%" height="100%" x="0" y="0" overflow="visible" xlink:href="#SVGID_132_"/></clipPath><radialGradient id="SVGID_137_" cx="253.816" cy="466.418" r="2.185" gradientTransform="matrix(561.6627,413.1339,413.1339,-561.6627,-336123.03,158094.94)" gradientUnits="userSpaceOnUse"><stop id="stop1034" offset="0" stop-color="#E00D7B"/><stop id="stop1036" offset=".461" stop-color="#EA7224"/><stop id="stop1038" offset="1" stop-color="#FECC07"/></radialGradient><clipPath id="SVGID_136_"><use id="use1031" width="100%" height="100%" x="0" y="0" overflow="visible" xlink:href="#SVGID_135_"/></clipPath><clipPath id="SVGID_139_"><use id="use1052" width="100%" height="100%" x="0" y="0" overflow="visible" xlink:href="#SVGID_138_"/></clipPath><radialGradient id="SVGID_142_" cx="253.802" cy="466.349" r="2.282" gradientTransform="matrix(561.6483,413.1232,413.1232,-561.6483,-336116.06,158090.34)" gradientUnits="userSpaceOnUse"><stop id="stop1061" offset="0" stop-color="#E00D7B"/><stop id="stop1063" offset=".461" stop-color="#EA7224"/><stop id="stop1065" offset="1" stop-color="#FECC07"/></radialGradient><clipPath id="SVGID_141_"><use id="use1058" width="100%" height="100%" x="0" y="0" overflow="visible" xlink:href="#SVGID_140_"/></clipPath><radialGradient id="SVGID_145_" cx="253.798" cy="466.408" r="2.208" gradientTransform="matrix(561.6455,413.1212,413.1212,-561.6455,-336112.47,158089.13)" gradientUnits="userSpaceOnUse"><stop id="stop1082" offset="0" stop-color="#E00D7B"/><stop id="stop1084" offset=".461" stop-color="#EA7224"/><stop id="stop1086" offset="1" stop-color="#FECC07"/></radialGradient><clipPath id="SVGID_144_"><use id="use1079" width="100%" height="100%" x="0" y="0" overflow="visible" xlink:href="#SVGID_143_"/></clipPath><radialGradient id="SVGID_148_" cx="253.807" cy="466.461" r="2.142" gradientTransform="matrix(561.6691,413.1384,413.1384,-561.6691,-336126.13,158094.53)" gradientUnits="userSpaceOnUse"><stop id="stop1103" offset="0" stop-color="#E00D7B"/><stop id="stop1105" offset=".461" stop-color="#EA7224"/><stop id="stop1107" offset="1" stop-color="#FECC07"/></radialGradient><clipPath id="SVGID_147_"><use id="use1100" width="100%" height="100%" x="0" y="0" overflow="visible" xlink:href="#SVGID_146_"/></clipPath><radialGradient id="SVGID_151_" cx="253.822" cy="466.413" r="2.188" gradientTransform="matrix(561.6476,413.1227,413.1227,-561.6476,-336116.16,158089.63)" gradientUnits="userSpaceOnUse"><stop id="stop1124" offset="0" stop-color="#E00D7B"/><stop id="stop1126" offset=".461" stop-color="#EA7224"/><stop id="stop1128" offset="1" stop-color="#FECC07"/></radialGradient><clipPath id="SVGID_150_"><use id="use1121" width="100%" height="100%" x="0" y="0" overflow="visible" xlink:href="#SVGID_149_"/></clipPath><radialGradient id="SVGID_154_" cx="253.832" cy="466.41" r="2.185" gradientTransform="matrix(561.6406,413.1175,413.1175,-561.6406,-336110.06,158087.69)" gradientUnits="userSpaceOnUse"><stop id="stop1145" offset="0" stop-color="#E00D7B"/><stop id="stop1147" offset=".461" stop-color="#EA7224"/><stop id="stop1149" offset="1" stop-color="#FECC07"/></radialGradient><clipPath id="SVGID_153_"><use id="use1142" width="100%" height="100%" x="0" y="0" overflow="visible" xlink:href="#SVGID_152_"/></clipPath><path id="SVGID_78_" d="m 257.81,477.151 c -3.495,-7.879 0.064,-17.104 7.952,-20.6 7.885,-3.495 17.108,0.067 20.603,7.951 3.491,7.889 -0.063,17.109 -7.951,20.6 -7.888,3.496 -17.111,-0.063 -20.604,-7.951"/><path id="SVGID_81_" d="m 174.527,577.328 c -4.157,-9.371 0.077,-20.337 9.452,-24.489 9.371,-4.157 20.338,0.077 24.493,9.452 4.148,9.375 -0.081,20.332 -9.452,24.493 -9.376,4.148 -20.341,-0.081 -24.493,-9.456"/><path id="SVGID_84_" d="m 246.647,618.209 c -1.793,-4.043 0.034,-8.771 4.078,-10.567 4.046,-1.795 8.779,0.028 10.569,4.075 1.792,4.048 -0.029,8.781 -4.075,10.572 -4.049,1.79 -8.779,-0.027 -10.572,-4.08"/><path id="SVGID_87_" d="m 288.904,519.818 c -1.479,-3.341 0.031,-7.253 3.373,-8.731 3.345,-1.478 7.253,0.028 8.735,3.369 1.478,3.341 -0.027,7.253 -3.373,8.74 -3.34,1.478 -7.248,-0.032 -8.735,-3.378"/><path id="SVGID_90_" d="m 186.848,502.438 c -4.3,-9.705 0.084,-21.062 9.79,-25.363 9.704,-4.298 21.055,0.086 25.357,9.787 4.299,9.711 -0.082,21.062 -9.787,25.359 -9.704,4.301 -21.06,-0.081 -25.36,-9.783"/><rect id="SVGID_93_" width="19.332" height="19.335" x="122.338" y="584.341" transform="matrix(-0.8055,-0.5926,0.5926,-0.8055,-113.6752,1150.7063)"/><path id="SVGID_95_" d="m 123.171,597.928 c -2.167,-4.888 0.036,-10.601 4.914,-12.758 4.882,-2.162 10.594,0.047 12.757,4.924 2.16,4.883 -0.045,10.589 -4.923,12.747 -4.877,2.167 -10.59,-0.036 -12.748,-4.913"/><path id="SVGID_98_" d="m 255.353,603.235 c -3.398,-7.679 0.068,-16.665 7.75,-20.068 7.681,-3.404 16.664,0.062 20.066,7.743 3.413,7.684 -0.062,16.668 -7.741,20.073 -7.68,3.401 -16.671,-0.064 -20.075,-7.748"/><path id="SVGID_101_" d="m 217.271,605.598 c -2.246,-5.072 0.039,-11.012 5.112,-13.255 5.072,-2.245 11.002,0.041 13.249,5.113 2.251,5.067 -0.039,11.007 -5.111,13.25 -5.072,2.249 -11.006,-0.041 -13.25,-5.108"/><rect id="SVGID_104_" width="11.561" height="11.559" x="123.953" y="582.254" transform="matrix(-0.8056,-0.5924,0.5924,-0.8056,-114.097,1138.6334)"/><path id="SVGID_106_" d="m 124.45,590.374 c -1.292,-2.919 0.022,-6.332 2.939,-7.625 2.922,-1.291 6.338,0.027 7.63,2.943 1.294,2.919 -0.022,6.328 -2.944,7.624 -2.922,1.292 -6.333,-0.023 -7.625,-2.942"/><polygon id="SVGID_109_" points="119.216 630.612 133.194 611.595 114.189 597.623 100.21 616.627"/><path id="SVGID_111_" d="m 105.918,618.895 c -2.636,-5.962 0.052,-12.926 6.004,-15.569 5.959,-2.634 12.924,0.052 15.564,6.009 2.639,5.956 -0.049,12.924 -6.006,15.562 -5.954,2.637 -12.924,-0.047 -15.562,-6.002"/><path id="SVGID_114_" d="m 246.271,558.674 c -2.947,-6.637 0.049,-14.407 6.693,-17.35 6.641,-2.942 14.402,0.055 17.346,6.696 2.945,6.642 -0.057,14.406 -6.698,17.345 -6.636,2.947 -14.402,-0.055 -17.341,-6.691"/><path id="SVGID_117_" d="m 199.487,503.403 c -2.33,-5.263 0.045,-11.419 5.306,-13.754 5.263,-2.325 11.419,0.046 13.754,5.309 2.33,5.264 -0.048,11.419 -5.307,13.75 -5.264,2.334 -11.423,-0.042 -13.753,-5.305"/><path id="SVGID_120_" d="m 228.198,573.207 c -3.481,-7.851 0.068,-17.036 7.922,-20.518 7.849,-3.481 17.038,0.068 20.515,7.916 3.482,7.856 -0.061,17.044 -7.919,20.521 -7.854,3.486 -17.034,-0.067 -20.518,-7.919"/><path id="SVGID_123_" d="m 158.984,607.374 c -2.822,-6.373 0.054,-13.827 6.424,-16.649 6.369,-2.82 13.819,0.054 16.646,6.428 2.82,6.368 -0.054,13.822 -6.424,16.641 -6.373,2.824 -13.822,-0.05 -16.646,-6.42"/><path id="SVGID_126_" d="m 247.574,534.298 c -4.4,-9.919 0.085,-21.538 10.013,-25.931 9.926,-4.406 21.541,0.077 25.938,10.006 4.395,9.928 -0.086,21.537 -10.01,25.943 -9.925,4.394 -21.539,-0.09 -25.941,-10.018"/><path id="SVGID_129_" d="m 195.387,542.539 c -3.821,-8.631 0.072,-18.727 8.702,-22.549 8.633,-3.825 18.729,0.073 22.552,8.704 3.822,8.627 -0.074,18.723 -8.702,22.545 -8.631,3.822 -18.728,-0.073 -22.552,-8.7"/><path id="SVGID_132_" d="m 96.067,612.176 c -6.276,-14.167 0.12,-30.74 14.287,-37.021 14.161,-6.273 30.737,0.123 37.012,14.285 6.278,14.167 -0.118,30.74 -14.282,37.019 -14.172,6.273 -30.743,-0.121 -37.017,-14.283"/><path id="SVGID_135_" d="m 266.072,481.535 c -3.107,-7.009 0.059,-15.209 7.065,-18.311 7.006,-3.104 15.205,0.055 18.314,7.063 3.096,7.009 -0.064,15.209 -7.07,18.314 -7.007,3.106 -15.209,-0.062 -18.309,-7.066"/><rect id="SVGID_138_" width="21.706" height="21.705" x="112.559" y="598.093" transform="matrix(-0.8057,-0.5924,0.5924,-0.8057,-137.8689,1172.6627)"/><path id="SVGID_140_" d="m 113.491,613.335 c -2.43,-5.472 0.047,-11.885 5.526,-14.312 5.479,-2.43 11.889,0.047 14.314,5.521 2.43,5.48 -0.045,11.891 -5.524,14.322 -5.479,2.431 -11.887,-0.05 -14.316,-5.531"/><path id="SVGID_143_" d="m 170.114,626.744 c -3.534,-7.991 0.07,-17.33 8.056,-20.87 7.98,-3.536 17.324,0.072 20.86,8.056 3.543,7.982 -0.063,17.321 -8.046,20.866 -7.993,3.536 -17.33,-0.072 -20.87,-8.052"/><path id="SVGID_146_" d="m 233.485,506.272 c -3.423,-7.732 0.063,-16.777 7.792,-20.2 7.736,-3.423 16.777,0.068 20.202,7.798 3.428,7.733 -0.063,16.773 -7.794,20.2 -7.732,3.427 -16.774,-0.063 -20.2,-7.798"/><path id="SVGID_149_" d="m 228.115,593.825 c -2.217,-5.01 0.042,-10.858 5.05,-13.079 5.002,-2.217 10.857,0.041 13.073,5.045 2.222,5.005 -0.038,10.867 -5.045,13.084 -5.005,2.212 -10.861,-0.05 -13.078,-5.05"/><path id="SVGID_152_" d="m 210.351,516.618 c -2.14,-4.824 0.043,-10.481 4.869,-12.621 4.828,-2.135 10.478,0.046 12.618,4.874 2.138,4.827 -0.043,10.477 -4.868,12.616 -4.828,2.14 -10.481,-0.042 -12.619,-4.869"/><clipPath id="clipPath4735" clipPathUnits="userSpaceOnUse"><rect id="rect4737" width="58.569" height="56.904" x="93.061" y="572.334" stroke-width=".808"/></clipPath></defs><metadata id="metadata3147"/><g id="layer1" transform="translate(-17.654838,-15.847275)"><g id="g1164" clip-path="url(#clipPath4735)" transform="matrix(0.26458333,0,0,0.26458333,-7.12483,-135.58266)"><g id="g1162"><g id="g1160"><g id="g672" opacity=".49"><g id="g670"><g id="g668"><defs id="defs654"><path id="path3774" d="m 257.81,477.151 c -3.495,-7.879 0.064,-17.104 7.952,-20.6 7.885,-3.495 17.108,0.067 20.603,7.951 3.491,7.889 -0.063,17.109 -7.951,20.6 -7.888,3.496 -17.111,-0.063 -20.604,-7.951"/></defs><clipPath id="clipPath2653"><use id="use2651" width="100%" height="100%" x="0" y="0" overflow="visible" xlink:href="#SVGID_78_"/></clipPath><radialGradient id="radialGradient2661" cx="253.819" cy="466.438" r="2.167" gradientTransform="matrix(561.6445,413.1204,413.1204,-561.6445,-336113.84,158088.78)" gradientUnits="userSpaceOnUse"><stop id="stop2655" offset="0" stop-color="#E00D7B"/><stop id="stop2657" offset=".461" stop-color="#EA7224"/><stop id="stop2659" offset="1" stop-color="#FECC07"/></radialGradient><polygon id="polygon666" fill="url(#SVGID_80_)" points="247.148 474.626 268.284 445.89 297.023 467.033 275.887 495.773" clip-path="url(#SVGID_79_)"/></g></g></g><g id="g693" opacity=".34"><g id="g691"><g id="g689"><defs id="defs675"><path id="path3787" d="m 174.527,577.328 c -4.157,-9.371 0.077,-20.337 9.452,-24.489 9.371,-4.157 20.338,0.077 24.493,9.452 4.148,9.375 -0.081,20.332 -9.452,24.493 -9.376,4.148 -20.341,-0.081 -24.493,-9.456"/></defs><clipPath id="clipPath2671"><use id="use2669" width="100%" height="100%" x="0" y="0" overflow="visible" xlink:href="#SVGID_81_"/></clipPath><radialGradient id="radialGradient2679" cx="253.829" cy="466.453" r="2.137" gradientTransform="matrix(561.6497,413.1243,413.1243,-561.6497,-336115.94,158091.53)" gradientUnits="userSpaceOnUse"><stop id="stop2673" offset="0" stop-color="#E00D7B"/><stop id="stop2675" offset=".461" stop-color="#EA7224"/><stop id="stop2677" offset="1" stop-color="#FECC07"/></radialGradient><polygon id="polygon687" fill="url(#SVGID_83_)" points="161.854 574.327 186.979 540.164 221.143 565.292 196.012 599.454" clip-path="url(#SVGID_82_)"/></g></g></g><g id="g714" opacity=".71"><g id="g712"><g id="g710"><defs id="defs696"><path id="path3800" d="m 246.647,618.209 c -1.793,-4.043 0.034,-8.771 4.078,-10.567 4.046,-1.795 8.779,0.028 10.569,4.075 1.792,4.048 -0.029,8.781 -4.075,10.572 -4.049,1.79 -8.779,-0.027 -10.572,-4.08"/></defs><clipPath id="clipPath2689"><use id="use2687" width="100%" height="100%" x="0" y="0" overflow="visible" xlink:href="#SVGID_84_"/></clipPath><radialGradient id="radialGradient2697" cx="253.781" cy="466.382" r="2.25" gradientTransform="matrix(561.623,413.1046,413.1046,-561.623,-336100.84,158082.81)" gradientUnits="userSpaceOnUse"><stop id="stop2691" offset="0" stop-color="#E00D7B"/><stop id="stop2693" offset=".461" stop-color="#EA7224"/><stop id="stop2695" offset="1" stop-color="#FECC07"/></radialGradient><polygon id="polygon708" fill="url(#SVGID_86_)" points="241.175 616.917 252.023 602.171 266.768 613.019 255.919 627.761" clip-path="url(#SVGID_85_)"/></g></g></g><g id="g735" opacity=".62"><g id="g733"><g id="g731"><defs id="defs717"><path id="path3813" d="m 288.904,519.818 c -1.479,-3.341 0.031,-7.253 3.373,-8.731 3.345,-1.478 7.253,0.028 8.735,3.369 1.478,3.341 -0.027,7.253 -3.373,8.74 -3.34,1.478 -7.248,-0.032 -8.735,-3.378"/></defs><clipPath id="clipPath2707"><use id="use2705" width="100%" height="100%" x="0" y="0" overflow="visible" xlink:href="#SVGID_87_"/></clipPath><radialGradient id="radialGradient2715" cx="253.841" cy="466.349" r="2.257" gradientTransform="matrix(561.6497,413.1242,413.1242,-561.6497,-336125.84,158090.66)" gradientUnits="userSpaceOnUse"><stop id="stop2709" offset="0" stop-color="#E00D7B"/><stop id="stop2711" offset=".461" stop-color="#EA7224"/><stop id="stop2713" offset="1" stop-color="#FECC07"/></radialGradient><polygon id="polygon729" fill="url(#SVGID_89_)" points="284.387 518.749 293.347 506.568 305.532 515.53 296.574 527.711" clip-path="url(#SVGID_88_)"/></g></g></g><g id="g756" opacity=".45"><g id="g754"><g id="g752"><defs id="defs738"><path id="path3826" d="m 186.848,502.438 c -4.3,-9.705 0.084,-21.062 9.79,-25.363 9.704,-4.298 21.055,0.086 25.357,9.787 4.299,9.711 -0.082,21.062 -9.787,25.359 -9.704,4.301 -21.06,-0.081 -25.36,-9.783"/></defs><clipPath id="clipPath2725"><use id="use2723" width="100%" height="100%" x="0" y="0" overflow="visible" xlink:href="#SVGID_90_"/></clipPath><radialGradient id="radialGradient2733" cx="253.81" cy="466.406" r="2.203" gradientTransform="matrix(561.6472,413.1223,413.1223,-561.6472,-336114.84,158089.19)" gradientUnits="userSpaceOnUse"><stop id="stop2727" offset="0" stop-color="#E00D7B"/><stop id="stop2729" offset=".461" stop-color="#EA7224"/><stop id="stop2731" offset="1" stop-color="#FECC07"/></radialGradient><polygon id="polygon750" fill="url(#SVGID_92_)" points="173.727 499.328 199.748 463.955 235.116 489.972 209.098 525.35" clip-path="url(#SVGID_91_)"/></g></g></g><g id="g783" opacity=".26"><g id="g781"><defs id="defs759"><rect id="rect3839" width="19.332" height="19.335" x="122.338" y="584.341" transform="matrix(-0.8055,-0.5926,0.5926,-0.8055,-113.6752,1150.7063)"/></defs><clipPath id="clipPath2743"><use id="use2741" width="100%" height="100%" x="0" y="0" overflow="visible" xlink:href="#SVGID_93_"/></clipPath><g id="g779" clip-path="url(#SVGID_94_)"><defs id="defs765"><path id="path3844" d="m 123.171,597.928 c -2.167,-4.888 0.036,-10.601 4.914,-12.758 4.882,-2.162 10.594,0.047 12.757,4.924 2.16,4.883 -0.045,10.589 -4.923,12.747 -4.877,2.167 -10.59,-0.036 -12.748,-4.913"/></defs><clipPath id="clipPath2749"><use id="use2747" width="100%" height="100%" x="0" y="0" overflow="visible" xlink:href="#SVGID_95_"/></clipPath><radialGradient id="radialGradient2757" cx="253.816" cy="466.412" r="2.191" gradientTransform="matrix(561.6453,413.121,413.121,-561.6453,-336112.84,158089.44)" gradientUnits="userSpaceOnUse"><stop id="stop2751" offset="0" stop-color="#E00D7B"/><stop id="stop2753" offset=".461" stop-color="#EA7224"/><stop id="stop2755" offset="1" stop-color="#FECC07"/></radialGradient><polygon id="polygon777" fill="url(#SVGID_97_)" points="116.571 596.358 129.651 578.575 147.436 591.658 134.353 609.438" clip-path="url(#SVGID_96_)"/></g></g></g><g id="g804" opacity=".5"><g id="g802"><g id="g800"><defs id="defs786"><path id="path3857" d="m 255.353,603.235 c -3.398,-7.679 0.068,-16.665 7.75,-20.068 7.681,-3.404 16.664,0.062 20.066,7.743 3.413,7.684 -0.062,16.668 -7.741,20.073 -7.68,3.401 -16.671,-0.064 -20.075,-7.748"/></defs><clipPath id="clipPath2767"><use id="use2765" width="100%" height="100%" x="0" y="0" overflow="visible" xlink:href="#SVGID_98_"/></clipPath><radialGradient id="radialGradient2775" cx="253.806" cy="466.4" r="2.21" gradientTransform="matrix(561.6527,413.1264,413.1264,-561.6527,-336116.63,158090.81)" gradientUnits="userSpaceOnUse"><stop id="stop2769" offset="0" stop-color="#E00D7B"/><stop id="stop2771" offset=".461" stop-color="#EA7224"/><stop id="stop2773" offset="1" stop-color="#FECC07"/></radialGradient><polygon id="polygon798" fill="url(#SVGID_100_)" points="244.972 600.779 265.562 572.78 293.56 593.376 272.967 621.364" clip-path="url(#SVGID_99_)"/></g></g></g><g id="g825" opacity=".26"><g id="g823"><g id="g821"><defs id="defs807"><path id="path3870" d="m 217.271,605.598 c -2.246,-5.072 0.039,-11.012 5.112,-13.255 5.072,-2.245 11.002,0.041 13.249,5.113 2.251,5.067 -0.039,11.007 -5.111,13.25 -5.072,2.249 -11.006,-0.041 -13.25,-5.108"/></defs><clipPath id="clipPath2785"><use id="use2783" width="100%" height="100%" x="0" y="0" overflow="visible" xlink:href="#SVGID_101_"/></clipPath><radialGradient id="radialGradient2793" cx="253.824" cy="466.46" r="2.136" gradientTransform="matrix(561.6417,413.1183,413.1183,-561.6417,-336111.19,158087.94)" gradientUnits="userSpaceOnUse"><stop id="stop2787" offset="0" stop-color="#E00D7B"/><stop id="stop2789" offset=".461" stop-color="#EA7224"/><stop id="stop2791" offset="1" stop-color="#FECC07"/></radialGradient><polygon id="polygon819" fill="url(#SVGID_103_)" points="210.407 603.965 224.007 585.483 242.487 599.084 228.896 617.565" clip-path="url(#SVGID_102_)"/></g></g></g><g id="g852" opacity=".45"><g id="g850"><defs id="defs828"><rect id="rect3883" width="11.561" height="11.559" x="123.953" y="582.254" transform="matrix(-0.8056,-0.5924,0.5924,-0.8056,-114.097,1138.6334)"/></defs><clipPath id="clipPath2803"><use id="use2801" width="100%" height="100%" x="0" y="0" overflow="visible" xlink:href="#SVGID_104_"/></clipPath><g id="g848" clip-path="url(#SVGID_105_)"><defs id="defs834"><path id="path3888" d="m 124.45,590.374 c -1.292,-2.919 0.022,-6.332 2.939,-7.625 2.922,-1.291 6.338,0.027 7.63,2.943 1.294,2.919 -0.022,6.328 -2.944,7.624 -2.922,1.292 -6.333,-0.023 -7.625,-2.942"/></defs><clipPath id="clipPath2809"><use id="use2807" width="100%" height="100%" x="0" y="0" overflow="visible" xlink:href="#SVGID_106_"/></clipPath><radialGradient id="radialGradient2817" cx="253.834" cy="466.477" r="2.126" gradientTransform="matrix(561.6356,413.1137,413.1137,-561.6356,-336118.03,158084.75)" gradientUnits="userSpaceOnUse"><stop id="stop2811" offset="0" stop-color="#E00D7B"/><stop id="stop2813" offset=".461" stop-color="#EA7224"/><stop id="stop2815" offset="1" stop-color="#FECC07"/></radialGradient><polygon id="polygon846" fill="url(#SVGID_108_)" points="120.501 589.44 128.328 578.802 138.965 586.625 131.141 597.266" clip-path="url(#SVGID_107_)"/></g></g></g><g id="g879" opacity=".77"><g id="g877"><defs id="defs855"><polygon id="polygon3901" points="114.189 597.623 100.21 616.627 119.216 630.612 133.194 611.595"/></defs><clipPath id="clipPath2827"><use id="use2825" width="100%" height="100%" x="0" y="0" overflow="visible" xlink:href="#SVGID_109_"/></clipPath><g id="g875" clip-path="url(#SVGID_110_)"><defs id="defs861"><path id="path3906" d="m 105.918,618.895 c -2.636,-5.962 0.052,-12.926 6.004,-15.569 5.959,-2.634 12.924,0.052 15.564,6.009 2.639,5.956 -0.049,12.924 -6.006,15.562 -5.954,2.637 -12.924,-0.047 -15.562,-6.002"/></defs><clipPath id="clipPath2833"><use id="use2831" width="100%" height="100%" x="0" y="0" overflow="visible" xlink:href="#SVGID_111_"/></clipPath><radialGradient id="radialGradient2841" cx="253.807" cy="466.499" r="2.096" gradientTransform="matrix(561.6498,413.1243,413.1243,-561.6498,-336115.44,158091.13)" gradientUnits="userSpaceOnUse"><stop id="stop2835" offset="0" stop-color="#E00D7B"/><stop id="stop2837" offset=".461" stop-color="#EA7224"/><stop id="stop2839" offset="1" stop-color="#FECC07"/></radialGradient><polygon id="polygon873" fill="url(#SVGID_113_)" points="97.867 616.985 113.831 595.28 135.539 611.246 119.574 632.95" clip-path="url(#SVGID_112_)"/></g></g></g><g id="g900" opacity=".66"><g id="g898"><g id="g896"><defs id="defs882"><path id="path3919" d="m 246.271,558.674 c -2.947,-6.637 0.049,-14.407 6.693,-17.35 6.641,-2.942 14.402,0.055 17.346,6.696 2.945,6.642 -0.057,14.406 -6.698,17.345 -6.636,2.947 -14.402,-0.055 -17.341,-6.691"/></defs><clipPath id="clipPath2851"><use id="use2849" width="100%" height="100%" x="0" y="0" overflow="visible" xlink:href="#SVGID_114_"/></clipPath><radialGradient id="radialGradient2859" cx="253.804" cy="466.409" r="2.2" gradientTransform="matrix(561.6312,413.1106,413.1106,-561.6312,-336105.59,158085.38)" gradientUnits="userSpaceOnUse"><stop id="stop2853" offset="0" stop-color="#E00D7B"/><stop id="stop2855" offset=".461" stop-color="#EA7224"/><stop id="stop2857" offset="1" stop-color="#FECC07"/></radialGradient><polygon id="polygon894" fill="url(#SVGID_116_)" points="237.291 556.547 255.087 532.344 279.289 550.146 261.491 574.345" clip-path="url(#SVGID_115_)"/></g></g></g><g id="g921" opacity=".64"><g id="g919"><g id="g917"><defs id="defs903"><path id="path3932" d="m 199.487,503.403 c -2.33,-5.263 0.045,-11.419 5.306,-13.754 5.263,-2.325 11.419,0.046 13.754,5.309 2.33,5.264 -0.048,11.419 -5.307,13.75 -5.264,2.334 -11.423,-0.042 -13.753,-5.305"/></defs><clipPath id="clipPath2869"><use id="use2867" width="100%" height="100%" x="0" y="0" overflow="visible" xlink:href="#SVGID_117_"/></clipPath><radialGradient id="radialGradient2877" cx="253.81" cy="466.418" r="2.188" gradientTransform="matrix(561.6459,413.1214,413.1214,-561.6459,-336113.16,158088.91)" gradientUnits="userSpaceOnUse"><stop id="stop2871" offset="0" stop-color="#E00D7B"/><stop id="stop2873" offset=".461" stop-color="#EA7224"/><stop id="stop2875" offset="1" stop-color="#FECC07"/></radialGradient><polygon id="polygon915" fill="url(#SVGID_119_)" points="192.375 501.717 206.482 482.537 225.66 496.645 211.548 515.824" clip-path="url(#SVGID_118_)"/></g></g></g><g id="g942" opacity=".31"><g id="g940"><g id="g938"><defs id="defs924"><path id="path3945" d="m 228.198,573.207 c -3.481,-7.851 0.068,-17.036 7.922,-20.518 7.849,-3.481 17.038,0.068 20.515,7.916 3.482,7.856 -0.061,17.044 -7.919,20.521 -7.854,3.486 -17.034,-0.067 -20.518,-7.919"/></defs><clipPath id="clipPath2887"><use id="use2885" width="100%" height="100%" x="0" y="0" overflow="visible" xlink:href="#SVGID_120_"/></clipPath><radialGradient id="radialGradient2895" cx="253.83" cy="466.444" r="2.166" gradientTransform="matrix(561.6405,413.1175,413.1175,-561.6405,-336119.56,158088.16)" gradientUnits="userSpaceOnUse"><stop id="stop2889" offset="0" stop-color="#E00D7B"/><stop id="stop2891" offset=".461" stop-color="#EA7224"/><stop id="stop2893" offset="1" stop-color="#FECC07"/></radialGradient><polygon id="polygon936" fill="url(#SVGID_122_)" points="217.583 570.691 238.634 542.072 267.257 563.125 246.203 591.748" clip-path="url(#SVGID_121_)"/></g></g></g><g id="g963" opacity=".5"><g id="g961"><g id="g959"><defs id="defs945"><path id="path3958" d="m 158.984,607.374 c -2.822,-6.373 0.054,-13.827 6.424,-16.649 6.369,-2.82 13.819,0.054 16.646,6.428 2.82,6.368 -0.054,13.822 -6.424,16.641 -6.373,2.824 -13.822,-0.05 -16.646,-6.42"/></defs><clipPath id="clipPath2905"><use id="use2903" width="100%" height="100%" x="0" y="0" overflow="visible" xlink:href="#SVGID_123_"/></clipPath><radialGradient id="radialGradient2913" cx="253.813" cy="466.376" r="2.236" gradientTransform="matrix(561.6429,413.1192,413.1192,-561.6429,-336112.41,158088.78)" gradientUnits="userSpaceOnUse"><stop id="stop2907" offset="0" stop-color="#E00D7B"/><stop id="stop2909" offset=".461" stop-color="#EA7224"/><stop id="stop2911" offset="1" stop-color="#FECC07"/></radialGradient><polygon id="polygon957" fill="url(#SVGID_125_)" points="150.371 605.33 167.451 582.115 190.665 599.191 173.59 622.406" clip-path="url(#SVGID_124_)"/></g></g></g><g id="g984" opacity=".62"><g id="g982"><g id="g980"><defs id="defs966"><path id="path3971" d="m 247.574,534.298 c -4.4,-9.919 0.085,-21.538 10.013,-25.931 9.926,-4.406 21.541,0.077 25.938,10.006 4.395,9.928 -0.086,21.537 -10.01,25.943 -9.925,4.394 -21.539,-0.09 -25.941,-10.018"/></defs><clipPath id="clipPath2923"><use id="use2921" width="100%" height="100%" x="0" y="0" overflow="visible" xlink:href="#SVGID_126_"/></clipPath><radialGradient id="radialGradient2931" cx="253.82" cy="466.411" r="2.19" gradientTransform="matrix(561.6274,413.1078,413.1078,-561.6274,-336102.38,158083.88)" gradientUnits="userSpaceOnUse"><stop id="stop2925" offset="0" stop-color="#E00D7B"/><stop id="stop2927" offset=".461" stop-color="#EA7224"/><stop id="stop2929" offset="1" stop-color="#FECC07"/></radialGradient><polygon id="polygon978" fill="url(#SVGID_128_)" points="234.157 531.12 260.768 494.94 296.946 521.55 270.335 557.731" clip-path="url(#SVGID_127_)"/></g></g></g><g id="g1005" opacity=".73"><g id="g1003"><g id="g1001"><defs id="defs987"><path id="path3984" d="m 195.387,542.539 c -3.821,-8.631 0.072,-18.727 8.702,-22.549 8.633,-3.825 18.729,0.073 22.552,8.704 3.822,8.627 -0.074,18.723 -8.702,22.545 -8.631,3.822 -18.728,-0.073 -22.552,-8.7"/></defs><clipPath id="clipPath2941"><use id="use2939" width="100%" height="100%" x="0" y="0" overflow="visible" xlink:href="#SVGID_129_"/></clipPath><radialGradient id="radialGradient2949" cx="253.818" cy="466.415" r="2.186" gradientTransform="matrix(561.6534,413.1269,413.1269,-561.6534,-336118,158091.34)" gradientUnits="userSpaceOnUse"><stop id="stop2943" offset="0" stop-color="#E00D7B"/><stop id="stop2945" offset=".461" stop-color="#EA7224"/><stop id="stop2947" offset="1" stop-color="#FECC07"/></radialGradient><polygon id="polygon999" fill="url(#SVGID_131_)" points="183.718 539.774 206.856 508.318 238.308 531.455 215.17 562.907" clip-path="url(#SVGID_130_)"/></g></g></g><g id="g1026" opacity=".49"><g id="g1024"><g id="g1022"><defs id="defs1008"><path id="path3997" d="m 96.067,612.176 c -6.276,-14.167 0.12,-30.74 14.287,-37.021 14.161,-6.273 30.737,0.123 37.012,14.285 6.278,14.167 -0.118,30.74 -14.282,37.019 -14.172,6.273 -30.743,-0.121 -37.017,-14.283"/></defs><clipPath id="clipPath2959"><use id="use2957" width="100%" height="100%" x="0" y="0" overflow="visible" xlink:href="#SVGID_132_"/></clipPath><radialGradient id="radialGradient2967" cx="253.816" cy="466.421" r="2.184" gradientTransform="matrix(561.6432,413.1194,413.1194,-561.6432,-336111.56,158088.03)" gradientUnits="userSpaceOnUse"><stop id="stop2961" offset="0" stop-color="#E00D7B"/><stop id="stop2963" offset=".461" stop-color="#EA7224"/><stop id="stop2965" offset="1" stop-color="#FECC07"/></radialGradient><polygon id="polygon1020" fill="url(#SVGID_134_)" points="76.914 607.639 114.892 556.004 166.521 593.979 128.543 645.612" clip-path="url(#SVGID_133_)"/></g></g></g><g id="g1047" opacity=".61"><g id="g1045"><g id="g1043"><defs id="defs1029"><path id="path4010" d="m 266.072,481.535 c -3.107,-7.009 0.059,-15.209 7.065,-18.311 7.006,-3.104 15.205,0.055 18.314,7.063 3.096,7.009 -0.064,15.209 -7.07,18.314 -7.007,3.106 -15.209,-0.062 -18.309,-7.066"/></defs><clipPath id="clipPath2977"><use id="use2975" width="100%" height="100%" x="0" y="0" overflow="visible" xlink:href="#SVGID_135_"/></clipPath><radialGradient id="radialGradient2985" cx="253.816" cy="466.418" r="2.185" gradientTransform="matrix(561.6627,413.1339,413.1339,-561.6627,-336123.03,158094.94)" gradientUnits="userSpaceOnUse"><stop id="stop2979" offset="0" stop-color="#E00D7B"/><stop id="stop2981" offset=".461" stop-color="#EA7224"/><stop id="stop2983" offset="1" stop-color="#FECC07"/></radialGradient><polygon id="polygon1041" fill="url(#SVGID_137_)" points="256.593 479.286 275.381 453.745 300.926 472.536 282.136 498.077" clip-path="url(#SVGID_136_)"/></g></g></g><g id="g1074" opacity=".38"><g id="g1072"><defs id="defs1050"><rect id="rect4023" width="21.706" height="21.705" x="112.559" y="598.093" transform="matrix(-0.8057,-0.5924,0.5924,-0.8057,-137.8689,1172.6627)"/></defs><clipPath id="clipPath2995"><use id="use2993" width="100%" height="100%" x="0" y="0" overflow="visible" xlink:href="#SVGID_138_"/></clipPath><g id="g1070" clip-path="url(#SVGID_139_)"><defs id="defs1056"><path id="path4028" d="m 113.491,613.335 c -2.43,-5.472 0.047,-11.885 5.526,-14.312 5.479,-2.43 11.889,0.047 14.314,5.521 2.43,5.48 -0.045,11.891 -5.524,14.322 -5.479,2.431 -11.887,-0.05 -14.316,-5.531"/></defs><clipPath id="clipPath3001"><use id="use2999" width="100%" height="100%" x="0" y="0" overflow="visible" xlink:href="#SVGID_140_"/></clipPath><radialGradient id="radialGradient3009" cx="253.802" cy="466.349" r="2.282" gradientTransform="matrix(561.6483,413.1232,413.1232,-561.6483,-336116.06,158090.34)" gradientUnits="userSpaceOnUse"><stop id="stop3003" offset="0" stop-color="#E00D7B"/><stop id="stop3005" offset=".461" stop-color="#EA7224"/><stop id="stop3007" offset="1" stop-color="#FECC07"/></radialGradient><polygon id="polygon1068" fill="url(#SVGID_142_)" points="106.085 611.581 120.773 591.616 140.74 606.305 126.052 626.27" clip-path="url(#SVGID_141_)"/></g></g></g><g id="g1095" opacity=".66"><g id="g1093"><g id="g1091"><defs id="defs1077"><path id="path4041" d="m 170.114,626.744 c -3.534,-7.991 0.07,-17.33 8.056,-20.87 7.98,-3.536 17.324,0.072 20.86,8.056 3.543,7.982 -0.063,17.321 -8.046,20.866 -7.993,3.536 -17.33,-0.072 -20.87,-8.052"/></defs><clipPath id="clipPath3019"><use id="use3017" width="100%" height="100%" x="0" y="0" overflow="visible" xlink:href="#SVGID_143_"/></clipPath><radialGradient id="radialGradient3027" cx="253.798" cy="466.408" r="2.208" gradientTransform="matrix(561.6455,413.1212,413.1212,-561.6455,-336112.47,158089.13)" gradientUnits="userSpaceOnUse"><stop id="stop3021" offset="0" stop-color="#E00D7B"/><stop id="stop3023" offset=".461" stop-color="#EA7224"/><stop id="stop3025" offset="1" stop-color="#FECC07"/></radialGradient><polygon id="polygon1089" fill="url(#SVGID_145_)" points="159.32 624.185 180.724 595.085 209.828 616.491 188.423 645.585" clip-path="url(#SVGID_144_)"/></g></g></g><g id="g1116" opacity=".64"><g id="g1114"><g id="g1112"><defs id="defs1098"><path id="path4054" d="m 233.485,506.272 c -3.423,-7.732 0.063,-16.777 7.792,-20.2 7.736,-3.423 16.777,0.068 20.202,7.798 3.428,7.733 -0.063,16.773 -7.794,20.2 -7.732,3.427 -16.774,-0.063 -20.2,-7.798"/></defs><clipPath id="clipPath3037"><use id="use3035" width="100%" height="100%" x="0" y="0" overflow="visible" xlink:href="#SVGID_146_"/></clipPath><radialGradient id="radialGradient3045" cx="253.807" cy="466.461" r="2.142" gradientTransform="matrix(561.6691,413.1384,413.1384,-561.6691,-336126.13,158094.53)" gradientUnits="userSpaceOnUse"><stop id="stop3039" offset="0" stop-color="#E00D7B"/><stop id="stop3041" offset=".461" stop-color="#EA7224"/><stop id="stop3043" offset="1" stop-color="#FECC07"/></radialGradient><polygon id="polygon1110" fill="url(#SVGID_148_)" points="223.033 503.798 243.757 475.619 271.936 496.345 251.208 524.524" clip-path="url(#SVGID_147_)"/></g></g></g><g id="g1137" opacity=".71"><g id="g1135"><g id="g1133"><defs id="defs1119"><path id="path4067" d="m 228.115,593.825 c -2.217,-5.01 0.042,-10.858 5.05,-13.079 5.002,-2.217 10.857,0.041 13.073,5.045 2.222,5.005 -0.038,10.867 -5.045,13.084 -5.005,2.212 -10.861,-0.05 -13.078,-5.05"/></defs><clipPath id="clipPath3055"><use id="use3053" width="100%" height="100%" x="0" y="0" overflow="visible" xlink:href="#SVGID_149_"/></clipPath><radialGradient id="radialGradient3063" cx="253.822" cy="466.413" r="2.188" gradientTransform="matrix(561.6476,413.1227,413.1227,-561.6476,-336116.16,158089.63)" gradientUnits="userSpaceOnUse"><stop id="stop3057" offset="0" stop-color="#E00D7B"/><stop id="stop3059" offset=".461" stop-color="#EA7224"/><stop id="stop3061" offset="1" stop-color="#FECC07"/></radialGradient><polygon id="polygon1131" fill="url(#SVGID_151_)" points="221.349 592.22 234.765 573.979 253.012 587.401 239.593 605.638" clip-path="url(#SVGID_150_)"/></g></g></g><g id="g1158" opacity=".68"><g id="g1156"><g id="g1154"><defs id="defs1140"><path id="path4080" d="m 210.351,516.618 c -2.14,-4.824 0.043,-10.481 4.869,-12.621 4.828,-2.135 10.478,0.046 12.618,4.874 2.138,4.827 -0.043,10.477 -4.868,12.616 -4.828,2.14 -10.481,-0.042 -12.619,-4.869"/></defs><clipPath id="clipPath3073"><use id="use3071" width="100%" height="100%" x="0" y="0" overflow="visible" xlink:href="#SVGID_152_"/></clipPath><radialGradient id="radialGradient3081" cx="253.832" cy="466.41" r="2.185" gradientTransform="matrix(561.6406,413.1175,413.1175,-561.6406,-336110.06,158087.69)" gradientUnits="userSpaceOnUse"><stop id="stop3075" offset="0" stop-color="#E00D7B"/><stop id="stop3077" offset=".461" stop-color="#EA7224"/><stop id="stop3079" offset="1" stop-color="#FECC07"/></radialGradient><polygon id="polygon1152" fill="url(#SVGID_154_)" points="203.821 515.067 216.768 497.469 234.368 510.417 221.419 528.015" clip-path="url(#SVGID_153_)"/></g></g></g></g></g></g></g></svg>