<svg xmlns="http://www.w3.org/2000/svg" width="94.667" height="94.667" preserveAspectRatio="xMidYMid meet" version="1.0" viewBox="0 0 71 71"><metadata>Created by potrace 1.11, written by Peter Selinger 2001-2013</metadata><g fill="#000" stroke="none"><path d="M349 691 c0 -10 -2 -12 -6 -3 -2 6 -18 12 -33 12 -38 0 -140 -38 -140 -52 0 -6 -3 -9 -6 -5 -6 5 -39 -20 -76 -58 -19 -19 -59 -88 -64 -110 -2 -5 -7 -24 -12 -41 -7 -23 -7 -36 1 -44 9 -10 9 -11 0 -6 -9 5 -13 -3 -13 -28 0 -20 4 -36 10 -36 5 0 7 -7 4 -15 -8 -19 24 -113 41 -122 8 -5 14 -12 15 -18 1 -5 6 -9 12 -7 5 1 7 -2 4 -6 -7 -12 35 -62 52 -62 7 0 12 -4 12 -8 0 -9 48 -36 65 -37 6 0 13 -4 16 -8 6 -8 92 -20 134 -18 43 1 115 23 108 34 -4 6 0 8 10 4 17 -6 111 55 100 66 -3 4 -1 7 5 7 7 0 12 7 12 16 0 9 5 12 12 8 8 -5 9 -2 5 10 -4 10 -3 15 3 11 12 -8 48 64 56 112 3 21 8 40 10 42 2 2 -1 10 -7 18 -9 10 -8 13 1 13 9 0 9 4 -1 17 -10 11 -10 14 -1 9 6 -4 12 -2 12 3 0 6 -4 11 -10 11 -5 0 -6 7 -3 17 4 10 2 14 -5 9 -6 -3 -14 -1 -18 5 -4 7 -3 9 4 5 20 -12 21 10 1 54 -11 25 -23 47 -27 50 -4 3 -12 14 -19 25 -6 11 -16 19 -23 17 -6 -1 -9 2 -6 7 6 9 -52 61 -67 60 -4 0 -15 7 -23 16 -9 8 -22 16 -30 16 -23 2 -28 4 -41 12 -8 5 -13 4 -13 -2 0 -6 -5 -11 -11 -11 -5 0 -8 4 -5 9 3 5 -5 11 -19 13 -18 4 -25 1 -26 -11z m-89 -55 c0 -2 -8 -10 -17 -17 -16 -13 -17 -12 -4 4 13 16 21 21 21 13z m40 0 c0 -2 -8 -10 -17 -17 -16 -13 -17 -12 -4 4 13 16 21 21 21 13z m-190 -80 c0 -3 -4 -8 -10 -11 -5 -3 -10 -1 -10 4 0 6 5 11 10 11 6 0 10 -2 10 -4z m495 -46 c3 -5 1 -10 -4 -10 -6 0 -11 5 -11 10 0 6 2 10 4 10 3 0 8 -4 11 -10z m45 -24 c0 -2 -8 -10 -17 -17 -16 -13 -17 -12 -4 4 13 16 21 21 21 13z m-606 -106 c-6 -6 -10 -3 -10 10 0 13 4 16 10 10 7 -7 7 -13 0 -20z m527 -107 c13 -16 12 -17 -3 -4 -10 7 -18 15 -18 17 0 8 8 3 21 -13z m-490 -10 c13 -16 12 -17 -3 -4 -10 7 -18 15 -18 17 0 8 8 3 21 -13z m445 -108 c-1 -8 -5 -17 -8 -21 -5 -4 -4 16 1 34 3 9 9 -1 7 -13z m35 -12 c13 -16 12 -17 -3 -4 -17 13 -22 21 -14 21 2 0 10 -8 17 -17z m-131 -53 c0 -5 -5 -10 -11 -10 -5 0 -7 5 -4 10 3 6 8 10 11 10 2 0 4 -4 4 -10z" transform="translate(0.000000,71.000000) scale(0.100000,-0.100000)"/></g></svg>