<?xml version="1.0" encoding="UTF-8" standalone="no"?>
<svg
   xmlns:dc="http://purl.org/dc/elements/1.1/"
   xmlns:cc="http://creativecommons.org/ns#"
   xmlns:rdf="http://www.w3.org/1999/02/22-rdf-syntax-ns#"
   xmlns:svg="http://www.w3.org/2000/svg"
   xmlns="http://www.w3.org/2000/svg"
   xmlns:sodipodi="http://sodipodi.sourceforge.net/DTD/sodipodi-0.dtd"
   xmlns:inkscape="http://www.inkscape.org/namespaces/inkscape"
   viewBox="0 0 95.385112 65.147664"
   version="1.1"
   id="svg8190"
   sodipodi:docname="oicr.svg"
   inkscape:version="0.92.3 (2405546, 2018-03-11)"
   width="95.385109"
   height="65.147667">
  <metadata
     id="metadata8194">
    <rdf:RDF>
      <cc:Work
         rdf:about="">
        <dc:format>image/svg+xml</dc:format>
        <dc:type
           rdf:resource="http://purl.org/dc/dcmitype/StillImage" />
        <dc:title>Artwork</dc:title>
      </cc:Work>
    </rdf:RDF>
  </metadata>
  <sodipodi:namedview
     pagecolor="#ffffff"
     bordercolor="#666666"
     borderopacity="1"
     objecttolerance="10"
     gridtolerance="10"
     guidetolerance="10"
     inkscape:pageopacity="0"
     inkscape:pageshadow="2"
     inkscape:window-width="1855"
     inkscape:window-height="1176"
     id="namedview8192"
     showgrid="false"
     inkscape:zoom="3.0088555"
     inkscape:cx="84.322086"
     inkscape:cy="14.325773"
     inkscape:window-x="65"
     inkscape:window-y="24"
     inkscape:window-maximized="1"
     inkscape:current-layer="svg8190" />
  <defs
     id="defs8014">
    <style
       id="style8012">.cls-1{fill:#c2c1c0;}.cls-2{fill:#010101;}.cls-3{fill:#65bc46;}.cls-4{fill:#231f20;}</style>
    <clipPath
       clipPathUnits="userSpaceOnUse"
       id="clipPath8741">
      <rect
         style="fill:#c8bf56;fill-opacity:0.43902438;stroke:none;stroke-width:0.91000003;stroke-miterlimit:4;stroke-dasharray:none;stroke-opacity:0.96341463"
         id="rect8743"
         width="96.714516"
         height="65.805756"
         x="-1.3294091"
         y="-0.65810108" />
    </clipPath>
  </defs>
  <title
     id="title8016">Artwork</title>
  <g
     id="Layer_2"
     data-name="Layer 2"
     clip-path="url(#clipPath8741)"
     transform="translate(4.5010173e-6,1.1408888e-5)">
    <g
       id="Artwork">
      <rect
         class="cls-1"
         x="105.33"
         y="24.870001"
         width="1"
         height="38.919998"
         id="rect8018"
         style="fill:#c2c1c0" />
      <path
         class="cls-2"
         d="M 128.44,31.48 H 134 V 39 a 16.69,16.69 0 0 1 -2.6,0.63 20.15,20.15 0 0 1 -2.69,0.18 6.72,6.72 0 0 1 -5.25,-2 8.11,8.11 0 0 1 -1.85,-5.69 7.58,7.58 0 0 1 2.08,-5.67 7.83,7.83 0 0 1 5.73,-2 11.17,11.17 0 0 1 4.45,0.9 l -0.86,2 a 8.71,8.71 0 0 0 -3.65,-0.84 4.91,4.91 0 0 0 -3.83,1.49 5.79,5.79 0 0 0 -1.39,4.12 6.11,6.11 0 0 0 1.26,4.18 4.54,4.54 0 0 0 3.6,1.46 12.15,12.15 0 0 0 2.54,-0.3 v -3.88 h -3.11 z"
         id="path8020"
         inkscape:connector-curvature="0"
         style="fill:#010101" />
      <path
         class="cls-2"
         d="m 142.77,39.82 a 5.47,5.47 0 0 1 -4.13,-1.58 5.82,5.82 0 0 1 -1.49,-4.24 6.45,6.45 0 0 1 1.38,-4.37 4.77,4.77 0 0 1 3.8,-1.59 4.69,4.69 0 0 1 3.56,1.4 5.21,5.21 0 0 1 1.3,3.75 v 1.3 h -7.56 a 3.74,3.74 0 0 0 0.89,2.54 3.12,3.12 0 0 0 2.37,0.89 9.06,9.06 0 0 0 1.87,-0.19 10.19,10.19 0 0 0 1.86,-0.63 v 2 a 7.59,7.59 0 0 1 -1.78,0.59 11.09,11.09 0 0 1 -2.07,0.13 z m -0.44,-9.93 a 2.4,2.4 0 0 0 -1.84,0.73 3.44,3.44 0 0 0 -0.83,2.12 h 5.15 a 3.15,3.15 0 0 0 -0.68,-2.13 2.32,2.32 0 0 0 -1.8,-0.72 z"
         id="path8022"
         inkscape:connector-curvature="0"
         style="fill:#010101" />
      <path
         class="cls-2"
         d="M 160.42,39.61 H 158 v -7 a 3.08,3.08 0 0 0 -0.53,-2 2,2 0 0 0 -1.68,-0.65 2.68,2.68 0 0 0 -2.24,0.9 4.94,4.94 0 0 0 -0.71,3 v 5.65 h -2.41 V 28.24 h 1.89 l 0.34,1.49 h 0.12 a 3.29,3.29 0 0 1 1.46,-1.25 4.84,4.84 0 0 1 2.09,-0.44 q 4.08,0 4.08,4.15 z"
         id="path8024"
         inkscape:connector-curvature="0"
         style="fill:#010101" />
      <path
         class="cls-2"
         d="m 174.36,33.92 a 6.2,6.2 0 0 1 -1.47,4.32 5.12,5.12 0 0 1 -4,1.56 5.4,5.4 0 0 1 -2.81,-0.72 4.68,4.68 0 0 1 -1.88,-2.08 6.87,6.87 0 0 1 -0.66,-3.12 6.09,6.09 0 0 1 1.46,-4.29 5.12,5.12 0 0 1 4,-1.59 5,5 0 0 1 3.9,1.58 6.16,6.16 0 0 1 1.46,4.34 z m -8.25,0 c 0,2.62 1,3.93 2.9,3.93 1.9,0 2.89,-1.31 2.88,-3.93 C 171.88,31.3 170.92,30 169,30 a 2.48,2.48 0 0 0 -2.2,1 5.12,5.12 0 0 0 -0.69,2.92 z"
         id="path8026"
         inkscape:connector-curvature="0"
         style="fill:#010101" />
      <path
         class="cls-2"
         d="m 187.21,39.61 h -2.42 v -7 a 3.17,3.17 0 0 0 -0.49,-1.94 1.82,1.82 0 0 0 -1.54,-0.64 2.32,2.32 0 0 0 -2,0.91 5.31,5.31 0 0 0 -0.65,3 v 5.65 H 177.7 V 28.24 h 1.89 l 0.34,1.49 h 0.12 a 3.12,3.12 0 0 1 1.37,-1.25 4.46,4.46 0 0 1 2,-0.44 c 1.74,0 2.89,0.59 3.47,1.78 h 0.16 a 3.45,3.45 0 0 1 1.42,-1.31 4.45,4.45 0 0 1 2.09,-0.47 3.81,3.81 0 0 1 3,1 4.52,4.52 0 0 1 0.93,3.13 v 7.39 h -2.41 v -7 A 3.16,3.16 0 0 0 191.58,30.62 1.82,1.82 0 0 0 190,30 a 2.38,2.38 0 0 0 -2.06,0.88 4.48,4.48 0 0 0 -0.65,2.69 z"
         id="path8028"
         inkscape:connector-curvature="0"
         style="fill:#010101" />
      <path
         class="cls-2"
         d="m 198.11,25.24 a 1.31,1.31 0 0 1 0.35,-1 1.35,1.35 0 0 1 1,-0.35 1.33,1.33 0 0 1 1,0.35 1.35,1.35 0 0 1 0.35,1 1.31,1.31 0 0 1 -0.35,1 1.37,1.37 0 0 1 -1,0.35 1.35,1.35 0 0 1 -1,-0.35 1.31,1.31 0 0 1 -0.35,-1 z m 2.55,14.35 h -2.41 V 28.24 h 2.41 z"
         id="path8030"
         inkscape:connector-curvature="0"
         style="fill:#010101" />
      <path
         class="cls-2"
         d="M 209.21,39.82 A 5,5 0 0 1 205.3,38.32 6.22,6.22 0 0 1 204,34 a 6.28,6.28 0 0 1 1.4,-4.4 5.16,5.16 0 0 1 4,-1.54 7.52,7.52 0 0 1 3.23,0.67 l -0.7,1.93 a 7.09,7.09 0 0 0 -2.52,-0.59 q -2.94,0 -2.94,3.91 a 4.62,4.62 0 0 0 0.73,2.87 2.54,2.54 0 0 0 2.15,1 6.2,6.2 0 0 0 3,-0.8 v 2.1 a 5,5 0 0 1 -1.38,0.54 8.3,8.3 0 0 1 -1.76,0.13 z"
         id="path8032"
         inkscape:connector-curvature="0"
         style="fill:#010101" />
      <path
         class="cls-2"
         d="m 223.18,36.38 a 3,3 0 0 1 -1.18,2.55 5.76,5.76 0 0 1 -3.47,0.89 8.26,8.26 0 0 1 -3.64,-0.69 v -2.08 a 9.07,9.07 0 0 0 3.72,0.92 c 1.48,0 2.23,-0.45 2.23,-1.34 a 1.06,1.06 0 0 0 -0.25,-0.72 3.12,3.12 0 0 0 -0.81,-0.59 13.68,13.68 0 0 0 -1.57,-0.7 7.17,7.17 0 0 1 -2.65,-1.52 2.81,2.81 0 0 1 -0.69,-2 2.59,2.59 0 0 1 1.13,-2.26 5.59,5.59 0 0 1 3.19,-0.8 9,9 0 0 1 3.78,0.81 l -0.78,1.81 A 8.26,8.26 0 0 0 219.1,29.9 c -1.28,0 -1.91,0.36 -1.91,1.09 a 1.08,1.08 0 0 0 0.5,0.9 10.68,10.68 0 0 0 2.17,1 10.1,10.1 0 0 1 2,1 3.1,3.1 0 0 1 0.94,1 3,3 0 0 1 0.38,1.49 z"
         id="path8034"
         inkscape:connector-curvature="0"
         style="fill:#010101" />
      <path
         class="cls-2"
         d="M 239.38,39.61 238.89,38 h -0.08 a 4.67,4.67 0 0 1 -1.65,1.41 5.18,5.18 0 0 1 -2.13,0.37 3.6,3.6 0 0 1 -2.61,-0.9 3.36,3.36 0 0 1 -0.94,-2.55 3,3 0 0 1 1.3,-2.65 7.47,7.47 0 0 1 4,-1 l 2,-0.06 v -0.6 a 2.34,2.34 0 0 0 -0.51,-1.63 2.08,2.08 0 0 0 -1.57,-0.54 5.55,5.55 0 0 0 -1.67,0.26 13.64,13.64 0 0 0 -1.54,0.6 L 232.71,29 a 8.26,8.26 0 0 1 2,-0.73 9,9 0 0 1 2.07,-0.25 4.93,4.93 0 0 1 3.27,0.94 3.69,3.69 0 0 1 1.1,3 V 39.6 Z M 235.79,38 a 3,3 0 0 0 2.1,-0.73 2.68,2.68 0 0 0 0.79,-2.06 v -0.94 l -1.46,0.06 a 5,5 0 0 0 -2.48,0.57 1.71,1.71 0 0 0 -0.77,1.55 1.51,1.51 0 0 0 0.45,1.17 2,2 0 0 0 1.37,0.38 z"
         id="path8036"
         inkscape:connector-curvature="0"
         style="fill:#010101" />
      <path
         class="cls-2"
         d="m 255,39.61 h -2.42 v -7 a 3.08,3.08 0 0 0 -0.53,-2 2,2 0 0 0 -1.68,-0.65 2.68,2.68 0 0 0 -2.24,0.9 4.94,4.94 0 0 0 -0.71,3 v 5.65 H 245 V 28.24 h 1.9 l 0.34,1.49 h 0.12 a 3.29,3.29 0 0 1 1.46,-1.25 4.84,4.84 0 0 1 2.08,-0.48 q 4.1,0 4.1,4.19 z"
         id="path8038"
         inkscape:connector-curvature="0"
         style="fill:#010101" />
      <path
         class="cls-2"
         d="m 262.67,39.82 a 4,4 0 0 1 -3.31,-1.58 6.85,6.85 0 0 1 -1.19,-4.32 6.91,6.91 0 0 1 1.21,-4.34 4,4 0 0 1 3.34,-1.58 3.91,3.91 0 0 1 3.4,1.65 h 0.12 a 13.84,13.84 0 0 1 -0.17,-1.93 v -4.06 h 2.42 v 16 h -1.89 l -0.42,-1.49 h -0.11 a 3.86,3.86 0 0 1 -3.4,1.65 z m 0.65,-2 a 2.63,2.63 0 0 0 2.16,-0.84 4.4,4.4 0 0 0 0.7,-2.71 V 34 a 5.08,5.08 0 0 0 -0.7,-3 2.59,2.59 0 0 0 -2.18,-0.9 2.22,2.22 0 0 0 -2,1 5.29,5.29 0 0 0 -0.69,2.94 5.09,5.09 0 0 0 0.67,2.88 2.22,2.22 0 0 0 2.04,0.95 z"
         id="path8040"
         inkscape:connector-curvature="0"
         style="fill:#010101" />
      <path
         class="cls-2"
         d="m 122.31,48.62 h 4.45 a 8.37,8.37 0 0 1 4.48,0.9 3.18,3.18 0 0 1 1.38,2.85 3.49,3.49 0 0 1 -0.68,2.18 3,3 0 0 1 -1.95,1.1 v 0.1 a 3.87,3.87 0 0 1 2.32,1.17 3.6,3.6 0 0 1 0.74,2.37 3.87,3.87 0 0 1 -1.41,3.16 6.11,6.11 0 0 1 -3.92,1.14 h -5.41 z m 2.45,6.19 h 2.36 a 4,4 0 0 0 2.25,-0.49 1.89,1.89 0 0 0 0.71,-1.66 1.67,1.67 0 0 0 -0.76,-1.53 4.77,4.77 0 0 0 -2.43,-0.47 h -2.12 z m 0,2 v 4.75 h 2.6 a 3.81,3.81 0 0 0 2.32,-0.59 2.18,2.18 0 0 0 0.78,-1.86 2,2 0 0 0 -0.8,-1.73 4.22,4.22 0 0 0 -2.43,-0.56 z"
         id="path8042"
         inkscape:connector-curvature="0"
         style="fill:#010101" />
      <path
         class="cls-2"
         d="m 136.29,49.24 a 1.31,1.31 0 0 1 0.35,-1 1.35,1.35 0 0 1 1,-0.35 1.33,1.33 0 0 1 1,0.35 1.35,1.35 0 0 1 0.35,1 1.31,1.31 0 0 1 -0.35,1 1.37,1.37 0 0 1 -1,0.35 1.35,1.35 0 0 1 -1,-0.35 1.31,1.31 0 0 1 -0.35,-1 z m 2.6,14.37 h -2.41 V 52.24 h 2.41 z"
         id="path8044"
         inkscape:connector-curvature="0"
         style="fill:#010101" />
      <path
         class="cls-2"
         d="m 152.89,57.92 a 6.24,6.24 0 0 1 -1.44,4.32 5.12,5.12 0 0 1 -4,1.56 5.4,5.4 0 0 1 -2.81,-0.72 4.68,4.68 0 0 1 -1.88,-2.08 6.87,6.87 0 0 1 -0.66,-3.12 6.09,6.09 0 0 1 1.42,-4.31 5.12,5.12 0 0 1 4,-1.55 5,5 0 0 1 3.9,1.58 6.13,6.13 0 0 1 1.47,4.32 z m -8.25,0 c 0,2.62 1,3.93 2.9,3.93 1.9,0 2.89,-1.31 2.87,-3.93 -0.02,-2.62 -1,-3.89 -2.89,-3.89 a 2.48,2.48 0 0 0 -2.2,1 5.05,5.05 0 0 0 -0.7,2.89 z"
         id="path8046"
         inkscape:connector-curvature="0"
         style="fill:#010101" />
      <path
         class="cls-2"
         d="m 156,49.24 a 1.31,1.31 0 0 1 0.35,-1 1.35,1.35 0 0 1 1,-0.35 1.33,1.33 0 0 1 1,0.35 1.35,1.35 0 0 1 0.35,1 1.31,1.31 0 0 1 -0.35,1 1.37,1.37 0 0 1 -1,0.35 1.35,1.35 0 0 1 -1,-0.35 1.31,1.31 0 0 1 -0.35,-1 z m 2.55,14.35 h -2.41 V 52.24 h 2.41 z"
         id="path8048"
         inkscape:connector-curvature="0"
         style="fill:#010101" />
      <path
         class="cls-2"
         d="m 172.53,63.61 h -2.42 v -7 a 3.08,3.08 0 0 0 -0.53,-2 2,2 0 0 0 -1.68,-0.61 2.68,2.68 0 0 0 -2.24,0.9 4.94,4.94 0 0 0 -0.71,3 v 5.65 h -2.41 V 52.24 h 1.89 l 0.34,1.49 h 0.12 a 3.29,3.29 0 0 1 1.46,-1.25 4.84,4.84 0 0 1 2.09,-0.44 q 4.08,0 4.08,4.15 z"
         id="path8050"
         inkscape:connector-curvature="0"
         style="fill:#010101" />
      <path
         class="cls-2"
         d="m 182.1,54.09 h -2.77 v 9.52 h -2.44 V 54.09 H 175 V 53 l 1.87,-0.73 V 51.5 a 4.09,4.09 0 0 1 0.94,-3 3.81,3.81 0 0 1 2.88,-1 7.63,7.63 0 0 1 2.5,0.42 l -0.64,1.83 a 5.47,5.47 0 0 0 -1.7,-0.29 1.36,1.36 0 0 0 -1.19,0.51 2.54,2.54 0 0 0 -0.37,1.52 v 0.75 h 2.77 z"
         id="path8052"
         inkscape:connector-curvature="0"
         style="fill:#010101" />
      <path
         class="cls-2"
         d="m 194.61,57.92 a 6.18,6.18 0 0 1 -1.43,4.32 5.12,5.12 0 0 1 -4,1.56 5.4,5.4 0 0 1 -2.81,-0.72 4.68,4.68 0 0 1 -1.88,-2.08 6.87,6.87 0 0 1 -0.66,-3.12 6.09,6.09 0 0 1 1.42,-4.31 5.12,5.12 0 0 1 4,-1.55 5,5 0 0 1 3.9,1.58 6.12,6.12 0 0 1 1.46,4.32 z m -8.25,0 c 0,2.62 1,3.93 2.9,3.93 1.9,0 2.89,-1.31 2.87,-3.93 -0.02,-2.62 -1,-3.89 -2.89,-3.89 a 2.48,2.48 0 0 0 -2.2,1 5.12,5.12 0 0 0 -0.69,2.89 z"
         id="path8054"
         inkscape:connector-curvature="0"
         style="fill:#010101" />
      <path
         class="cls-2"
         d="m 203.65,52.06 a 5.41,5.41 0 0 1 1.2,0.1 l -0.24,2.25 a 4.81,4.81 0 0 0 -1.07,-0.12 3.11,3.11 0 0 0 -2.34,0.94 3.37,3.37 0 0 0 -0.9,2.45 v 5.93 h -2.41 V 52.24 h 1.89 l 0.32,2 h 0.12 a 4.45,4.45 0 0 1 1.47,-1.61 3.48,3.48 0 0 1 1.96,-0.57 z"
         id="path8056"
         inkscape:connector-curvature="0"
         style="fill:#010101" />
      <path
         class="cls-2"
         d="m 217,63.61 h -2.42 v -7 a 3.17,3.17 0 0 0 -0.49,-1.94 1.82,1.82 0 0 0 -1.54,-0.64 2.32,2.32 0 0 0 -2,0.91 5.31,5.31 0 0 0 -0.65,3 v 5.65 h -2.41 V 52.24 h 1.89 l 0.34,1.49 h 0.12 a 3.12,3.12 0 0 1 1.37,-1.25 4.46,4.46 0 0 1 2,-0.44 c 1.74,0 2.89,0.59 3.47,1.78 h 0.16 a 3.45,3.45 0 0 1 1.42,-1.31 4.45,4.45 0 0 1 2.09,-0.47 3.81,3.81 0 0 1 3,1 4.55,4.55 0 0 1 0.8,3.2 v 7.39 h -2.41 v -7 a 3.16,3.16 0 0 0 -0.5,-1.94 1.82,1.82 0 0 0 -1.54,-0.64 2.38,2.38 0 0 0 -2.06,0.88 4.48,4.48 0 0 0 -0.65,2.69 z"
         id="path8058"
         inkscape:connector-curvature="0"
         style="fill:#010101" />
      <path
         class="cls-2"
         d="M 235.18,63.61 234.7,62 h -0.08 a 4.67,4.67 0 0 1 -1.62,1.44 5.18,5.18 0 0 1 -2.13,0.37 3.6,3.6 0 0 1 -2.61,-0.9 3.36,3.36 0 0 1 -0.94,-2.55 3,3 0 0 1 1.3,-2.65 7.47,7.47 0 0 1 4,-1 l 2,-0.06 v -0.6 a 2.34,2.34 0 0 0 -0.51,-1.63 2.08,2.08 0 0 0 -1.57,-0.54 5.55,5.55 0 0 0 -1.67,0.26 13.64,13.64 0 0 0 -1.54,0.6 L 228.52,53 a 8.26,8.26 0 0 1 2,-0.73 9,9 0 0 1 2.07,-0.25 4.93,4.93 0 0 1 3.27,0.94 3.69,3.69 0 0 1 1.1,3 V 63.6 Z M 231.59,62 a 3,3 0 0 0 2.11,-0.73 2.68,2.68 0 0 0 0.79,-2.06 V 58.27 L 233,58.3 a 5,5 0 0 0 -2.48,0.57 1.71,1.71 0 0 0 -0.77,1.55 1.51,1.51 0 0 0 0.45,1.17 1.94,1.94 0 0 0 1.36,0.38 z"
         id="path8060"
         inkscape:connector-curvature="0"
         style="fill:#010101" />
      <path
         class="cls-2"
         d="m 245,61.87 a 5.84,5.84 0 0 0 1.76,-0.28 v 1.81 a 5,5 0 0 1 -1,0.29 7.17,7.17 0 0 1 -1.31,0.12 q -3.42,0 -3.42,-3.61 v -6.11 h -1.55 V 53 l 1.66,-0.88 0.82,-2.4 h 1.49 v 2.49 h 3.23 v 1.83 h -3.23 v 6.07 a 1.7,1.7 0 0 0 0.44,1.29 1.62,1.62 0 0 0 1.11,0.47 z"
         id="path8062"
         inkscape:connector-curvature="0"
         style="fill:#010101" />
      <path
         class="cls-2"
         d="m 249.42,49.24 a 1.31,1.31 0 0 1 0.35,-1 1.35,1.35 0 0 1 1,-0.35 1.33,1.33 0 0 1 1,0.35 1.35,1.35 0 0 1 0.35,1 1.31,1.31 0 0 1 -0.35,1 1.37,1.37 0 0 1 -1,0.35 1.35,1.35 0 0 1 -1,-0.35 1.31,1.31 0 0 1 -0.35,-1 z M 252,63.59 h -2.41 V 52.24 H 252 Z"
         id="path8064"
         inkscape:connector-curvature="0"
         style="fill:#010101" />
      <path
         class="cls-2"
         d="m 260.52,63.82 a 5,5 0 0 1 -3.91,-1.5 6.22,6.22 0 0 1 -1.34,-4.32 6.28,6.28 0 0 1 1.4,-4.4 5.16,5.16 0 0 1 4,-1.54 7.52,7.52 0 0 1 3.23,0.67 l -0.73,1.94 a 7.09,7.09 0 0 0 -2.52,-0.59 q -2.94,0 -2.94,3.91 a 4.62,4.62 0 0 0 0.73,2.87 2.54,2.54 0 0 0 2.15,1 6.2,6.2 0 0 0 3,-0.8 v 2.1 a 5,5 0 0 1 -1.38,0.54 8.73,8.73 0 0 1 -1.69,0.12 z"
         id="path8066"
         inkscape:connector-curvature="0"
         style="fill:#010101" />
      <path
         class="cls-2"
         d="m 274.49,60.38 a 3,3 0 0 1 -1.21,2.55 5.76,5.76 0 0 1 -3.47,0.89 8.26,8.26 0 0 1 -3.64,-0.69 v -2.08 a 9.07,9.07 0 0 0 3.72,0.92 c 1.48,0 2.23,-0.45 2.23,-1.34 a 1.06,1.06 0 0 0 -0.25,-0.72 3.12,3.12 0 0 0 -0.81,-0.59 13.68,13.68 0 0 0 -1.57,-0.7 7.25,7.25 0 0 1 -2.6,-1.52 2.81,2.81 0 0 1 -0.69,-2 2.59,2.59 0 0 1 1.17,-2.26 5.59,5.59 0 0 1 3.19,-0.8 9,9 0 0 1 3.78,0.81 l -0.78,1.81 a 8.26,8.26 0 0 0 -3.09,-0.76 c -1.28,0 -1.91,0.36 -1.91,1.09 a 1.08,1.08 0 0 0 0.5,0.9 10.68,10.68 0 0 0 2.17,1 10.1,10.1 0 0 1 2,1 3.1,3.1 0 0 1 0.94,1 3.06,3.06 0 0 1 0.32,1.49 z"
         id="path8068"
         inkscape:connector-curvature="0"
         style="fill:#010101" />
      <path
         class="cls-3"
         d="M 38.48,7.13 V 0 h -0.11 a 37.6,37.6 0 0 0 -5,0.33 l 0.92,7.07 a 31.26,31.26 0 0 1 4.13,-0.27 z"
         id="path8070"
         inkscape:connector-curvature="0"
         style="fill:#65bc46" />
      <path
         class="cls-3"
         d="m 14.63,35.21 7,0.91 A 17.16,17.16 0 0 1 22,34 18.14,18.14 0 0 1 22.7,31.92 l -6.48,-2.69 -6.64,-2.8 a 31.67,31.67 0 0 0 -1.3,3.85 l -7,-1.86 a 37.9,37.9 0 0 0 -1,4.92 l 7.16,0.94 z"
         id="path8072"
         inkscape:connector-curvature="0"
         style="fill:#65bc46" />
      <path
         class="cls-3"
         d="M 48.41,1.33 46.56,8.2 a 31.91,31.91 0 0 1 3.86,1.32 L 53.16,3 A 36.42,36.42 0 0 0 48.41,1.33 Z"
         id="path8074"
         inkscape:connector-curvature="0"
         style="fill:#65bc46" />
      <path
         class="cls-3"
         d="m 23.8,57.34 a 24.44,24.44 0 0 1 -2.36,-2.07 l -5.08,5.07 A 30,30 0 0 0 19.42,63 Z"
         id="path8076"
         inkscape:connector-curvature="0"
         style="fill:#65bc46" />
      <path
         class="cls-3"
         d="M 15.25,44.55 22,42.75 a 16.85,16.85 0 0 1 -0.43,-2.16 16.55,16.55 0 0 1 -0.16,-2.25 h -7 a 23.59,23.59 0 0 0 0.22,3.15 L 7.5,42.41 A 30.35,30.35 0 0 1 7.23,38.34 H 0 a 38.93,38.93 0 0 0 0.32,5 39.63,39.63 0 0 0 1,4.92 l 7,-1.86 z"
         id="path8078"
         inkscape:connector-curvature="0"
         style="fill:#65bc46" />
      <path
         class="cls-3"
         d="m 24.94,48.63 a 17.85,17.85 0 0 1 -1.23,-1.84 17.14,17.14 0 0 1 -1,-2 l -6.49,2.69 a 24.17,24.17 0 0 0 1.39,2.79 l -6.23,3.6 -6.26,3.66 a 37.86,37.86 0 0 0 2.79,4.17 39.52,39.52 0 0 0 3.3,3.78 l 5.15,-5.14 a 31.32,31.32 0 0 1 -2.69,-3.06 l 5.71,-4.37 z"
         id="path8080"
         inkscape:connector-curvature="0"
         style="fill:#65bc46" />
      <path
         class="cls-3"
         d="m 42.85,21.92 a 17.14,17.14 0 0 1 2.09,0.71 l 2.7,-6.48 a 24,24 0 0 0 -3,-1 z"
         id="path8082"
         inkscape:connector-curvature="0"
         style="fill:#65bc46" />
      <path
         class="cls-3"
         d="M 35.22,14.53 34.29,7.4 a 31.11,31.11 0 0 0 -4,0.8 L 28.44,1.3 a 36.85,36.85 0 0 0 -4.75,1.61 l 2.74,6.61 2.75,6.64 a 22.16,22.16 0 0 0 -2.8,1.4 l 3.51,6.07 a 16.62,16.62 0 0 1 2,-1 16.05,16.05 0 0 1 2.11,-0.7 17,17 0 0 1 2.17,-0.44 17.27,17.27 0 0 1 2.29,-0.16 h 0.07 v -7 h -0.07 a 24.11,24.11 0 0 0 -3.24,0.2 z"
         id="path8084"
         inkscape:connector-curvature="0"
         style="fill:#65bc46" />
      <path
         class="cls-3"
         d="m 38.49,14.31 a 24.61,24.61 0 0 1 3.11,0.22 l 1,-7.13 A 30.61,30.61 0 0 0 38.52,7.13 Z"
         id="path8086"
         inkscape:connector-curvature="0"
         style="fill:#65bc46" />
      <path
         class="cls-3"
         d="M 19.38,13.61 15,7.93 a 38.22,38.22 0 0 0 -3.77,3.3 l 5.07,5.08 5.08,5.08 a 23.59,23.59 0 0 1 5,-3.83 l -3.61,-6.23 a 32.38,32.38 0 0 0 -3.39,2.28 z"
         id="path8088"
         inkscape:connector-curvature="0"
         style="fill:#65bc46" />
      <path
         class="cls-3"
         d="m 24.9,28 a 17.93,17.93 0 0 1 1.46,-1.68 l -5,-5 a 24.68,24.68 0 0 0 -2.07,2.38 z"
         id="path8090"
         inkscape:connector-curvature="0"
         style="fill:#65bc46" />
      <path
         class="cls-3"
         d="m 7.94,15 a 38.91,38.91 0 0 0 -2.8,4.17 l 6.23,3.61 6.23,3.6 a 24.08,24.08 0 0 1 1.73,-2.61 l -5.69,-4.38 z"
         id="path8092"
         inkscape:connector-curvature="0"
         style="fill:#65bc46" />
      <path
         class="cls-3"
         d="m 57.65,5.19 -3.58,6.15 -3.62,6.21 a 24.46,24.46 0 0 1 2.62,1.76 L 57.46,13.62 61.81,8 A 37.81,37.81 0 0 0 57.65,5.19 Z"
         id="path8094"
         inkscape:connector-curvature="0"
         style="fill:#65bc46" />
      <path
         class="cls-4"
         d="M 54.07,11.34 A 31.83,31.83 0 0 0 50.42,9.52 l -2.78,6.63 a 25.36,25.36 0 0 1 2.81,1.4 z"
         id="path8096"
         inkscape:connector-curvature="0"
         style="fill:#231f20" />
      <path
         class="cls-4"
         d="m 41.6,14.53 -0.92,7 a 15.72,15.72 0 0 1 2.17,0.43 l 1.83,-6.78 A 24,24 0 0 0 41.6,14.53 Z"
         id="path8098"
         inkscape:connector-curvature="0"
         style="fill:#231f20" />
      <path
         class="cls-4"
         d="M 38.42,7.13 A 31.26,31.26 0 0 0 34.29,7.4 l 0.93,7.13 a 24.11,24.11 0 0 1 3.2,-0.22 h 0.07 V 7.13 Z"
         id="path8100"
         inkscape:connector-curvature="0"
         style="fill:#231f20" />
      <path
         class="cls-4"
         d="m 9.58,26.43 6.64,2.76 a 23.6,23.6 0 0 1 1.38,-2.81 l -6.23,-3.6 a 31.64,31.64 0 0 0 -1.79,3.65 z"
         id="path8102"
         inkscape:connector-curvature="0"
         style="fill:#231f20" />
      <path
         class="cls-4"
         d="m 16.36,60.34 5.08,-5.07 a 23.05,23.05 0 0 1 -2.06,-2.36 l -5.71,4.37 a 31.32,31.32 0 0 0 2.69,3.06 z"
         id="path8104"
         inkscape:connector-curvature="0"
         style="fill:#231f20" />
      <path
         class="cls-4"
         d="m 17.6,26.38 6.07,3.52 A 16.62,16.62 0 0 1 24.9,28 l -5.57,-4.27 a 24.08,24.08 0 0 0 -1.73,2.65 z"
         id="path8106"
         inkscape:connector-curvature="0"
         style="fill:#231f20" />
      <path
         class="cls-4"
         d="m 14.42,38.31 v 0 h 7 v 0 a 15.9,15.9 0 0 1 0.15,-2.19 l -7,-0.91 a 24.45,24.45 0 0 0 -0.15,3.1 z"
         id="path8108"
         inkscape:connector-curvature="0"
         style="fill:#231f20" />
      <path
         class="cls-4"
         d="m 9.61,50.25 6.64,-2.74 a 22.88,22.88 0 0 1 -1,-3 l -6.95,1.9 a 29.94,29.94 0 0 0 1.31,3.84 z"
         id="path8110"
         inkscape:connector-curvature="0"
         style="fill:#231f20" />
      <path
         class="cls-4"
         d="M 23.76,19.31 28,24.88 a 16.66,16.66 0 0 1 1.85,-1.25 l -3.51,-6.07 a 24.37,24.37 0 0 0 -2.58,1.75 z"
         id="path8112"
         inkscape:connector-curvature="0"
         style="fill:#231f20" />
      <path
         class="cls-4"
         d="m 32.25,55.71 a 2.45,2.45 0 0 1 -1,-0.19 A 2.18,2.18 0 0 1 30.5,55 2.43,2.43 0 0 1 30,54.22 a 2.58,2.58 0 0 1 -0.18,-1 2.61,2.61 0 0 1 0.18,-1 2.43,2.43 0 0 1 0.5,-0.78 2.33,2.33 0 0 1 0.77,-0.52 2.79,2.79 0 0 1 2,0 2.3,2.3 0 0 1 1.27,1.3 2.61,2.61 0 0 1 0.18,1 2.58,2.58 0 0 1 -0.18,1 A 2.43,2.43 0 0 1 34,55 a 2.28,2.28 0 0 1 -0.77,0.52 2.46,2.46 0 0 1 -0.98,0.19 z m 0,-0.59 A 1.73,1.73 0 0 0 33,55 a 1.59,1.59 0 0 0 0.55,-0.4 1.71,1.71 0 0 0 0.36,-0.59 2.09,2.09 0 0 0 0,-1.45 1.62,1.62 0 0 0 -0.36,-0.59 1.59,1.59 0 0 0 -0.55,-0.4 1.73,1.73 0 0 0 -0.73,-0.15 1.66,1.66 0 0 0 -0.72,0.15 1.74,1.74 0 0 0 -0.56,0.4 2,2 0 0 0 -0.36,0.59 2.25,2.25 0 0 0 0,1.45 2.08,2.08 0 0 0 0.36,0.59 1.74,1.74 0 0 0 0.56,0.4 1.66,1.66 0 0 0 0.7,0.12 z"
         id="path8114"
         inkscape:connector-curvature="0"
         style="fill:#231f20" />
      <path
         class="cls-4"
         d="m 35.49,52.46 h 0.59 v 0.48 0 a 0.84,0.84 0 0 1 0.39,-0.4 1.22,1.22 0 0 1 0.64,-0.16 1.25,1.25 0 0 1 0.43,0.07 1,1 0 0 1 0.36,0.22 0.9,0.9 0 0 1 0.25,0.37 1.45,1.45 0 0 1 0.09,0.54 v 2 h -0.59 v -1.84 a 1,1 0 0 0 -0.06,-0.37 0.63,0.63 0 0 0 -0.16,-0.25 0.49,0.49 0 0 0 -0.23,-0.14 0.75,0.75 0 0 0 -0.26,0 1,1 0 0 0 -0.35,0.06 0.8,0.8 0 0 0 -0.27,0.18 0.89,0.89 0 0 0 -0.19,0.33 1.61,1.61 0 0 0 -0.07,0.47 v 1.61 h -0.59 z"
         id="path8116"
         inkscape:connector-curvature="0"
         style="fill:#231f20" />
      <path
         class="cls-4"
         d="M 40.86,53 H 40 v 1.4 a 2.35,2.35 0 0 0 0,0.26 0.59,0.59 0 0 0 0,0.23 0.34,0.34 0 0 0 0.13,0.16 0.4,0.4 0 0 0 0.26,0.07 h 0.22 a 0.7,0.7 0 0 0 0.2,-0.08 v 0.55 a 0.86,0.86 0 0 1 -0.27,0.08 h -0.26 a 1.23,1.23 0 0 1 -0.53,-0.09 0.69,0.69 0 0 1 -0.28,-0.25 1,1 0 0 1 -0.11,-0.34 c 0,-0.13 0,-0.25 0,-0.38 V 53 h -0.69 v -0.52 h 0.69 V 51.6 H 40 v 0.88 h 0.85 z"
         id="path8118"
         inkscape:connector-curvature="0"
         style="fill:#231f20" />
      <path
         class="cls-4"
         d="m 41.62,52.84 a 1.62,1.62 0 0 1 0.58,-0.34 1.92,1.92 0 0 1 0.66,-0.12 1.8,1.8 0 0 1 0.6,0.09 1,1 0 0 1 0.4,0.23 0.93,0.93 0 0 1 0.24,0.33 1.09,1.09 0 0 1 0.07,0.4 V 55 a 3,3 0 0 0 0,0.31 2.11,2.11 0 0 0 0,0.26 h -0.53 c 0,-0.16 0,-0.32 0,-0.47 v 0 a 1.27,1.27 0 0 1 -0.47,0.43 1.54,1.54 0 0 1 -0.63,0.12 1.52,1.52 0 0 1 -0.42,-0.06 1,1 0 0 1 -0.34,-0.18 0.85,0.85 0 0 1 -0.24,-0.29 1,1 0 0 1 -0.08,-0.41 0.92,0.92 0 0 1 0.13,-0.51 1.19,1.19 0 0 1 0.37,-0.33 1.55,1.55 0 0 1 0.55,-0.18 3.55,3.55 0 0 1 0.67,-0.06 h 0.44 V 53.5 a 0.69,0.69 0 0 0 0,-0.24 0.74,0.74 0 0 0 -0.14,-0.22 0.76,0.76 0 0 0 -0.23,-0.15 1,1 0 0 0 -0.33,0 1.39,1.39 0 0 0 -0.3,0 1.23,1.23 0 0 0 -0.23,0.08 1.32,1.32 0 0 0 -0.2,0.12 l -0.16,0.12 z m 1.68,1.25 a 3.1,3.1 0 0 0 -0.43,0 1.36,1.36 0 0 0 -0.41,0.09 0.65,0.65 0 0 0 -0.29,0.18 0.41,0.41 0 0 0 -0.12,0.31 0.43,0.43 0 0 0 0.18,0.39 0.9,0.9 0 0 0 0.5,0.12 0.86,0.86 0 0 0 0.41,-0.09 0.67,0.67 0 0 0 0.28,-0.21 0.85,0.85 0 0 0 0.15,-0.3 1.13,1.13 0 0 0 0,-0.32 v -0.19 z"
         id="path8120"
         inkscape:connector-curvature="0"
         style="fill:#231f20" />
      <path
         class="cls-4"
         d="m 45.06,52.46 h 0.59 v 0.48 0 a 1.19,1.19 0 0 1 0.16,-0.23 1.84,1.84 0 0 1 0.22,-0.17 l 0.27,-0.12 a 1.55,1.55 0 0 1 0.29,0 0.77,0.77 0 0 1 0.27,0 v 0.64 h -0.14 -0.15 a 0.9,0.9 0 0 0 -0.67,0.24 1.1,1.1 0 0 0 -0.23,0.76 v 1.57 h -0.59 z"
         id="path8122"
         inkscape:connector-curvature="0"
         style="fill:#231f20" />
      <path
         class="cls-4"
         d="m 47.35,51.34 a 0.45,0.45 0 0 1 0.12,-0.31 0.43,0.43 0 0 1 0.62,0 0.46,0.46 0 0 1 0.13,0.31 0.44,0.44 0 0 1 -0.75,0.3 0.41,0.41 0 0 1 -0.12,-0.3 z m 0.13,1.12 h 0.6 v 3.13 h -0.6 z"
         id="path8124"
         inkscape:connector-curvature="0"
         style="fill:#231f20" />
      <path
         class="cls-4"
         d="m 48.82,54 a 1.66,1.66 0 0 1 0.13,-0.64 1.58,1.58 0 0 1 0.88,-0.88 1.62,1.62 0 0 1 0.66,-0.13 1.57,1.57 0 0 1 0.65,0.13 1.75,1.75 0 0 1 0.53,0.35 1.58,1.58 0 0 1 0.35,0.53 1.5,1.5 0 0 1 0.13,0.64 1.64,1.64 0 0 1 -0.48,1.16 1.69,1.69 0 0 1 -1.18,0.48 A 1.62,1.62 0 0 1 49.83,55.51 1.58,1.58 0 0 1 49.3,55.16 1.64,1.64 0 0 1 48.82,54 Z m 0.64,0 a 1.31,1.31 0 0 0 0.07,0.44 1.27,1.27 0 0 0 0.2,0.34 1,1 0 0 0 0.33,0.22 1.07,1.07 0 0 0 0.86,0 1,1 0 0 0 0.32,-0.22 1.08,1.08 0 0 0 0.21,-0.34 1.62,1.62 0 0 0 0.07,-0.44 1.5,1.5 0 0 0 -0.07,-0.44 0.94,0.94 0 0 0 -0.53,-0.57 1.2,1.2 0 0 0 -0.86,0 1,1 0 0 0 -0.33,0.22 1.19,1.19 0 0 0 -0.2,0.35 1.23,1.23 0 0 0 -0.07,0.44 z"
         id="path8126"
         inkscape:connector-curvature="0"
         style="fill:#231f20" />
      <path
         class="cls-4"
         d="m 55,50.91 h 0.64 v 4.68 H 55 Z"
         id="path8128"
         inkscape:connector-curvature="0"
         style="fill:#231f20" />
      <path
         class="cls-4"
         d="m 56.61,52.46 h 0.6 v 0.48 0 a 0.94,0.94 0 0 1 0.39,-0.4 1.24,1.24 0 0 1 0.64,-0.16 1.21,1.21 0 0 1 0.43,0.07 1.07,1.07 0 0 1 0.37,0.22 1.14,1.14 0 0 1 0.25,0.37 1.45,1.45 0 0 1 0.09,0.54 v 2 h -0.6 v -1.84 a 1,1 0 0 0 -0.06,-0.37 0.76,0.76 0 0 0 -0.15,-0.25 0.62,0.62 0 0 0 -0.23,-0.14 0.84,0.84 0 0 0 -0.27,0 0.93,0.93 0 0 0 -0.34,0.06 0.75,0.75 0 0 0 -0.28,0.18 1.06,1.06 0 0 0 -0.19,0.33 1.63,1.63 0 0 0 -0.06,0.47 v 1.61 h -0.6 z"
         id="path8130"
         inkscape:connector-curvature="0"
         style="fill:#231f20" />
      <path
         class="cls-4"
         d="m 62,53.25 a 0.79,0.79 0 0 0 -0.64,-0.31 0.7,0.7 0 0 0 -0.37,0.09 0.26,0.26 0 0 0 -0.16,0.26 0.29,0.29 0 0 0 0.09,0.22 0.77,0.77 0 0 0 0.21,0.14 l 0.26,0.08 0.24,0.05 a 1.89,1.89 0 0 1 0.36,0.11 0.92,0.92 0 0 1 0.29,0.17 0.7,0.7 0 0 1 0.19,0.26 0.82,0.82 0 0 1 0.07,0.37 0.84,0.84 0 0 1 -0.11,0.45 1,1 0 0 1 -0.29,0.31 1.31,1.31 0 0 1 -0.4,0.17 2.49,2.49 0 0 1 -0.46,0.05 1.85,1.85 0 0 1 -0.69,-0.12 1.23,1.23 0 0 1 -0.52,-0.43 l 0.45,-0.37 a 1.61,1.61 0 0 0 0.32,0.25 0.76,0.76 0 0 0 0.44,0.12 0.83,0.83 0 0 0 0.22,0 0.65,0.65 0 0 0 0.21,-0.07 0.29,0.29 0 0 0 0.14,-0.13 0.25,0.25 0 0 0 0.06,-0.17 0.33,0.33 0 0 0 -0.08,-0.22 0.53,0.53 0 0 0 -0.2,-0.13 1,1 0 0 0 -0.25,-0.08 H 61.16 L 60.79,54.21 A 1.08,1.08 0 0 1 60.49,54.05 0.64,0.64 0 0 1 60.28,53.8 0.81,0.81 0 0 1 60.2,53.43 0.83,0.83 0 0 1 60.3,53 a 1,1 0 0 1 0.27,-0.3 1.17,1.17 0 0 1 0.39,-0.18 1.54,1.54 0 0 1 0.43,-0.06 1.62,1.62 0 0 1 0.61,0.12 1,1 0 0 1 0.46,0.4 z"
         id="path8132"
         inkscape:connector-curvature="0"
         style="fill:#231f20" />
      <path
         class="cls-4"
         d="m 65,53 h -0.85 v 1.4 a 2.35,2.35 0 0 0 0,0.26 0.59,0.59 0 0 0 0,0.23 0.34,0.34 0 0 0 0.13,0.16 0.4,0.4 0 0 0 0.26,0.07 h 0.22 A 0.7,0.7 0 0 0 65,55 v 0.55 a 0.86,0.86 0 0 1 -0.27,0.08 h -0.26 a 1.23,1.23 0 0 1 -0.53,-0.09 0.69,0.69 0 0 1 -0.28,-0.25 0.8,0.8 0 0 1 -0.11,-0.34 c 0,-0.13 0,-0.25 0,-0.38 V 53 h -0.69 v -0.52 h 0.69 V 51.6 h 0.59 v 0.88 H 65 Z"
         id="path8134"
         inkscape:connector-curvature="0"
         style="fill:#231f20" />
      <path
         class="cls-4"
         d="m 65.56,51.34 a 0.42,0.42 0 0 1 0.13,-0.31 0.4,0.4 0 0 1 0.31,-0.13 0.38,0.38 0 0 1 0.3,0.13 0.42,0.42 0 0 1 0.13,0.31 0.44,0.44 0 0 1 -0.43,0.43 0.4,0.4 0 0 1 -0.31,-0.13 0.38,0.38 0 0 1 -0.13,-0.3 z m 0.14,1.12 h 0.59 v 3.13 H 65.7 Z"
         id="path8136"
         inkscape:connector-curvature="0"
         style="fill:#231f20" />
      <path
         class="cls-4"
         d="m 69,53 h -0.9 v 1.4 a 2.35,2.35 0 0 0 0,0.26 0.59,0.59 0 0 0 0,0.23 0.34,0.34 0 0 0 0.13,0.16 0.38,0.38 0 0 0 0.26,0.07 h 0.22 A 0.7,0.7 0 0 0 69,55 v 0.55 a 0.86,0.86 0 0 1 -0.27,0.08 h -0.26 a 1.23,1.23 0 0 1 -0.53,-0.09 0.69,0.69 0 0 1 -0.28,-0.25 0.8,0.8 0 0 1 -0.11,-0.34 c 0,-0.13 0,-0.25 0,-0.38 V 53 h -0.69 v -0.52 h 0.69 V 51.6 h 0.59 v 0.88 H 69 Z"
         id="path8138"
         inkscape:connector-curvature="0"
         style="fill:#231f20" />
      <path
         class="cls-4"
         d="m 72.39,55.59 h -0.6 v -0.48 0 a 0.85,0.85 0 0 1 -0.39,0.41 1.43,1.43 0 0 1 -1.08,0.08 1.1,1.1 0 0 1 -0.36,-0.21 1,1 0 0 1 -0.24,-0.38 1.43,1.43 0 0 1 -0.1,-0.53 v -2 h 0.6 v 1.85 a 1,1 0 0 0 0.06,0.37 0.57,0.57 0 0 0 0.16,0.25 0.52,0.52 0 0 0 0.22,0.14 0.86,0.86 0 0 0 0.27,0 1,1 0 0 0 0.35,-0.06 0.83,0.83 0 0 0 0.27,-0.19 1.06,1.06 0 0 0 0.19,-0.33 1.63,1.63 0 0 0 0.06,-0.47 v -1.58 h 0.6 z"
         id="path8140"
         inkscape:connector-curvature="0"
         style="fill:#231f20" />
      <path
         class="cls-4"
         d="m 75,53 h -0.85 v 1.68 a 1.55,1.55 0 0 0 0,0.23 0.36,0.36 0 0 0 0.14,0.16 0.38,0.38 0 0 0 0.26,0.07 h 0.21 a 0.66,0.66 0 0 0 0.21,-0.08 v 0.55 A 0.86,0.86 0 0 1 74.7,55.69 H 74.43 A 1.3,1.3 0 0 1 73.9,55.6 0.66,0.66 0 0 1 73.63,55.35 0.8,0.8 0 0 1 73.6,55 c 0,-0.13 0,-0.25 0,-0.38 V 53 h -0.7 v -0.52 h 0.68 V 51.6 h 0.6 v 0.88 H 75 Z"
         id="path8142"
         inkscape:connector-curvature="0"
         style="fill:#231f20" />
      <path
         class="cls-4"
         d="m 76.13,54.24 a 0.83,0.83 0 0 0 0.32,0.66 1,1 0 0 0 0.34,0.19 1.34,1.34 0 0 0 0.39,0.07 1,1 0 0 0 0.49,-0.13 1.68,1.68 0 0 0 0.37,-0.34 l 0.45,0.34 a 1.64,1.64 0 0 1 -1.39,0.64 1.81,1.81 0 0 1 -0.67,-0.12 1.41,1.41 0 0 1 -0.5,-0.35 1.46,1.46 0 0 1 -0.32,-0.52 1.75,1.75 0 0 1 -0.12,-0.65 1.54,1.54 0 0 1 0.13,-0.65 1.59,1.59 0 0 1 0.33,-0.53 1.75,1.75 0 0 1 0.51,-0.34 1.57,1.57 0 0 1 0.65,-0.13 1.55,1.55 0 0 1 0.71,0.15 1.34,1.34 0 0 1 0.47,0.38 1.61,1.61 0 0 1 0.27,0.52 2.47,2.47 0 0 1 0.08,0.6 v 0.21 z M 78,53.77 a 1,1 0 0 0 -0.06,-0.36 0.77,0.77 0 0 0 -0.17,-0.29 0.7,0.7 0 0 0 -0.28,-0.19 0.94,0.94 0 0 0 -0.39,-0.07 0.87,0.87 0 0 0 -0.4,0.08 1.13,1.13 0 0 0 -0.31,0.21 1,1 0 0 0 -0.19,0.3 0.74,0.74 0 0 0 -0.07,0.32 z"
         id="path8144"
         inkscape:connector-curvature="0"
         style="fill:#231f20" />
      <path
         class="cls-4"
         d="M 31,60.14 H 30.32 V 59.63 H 31 v -0.7 a 1.53,1.53 0 0 1 0.24,-0.94 1,1 0 0 1 0.83,-0.31 h 0.21 a 1,1 0 0 1 0.23,0 l -0.06,0.53 h -0.17 -0.17 a 0.68,0.68 0 0 0 -0.27,0 0.4,0.4 0 0 0 -0.15,0.14 0.52,0.52 0 0 0 -0.07,0.22 2.66,2.66 0 0 0 0,0.3 v 0.72 h 0.71 v 0.51 h -0.72 v 2.62 H 31 Z"
         id="path8146"
         inkscape:connector-curvature="0"
         style="fill:#231f20" />
      <path
         class="cls-4"
         d="m 32.69,61.19 a 1.53,1.53 0 0 1 0.13,-0.64 1.7,1.7 0 0 1 0.35,-0.52 1.7,1.7 0 0 1 2.37,0 1.64,1.64 0 0 1 0.46,1.16 1.61,1.61 0 0 1 -0.13,0.65 1.54,1.54 0 0 1 -0.35,0.52 2,2 0 0 1 -0.53,0.35 1.72,1.72 0 0 1 -1.31,0 2,2 0 0 1 -0.53,-0.35 1.7,1.7 0 0 1 -0.35,-0.52 1.61,1.61 0 0 1 -0.11,-0.65 z m 0.63,0 a 1.23,1.23 0 0 0 0.08,0.44 0.88,0.88 0 0 0 0.2,0.34 1,1 0 0 0 0.33,0.23 1.14,1.14 0 0 0 0.43,0.08 1.12,1.12 0 0 0 0.42,-0.08 1,1 0 0 0 0.33,-0.23 0.88,0.88 0 0 0 0.2,-0.34 1.23,1.23 0 0 0 0.08,-0.44 1.27,1.27 0 0 0 -0.08,-0.44 1,1 0 0 0 -0.2,-0.34 1,1 0 0 0 -0.33,-0.23 1.12,1.12 0 0 0 -0.42,-0.08 1.14,1.14 0 0 0 -0.43,0.08 1,1 0 0 0 -0.33,0.23 1,1 0 0 0 -0.2,0.34 1.27,1.27 0 0 0 -0.08,0.44 z"
         id="path8148"
         inkscape:connector-curvature="0"
         style="fill:#231f20" />
      <path
         class="cls-4"
         d="m 36.76,59.63 h 0.6 v 0.48 0 a 0.73,0.73 0 0 1 0.16,-0.23 1.24,1.24 0 0 1 0.22,-0.18 1.69,1.69 0 0 1 0.27,-0.11 1,1 0 0 1 0.29,0 0.71,0.71 0 0 1 0.26,0 v 0.64 h -0.15 -0.14 a 0.89,0.89 0 0 0 -0.67,0.24 1.06,1.06 0 0 0 -0.23,0.76 v 1.58 h -0.6 z"
         id="path8150"
         inkscape:connector-curvature="0"
         style="fill:#231f20" />
      <path
         class="cls-4"
         d="m 44.52,59.09 a 1.41,1.41 0 0 0 -0.5,-0.4 1.55,1.55 0 0 0 -0.63,-0.13 1.71,1.71 0 0 0 -0.72,0.14 1.84,1.84 0 0 0 -0.55,0.41 1.79,1.79 0 0 0 -0.35,0.6 2.31,2.31 0 0 0 -0.12,0.75 2.05,2.05 0 0 0 0.11,0.7 1.8,1.8 0 0 0 0.35,0.58 1.59,1.59 0 0 0 0.55,0.4 1.86,1.86 0 0 0 0.73,0.14 1.49,1.49 0 0 0 0.71,-0.16 1.52,1.52 0 0 0 0.51,-0.47 l 0.54,0.41 -0.19,0.2 a 1.48,1.48 0 0 1 -0.35,0.28 2.09,2.09 0 0 1 -0.52,0.23 2.25,2.25 0 0 1 -0.71,0.11 2.16,2.16 0 0 1 -1,-0.22 2.25,2.25 0 0 1 -0.76,-0.55 2.42,2.42 0 0 1 -0.48,-0.78 2.45,2.45 0 0 1 -0.17,-0.87 2.7,2.7 0 0 1 0.18,-1 2.36,2.36 0 0 1 0.5,-0.8 2.16,2.16 0 0 1 0.77,-0.51 2.46,2.46 0 0 1 1,-0.19 2.42,2.42 0 0 1 0.91,0.18 1.73,1.73 0 0 1 0.73,0.55 z"
         id="path8152"
         inkscape:connector-curvature="0"
         style="fill:#231f20" />
      <path
         class="cls-4"
         d="m 45.83,60 a 1.64,1.64 0 0 1 0.58,-0.35 1.91,1.91 0 0 1 0.66,-0.11 1.72,1.72 0 0 1 0.59,0.08 1.33,1.33 0 0 1 0.41,0.23 1,1 0 0 1 0.31,0.73 v 1.6 a 2.81,2.81 0 0 0 0,0.3 2.28,2.28 0 0 0 0,0.27 h -0.53 c 0,-0.16 0,-0.32 0,-0.48 v 0 A 1.19,1.19 0 0 1 47.38,62.7 1.54,1.54 0 0 1 46.75,62.83 1.42,1.42 0 0 1 46.33,62.77 0.92,0.92 0 0 1 46,62.6 a 0.89,0.89 0 0 1 -0.24,-0.3 0.84,0.84 0 0 1 -0.08,-0.4 0.87,0.87 0 0 1 0.5,-0.84 1.78,1.78 0 0 1 0.55,-0.19 3.55,3.55 0 0 1 0.67,-0.06 h 0.44 v -0.13 a 0.69,0.69 0 0 0 0,-0.24 0.7,0.7 0 0 0 -0.14,-0.21 0.76,0.76 0 0 0 -0.23,-0.15 0.81,0.81 0 0 0 -0.33,-0.06 1.26,1.26 0 0 0 -0.3,0 1.34,1.34 0 0 0 -0.24,0.09 1.18,1.18 0 0 0 -0.19,0.11 l -0.16,0.13 z m 1.68,1.24 h -0.43 a 2.26,2.26 0 0 0 -0.41,0.09 0.77,0.77 0 0 0 -0.29,0.19 0.41,0.41 0 0 0 -0.12,0.3 0.43,0.43 0 0 0 0.18,0.39 0.89,0.89 0 0 0 0.49,0.12 1,1 0 0 0 0.42,-0.08 0.88,0.88 0 0 0 0.28,-0.22 0.73,0.73 0 0 0 0.15,-0.29 1.25,1.25 0 0 0 0,-0.32 v -0.2 z"
         id="path8154"
         inkscape:connector-curvature="0"
         style="fill:#231f20" />
      <path
         class="cls-4"
         d="m 49.27,59.63 h 0.59 v 0.48 0 a 1,1 0 0 1 0.39,-0.41 1.34,1.34 0 0 1 0.64,-0.15 1.31,1.31 0 0 1 0.44,0.07 0.88,0.88 0 0 1 0.36,0.21 1.1,1.1 0 0 1 0.25,0.37 1.53,1.53 0 0 1 0.09,0.54 v 2 h -0.59 v -1.83 a 1.08,1.08 0 0 0 -0.06,-0.38 0.89,0.89 0 0 0 -0.16,-0.25 0.68,0.68 0 0 0 -0.23,-0.14 1.26,1.26 0 0 0 -0.27,0 0.93,0.93 0 0 0 -0.34,0.06 0.67,0.67 0 0 0 -0.28,0.19 0.75,0.75 0 0 0 -0.18,0.33 1.27,1.27 0 0 0 -0.07,0.46 v 1.62 h -0.59 z"
         id="path8156"
         inkscape:connector-curvature="0"
         style="fill:#231f20" />
      <path
         class="cls-4"
         d="m 55.17,60.46 a 1.18,1.18 0 0 0 -0.35,-0.26 1,1 0 0 0 -0.43,-0.09 0.94,0.94 0 0 0 -0.43,0.09 0.89,0.89 0 0 0 -0.3,0.24 1,1 0 0 0 -0.19,0.36 1.42,1.42 0 0 0 -0.06,0.42 1.14,1.14 0 0 0 0.07,0.41 1.08,1.08 0 0 0 0.21,0.34 0.9,0.9 0 0 0 0.31,0.23 1.16,1.16 0 0 0 0.42,0.08 0.94,0.94 0 0 0 0.43,-0.09 1,1 0 0 0 0.33,-0.26 l 0.42,0.42 a 1.17,1.17 0 0 1 -0.54,0.37 1.85,1.85 0 0 1 -1.31,0 1.54,1.54 0 0 1 -0.86,-0.85 1.78,1.78 0 0 1 -0.11,-0.67 1.76,1.76 0 0 1 0.11,-0.66 1.35,1.35 0 0 1 0.34,-0.52 1.39,1.39 0 0 1 0.51,-0.34 1.63,1.63 0 0 1 0.67,-0.13 1.65,1.65 0 0 1 0.66,0.13 1.45,1.45 0 0 1 0.55,0.37 z"
         id="path8158"
         inkscape:connector-curvature="0"
         style="fill:#231f20" />
      <path
         class="cls-4"
         d="m 56.54,61.41 a 0.75,0.75 0 0 0 0.09,0.37 1,1 0 0 0 0.24,0.29 1,1 0 0 0 0.34,0.18 1,1 0 0 0 0.39,0.07 0.82,0.82 0 0 0 0.48,-0.13 1.35,1.35 0 0 0 0.38,-0.34 l 0.45,0.35 a 1.67,1.67 0 0 1 -1.39,0.64 1.82,1.82 0 0 1 -0.67,-0.13 1.41,1.41 0 0 1 -0.51,-0.35 1.52,1.52 0 0 1 -0.32,-0.52 2,2 0 0 1 -0.11,-0.65 1.75,1.75 0 0 1 0.12,-0.65 1.67,1.67 0 0 1 0.34,-0.52 1.54,1.54 0 0 1 0.51,-0.35 1.75,1.75 0 0 1 0.65,-0.12 1.38,1.38 0 0 1 1.17,0.52 1.34,1.34 0 0 1 0.27,0.53 2.08,2.08 0 0 1 0.09,0.6 v 0.21 z m 1.88,-0.48 a 1,1 0 0 0 -0.06,-0.36 0.77,0.77 0 0 0 -0.45,-0.48 1.13,1.13 0 0 0 -0.39,-0.07 1,1 0 0 0 -0.4,0.08 0.91,0.91 0 0 0 -0.31,0.22 1.37,1.37 0 0 0 -0.2,0.29 1,1 0 0 0 -0.07,0.32 z"
         id="path8160"
         inkscape:connector-curvature="0"
         style="fill:#231f20" />
      <path
         class="cls-4"
         d="m 59.79,59.63 h 0.59 v 0.48 0 a 0.94,0.94 0 0 1 0.16,-0.23 1.24,1.24 0 0 1 0.22,-0.18 2.18,2.18 0 0 1 0.27,-0.11 1,1 0 0 1 0.29,0 0.77,0.77 0 0 1 0.27,0 v 0.64 H 61.44 61.3 a 0.9,0.9 0 0 0 -0.67,0.24 1.11,1.11 0 0 0 -0.23,0.76 v 1.58 h -0.59 z"
         id="path8162"
         inkscape:connector-curvature="0"
         style="fill:#231f20" />
      <path
         class="cls-4"
         d="m 64.28,58.08 h 1.65 a 1.94,1.94 0 0 1 0.74,0.12 1.33,1.33 0 0 1 0.46,0.31 1.06,1.06 0 0 1 0.23,0.43 1.41,1.41 0 0 1 0.07,0.45 1.26,1.26 0 0 1 -0.08,0.43 1.25,1.25 0 0 1 -0.23,0.38 1.45,1.45 0 0 1 -0.36,0.28 1.08,1.08 0 0 1 -0.48,0.14 l 1.33,2.14 H 66.82 L 65.63,60.7 h -0.71 v 2.06 h -0.64 z m 0.64,2.06 h 0.83 a 2.31,2.31 0 0 0 0.37,0 1,1 0 0 0 0.32,-0.11 0.57,0.57 0 0 0 0.23,-0.23 0.69,0.69 0 0 0 0.09,-0.38 0.75,0.75 0 0 0 -0.09,-0.39 0.63,0.63 0 0 0 -0.23,-0.23 1,1 0 0 0 -0.32,-0.11 2.31,2.31 0 0 0 -0.37,0 h -0.83 z"
         id="path8164"
         inkscape:connector-curvature="0"
         style="fill:#231f20" />
      <path
         class="cls-4"
         d="m 68.55,61.41 a 0.75,0.75 0 0 0 0.09,0.37 1.09,1.09 0 0 0 0.23,0.29 1,1 0 0 0 0.34,0.18 1.09,1.09 0 0 0 0.4,0.07 0.86,0.86 0 0 0 0.48,-0.13 1.5,1.5 0 0 0 0.38,-0.34 l 0.45,0.35 a 1.68,1.68 0 0 1 -1.39,0.64 1.78,1.78 0 0 1 -0.67,-0.13 1.41,1.41 0 0 1 -0.51,-0.35 1.38,1.38 0 0 1 -0.32,-0.52 1.89,1.89 0 0 1 0,-1.3 1.51,1.51 0 0 1 0.34,-0.52 1.54,1.54 0 0 1 0.51,-0.35 1.71,1.71 0 0 1 0.65,-0.12 1.51,1.51 0 0 1 0.7,0.14 1.48,1.48 0 0 1 0.47,0.38 1.66,1.66 0 0 1 0.27,0.53 2.47,2.47 0 0 1 0.08,0.6 v 0.21 z m 1.88,-0.48 a 1.35,1.35 0 0 0 -0.07,-0.36 0.75,0.75 0 0 0 -0.16,-0.29 0.92,0.92 0 0 0 -0.28,-0.19 1.24,1.24 0 0 0 -0.4,-0.07 1.06,1.06 0 0 0 -0.4,0.08 1,1 0 0 0 -0.3,0.22 1.08,1.08 0 0 0 -0.2,0.29 0.77,0.77 0 0 0 -0.07,0.32 z"
         id="path8166"
         inkscape:connector-curvature="0"
         style="fill:#231f20" />
      <path
         class="cls-4"
         d="m 73.43,60.41 a 0.92,0.92 0 0 0 -0.26,-0.22 0.74,0.74 0 0 0 -0.38,-0.09 0.75,0.75 0 0 0 -0.37,0.09 0.29,0.29 0 0 0 -0.15,0.26 0.32,0.32 0 0 0 0.09,0.23 0.74,0.74 0 0 0 0.21,0.13 0.79,0.79 0 0 0 0.26,0.08 h 0.24 L 73.43,61 a 1.17,1.17 0 0 1 0.29,0.17 0.83,0.83 0 0 1 0.19,0.26 0.84,0.84 0 0 1 0.07,0.37 0.88,0.88 0 0 1 -0.11,0.45 1,1 0 0 1 -0.29,0.31 1.15,1.15 0 0 1 -0.41,0.17 A 1.9,1.9 0 0 1 72,62.72 1.28,1.28 0 0 1 71.47,62.28 l 0.45,-0.37 a 2.1,2.1 0 0 0 0.33,0.26 0.81,0.81 0 0 0 0.43,0.11 h 0.23 a 0.77,0.77 0 0 0 0.2,-0.07 0.64,0.64 0 0 0 0.15,-0.13 0.28,0.28 0 0 0 0.06,-0.18 0.27,0.27 0 0 0 -0.09,-0.21 0.52,0.52 0 0 0 -0.19,-0.14 l -0.25,-0.08 -0.23,-0.05 -0.36,-0.1 a 1.22,1.22 0 0 1 -0.3,-0.16 0.88,0.88 0 0 1 -0.22,-0.25 0.86,0.86 0 0 1 -0.07,-0.38 0.88,0.88 0 0 1 0.1,-0.43 1,1 0 0 1 0.27,-0.3 1.19,1.19 0 0 1 0.38,-0.17 1.59,1.59 0 0 1 0.43,-0.06 1.54,1.54 0 0 1 0.61,0.12 0.88,0.88 0 0 1 0.46,0.39 z"
         id="path8168"
         inkscape:connector-curvature="0"
         style="fill:#231f20" />
      <path
         class="cls-4"
         d="m 75.14,61.41 a 0.75,0.75 0 0 0 0.09,0.37 1,1 0 0 0 0.24,0.29 0.88,0.88 0 0 0 0.33,0.18 1.09,1.09 0 0 0 0.4,0.07 0.86,0.86 0 0 0 0.48,-0.13 1.5,1.5 0 0 0 0.38,-0.34 l 0.45,0.35 A 1.68,1.68 0 0 1 76.12,62.84 1.78,1.78 0 0 1 75.45,62.71 1.41,1.41 0 0 1 74.94,62.36 1.38,1.38 0 0 1 74.62,61.84 2,2 0 0 1 74.51,61.19 1.75,1.75 0 0 1 74.63,60.54 1.51,1.51 0 0 1 75,60 a 1.54,1.54 0 0 1 0.51,-0.35 1.71,1.71 0 0 1 0.65,-0.12 1.51,1.51 0 0 1 0.7,0.14 1.44,1.44 0 0 1 0.74,0.91 2.47,2.47 0 0 1 0.08,0.6 v 0.21 z M 77,60.93 a 1.93,1.93 0 0 0 -0.06,-0.36 0.77,0.77 0 0 0 -0.45,-0.48 1.24,1.24 0 0 0 -0.4,-0.07 1.06,1.06 0 0 0 -0.4,0.08 1,1 0 0 0 -0.3,0.22 1.08,1.08 0 0 0 -0.2,0.29 0.77,0.77 0 0 0 -0.07,0.32 z"
         id="path8170"
         inkscape:connector-curvature="0"
         style="fill:#231f20" />
      <path
         class="cls-4"
         d="m 78.34,60 a 1.64,1.64 0 0 1 0.58,-0.35 2,2 0 0 1 0.67,-0.11 1.79,1.79 0 0 1 0.59,0.08 1.28,1.28 0 0 1 0.4,0.23 0.88,0.88 0 0 1 0.24,0.34 1,1 0 0 1 0.07,0.39 v 1.6 c 0,0.11 0,0.21 0,0.3 a 2.28,2.28 0 0 0 0,0.27 h -0.53 c 0,-0.16 0,-0.32 0,-0.48 v 0 a 1.13,1.13 0 0 1 -0.47,0.43 1.54,1.54 0 0 1 -0.63,0.13 1.4,1.4 0 0 1 -0.41,-0.06 1,1 0 0 1 -0.35,-0.18 0.89,0.89 0 0 1 -0.24,-0.3 1,1 0 0 1 -0.08,-0.4 0.92,0.92 0 0 1 0.13,-0.51 1,1 0 0 1 0.37,-0.33 1.78,1.78 0 0 1 0.55,-0.19 3.55,3.55 0 0 1 0.67,-0.06 h 0.44 v -0.13 a 0.69,0.69 0 0 0 0,-0.24 0.55,0.55 0 0 0 -0.14,-0.21 0.76,0.76 0 0 0 -0.23,-0.15 0.81,0.81 0 0 0 -0.33,-0.06 1.39,1.39 0 0 0 -0.3,0 1.57,1.57 0 0 0 -0.23,0.09 0.86,0.86 0 0 0 -0.19,0.11 l -0.17,0.13 z M 80,61.25 h -0.43 a 2.15,2.15 0 0 0 -0.4,0.09 0.81,0.81 0 0 0 -0.3,0.19 0.41,0.41 0 0 0 -0.12,0.3 0.43,0.43 0 0 0 0.18,0.39 0.93,0.93 0 0 0 0.5,0.12 1,1 0 0 0 0.41,-0.08 0.78,0.78 0 0 0 0.28,-0.22 0.73,0.73 0 0 0 0.15,-0.29 1.25,1.25 0 0 0 0,-0.32 v -0.2 z"
         id="path8172"
         inkscape:connector-curvature="0"
         style="fill:#231f20" />
      <path
         class="cls-4"
         d="m 81.9,59.63 h 0.59 v 0.48 0 a 0.94,0.94 0 0 1 0.16,-0.23 1.24,1.24 0 0 1 0.22,-0.18 2.18,2.18 0 0 1 0.27,-0.11 1,1 0 0 1 0.29,0 0.77,0.77 0 0 1 0.27,0 v 0.64 h -0.15 -0.14 a 0.9,0.9 0 0 0 -0.67,0.24 1.11,1.11 0 0 0 -0.23,0.76 v 1.58 H 81.9 Z"
         id="path8174"
         inkscape:connector-curvature="0"
         style="fill:#231f20" />
      <path
         class="cls-4"
         d="M 86.37,60.46 A 1.14,1.14 0 0 0 86,60.2 a 1,1 0 0 0 -0.43,-0.09 0.94,0.94 0 0 0 -0.43,0.09 1,1 0 0 0 -0.49,0.6 1.42,1.42 0 0 0 -0.06,0.42 1.14,1.14 0 0 0 0.07,0.41 1.27,1.27 0 0 0 0.2,0.34 1,1 0 0 0 0.32,0.23 1.12,1.12 0 0 0 0.42,0.08 0.94,0.94 0 0 0 0.43,-0.09 1,1 0 0 0 0.33,-0.26 l 0.42,0.42 a 1.17,1.17 0 0 1 -0.54,0.37 1.85,1.85 0 0 1 -1.31,0 1.42,1.42 0 0 1 -0.52,-0.34 1.39,1.39 0 0 1 -0.34,-0.51 1.9,1.9 0 0 1 0,-1.33 1.35,1.35 0 0 1 0.34,-0.52 1.39,1.39 0 0 1 0.51,-0.34 1.6,1.6 0 0 1 0.67,-0.13 1.65,1.65 0 0 1 0.66,0.13 1.34,1.34 0 0 1 0.54,0.37 z"
         id="path8176"
         inkscape:connector-curvature="0"
         style="fill:#231f20" />
      <path
         class="cls-4"
         d="M 87.38,57.76 H 88 v 2.35 0 a 0.85,0.85 0 0 1 0.39,-0.41 1.32,1.32 0 0 1 0.64,-0.15 1.25,1.25 0 0 1 0.43,0.07 0.82,0.82 0 0 1 0.36,0.21 1,1 0 0 1 0.25,0.37 1.53,1.53 0 0 1 0.09,0.54 v 2 h -0.59 v -1.83 a 1.08,1.08 0 0 0 -0.06,-0.38 0.72,0.72 0 0 0 -0.16,-0.25 0.59,0.59 0 0 0 -0.23,-0.14 1.09,1.09 0 0 0 -0.26,0 1,1 0 0 0 -0.35,0.06 0.73,0.73 0 0 0 -0.28,0.19 0.94,0.94 0 0 0 -0.18,0.33 1.61,1.61 0 0 0 -0.07,0.47 v 1.61 h -0.59 z"
         id="path8178"
         inkscape:connector-curvature="0"
         style="fill:#231f20" />
      <path
         class="cls-4"
         d="m 38.26,28.8 a 9.17,9.17 0 0 0 -9.38,9.26 v 0 a 9.08,9.08 0 0 0 9.33,9.2 9.17,9.17 0 0 0 9.39,-9.25 V 38 a 9.08,9.08 0 0 0 -9.34,-9.2 z m 6,9.31 a 6,6 0 0 1 -6,6.31 6.14,6.14 0 0 1 -6.09,-6.36 V 38 a 6.05,6.05 0 0 1 6,-6.31 6.13,6.13 0 0 1 6.09,6.37 z"
         id="path8180"
         inkscape:connector-curvature="0"
         style="fill:#231f20" />
      <rect
         class="cls-4"
         x="50.310001"
         y="29.1"
         width="3.1500001"
         height="17.91"
         id="rect8182"
         style="fill:#231f20" />
      <path
         class="cls-4"
         d="M 65.38,44.42 A 6,6 0 0 1 59.47,38.06 V 38 a 6,6 0 0 1 5.91,-6.31 7.12,7.12 0 0 1 5,2.22 l 2,-2.33 a 9.35,9.35 0 0 0 -7,-2.78 9.05,9.05 0 0 0 -9.23,9.26 v 0 a 9,9 0 0 0 9.1,9.2 9.24,9.24 0 0 0 7.27,-3.17 l -2,-2 a 7,7 0 0 1 -5.14,2.33 z"
         id="path8184"
         inkscape:connector-curvature="0"
         style="fill:#231f20" />
      <path
         class="cls-4"
         d="M 85.43,40.23 A 5.37,5.37 0 0 0 89.7,34.81 V 34.76 A 5.45,5.45 0 0 0 88.22,30.89 7.25,7.25 0 0 0 83.05,29.1 h -8 V 47 h 3.15 v -6.23 h 3.93 L 86.55,47 h 3.71 z M 78.22,38 v -6 h 4.57 c 2.33,0 3.71,1.05 3.71,3 v 0 c 0,1.81 -1.43,3 -3.68,3 z"
         id="path8186"
         inkscape:connector-curvature="0"
         style="fill:#231f20" />
    </g>
  </g>
</svg>
