<svg xmlns="http://www.w3.org/2000/svg" xmlns:xlink="http://www.w3.org/1999/xlink" width="612" height="792" x="0" y="0" enable-background="new 0 0 612 792" version="1.1" viewBox="0 0 612 792" xml:space="preserve"><g id="Layer_1"><g><path fill="none" stroke="#EAA822" d="M341.544,166.222c0,0-7.543,17.904-19.384,33.088 c-11.85,15.188-23.043,22.737-33.891,27.378c-10.855,4.64-13.604,5.32-22.877,8.419c-3.554,1.188-26.028,5.657-28.637,6.446"/><path fill="none" stroke="#EAA822" d="M337.913,179.112c0,0-7.783,10.279-12.865,14.432c-5.086,4.153-30.464,17.501-30.464,17.501"/><line x1="350.888" x2="348.081" y1="125.308" y2="139.245" fill="none" stroke="#EAA822"/><line x1="354.332" x2="343.884" y1="128.29" y2="137.291" fill="none" stroke="#EAA822"/><path fill="none" stroke="#EAA822" d="M294.752,220.635c0,0,31.339,14.708,35.985,17.9c4.642,3.189,15.086,9.52,15.086,9.52"/><path fill="none" stroke="#EAA822" d="M346.132,234.759c0,0-6.614-4.189-13.31-6.417 c-6.709-2.224-14.434-5.207-26.982-3.165c-12.553,2.047-16.365,6.004-22.056,11.285c-5.689,5.287-12.746,16.103-12.746,16.103" opacity=".75"/><path fill="none" stroke="#EAA822" d="M270.807,248.565c0,0,6.393-8.423,16.012-10.091c12.145-2.114,20.26,3.403,21.139,4.048"/><path fill="none" stroke="#EAA822" d="M318.506,220.522c0-0.004-3.84,5.517-11.542,12.929 c-7.698,7.412-24.41,23.077-24.41,23.077" opacity=".75"/><path fill="none" stroke="#EAA822" d="M306.765,243.223c0,0-8.005,6.288-15.947,7.883c-7.934,1.604-14.616,2.102-14.616,2.102"/><line x1="345.284" x2="321.081" y1="236.835" y2="251.046" fill="none" stroke="#EAA822" opacity=".75"/><line x1="324.912" x2="315.438" y1="151.738" y2="156.041" fill="none" stroke="#EAA822" opacity=".5"/><polyline fill="none" stroke="#EAA822" points="349.94 124.153 310.563 175.228 264.082 242.715"/><path fill="none" stroke="#EAA822" d="M358.644,130.101c0,0-1.84,10.155-2.783,13.285 c-0.966,3.133-3.346,11.293-3.346,11.293" opacity=".5"/><line x1="358.182" x2="351.24" y1="131.341" y2="151.496" fill="none" stroke="#EAA822"/><path fill="none" stroke="#EAA822" d="M344.758,114.942c0,0-12.107,52.636-27.022,85.171 c-9.569,20.887-22.131,41.437-40.204,51.593"/><path fill="none" stroke="#EAA822" d="M335.243,258.76c0,0-12.843-2.457-25.491-2.741c-12.634-0.28-25.521,1.288-25.521,1.288"/><path fill="none" stroke="#EAA822" d="M262.697,220.842c0,0-6.122,1.833-12.167,3.9c-6.129,2.095-18.054,6.841-18.054,6.841"/><path fill="none" stroke="#EAA822" d="M293.006,155.041c0,0-13.448,27.477-28.004,41.287 c-12.215,11.591-38.18,27.544-38.18,27.544"/><path fill="none" stroke="#EAA822" d="M286.002,152.815c0,0-11.159,26.812-21.402,44.064 c-9.925,16.709-33.868,31.558-33.868,31.558" opacity=".75"/><path fill="none" stroke="#EAA822" d="M278.715,148.47c0,0-6.466,32.337-18.392,48.477 c-10.006,13.541-31.955,29.418-31.955,29.418" opacity=".5"/><g><g><path fill="#FFF" d="M345.71,121.107c2.204,4.97,6.687,8.218,11.674,9.068c3.931,3.545,9.732,4.667,14.896,2.38 c7.004-3.103,10.173-11.306,7.062-18.314c-1.143-2.596-2.996-4.658-5.223-6.077c-3.595-7.674-12.675-11.108-20.463-7.656 C345.778,103.998,342.211,113.221,345.71,121.107"/><path fill="#FFF" d="M286.918,230.736c9.37-4.157,13.604-15.121,9.452-24.494c-4.157-9.37-15.121-13.609-24.491-9.452 c-9.376,4.157-13.609,15.119-9.454,24.493C266.578,230.656,277.544,234.886,286.918,230.736"/><path fill="#FFF" d="M334.545,262.165c1.795,4.043,6.523,5.869,10.567,4.081c4.057-1.793,5.87-6.526,4.079-10.572 c-1.79-4.046-6.522-5.875-10.566-4.082C334.581,253.388,332.75,258.117,334.545,262.165"/><path fill="#FFF" d="M380.173,155.041c-3.346,1.484-4.851,5.39-3.364,8.733c1.482,3.341,5.391,4.851,8.723,3.373 c3.346-1.486,4.854-5.396,3.372-8.733C387.426,155.07,383.519,153.559,380.173,155.041"/><path fill="#FFF" d="M284.534,121.028c-9.703,4.302-14.089,15.66-9.788,25.361c3.917,8.833,13.672,13.237,22.716,10.717 c0.042,1.161,0.291,2.334,0.785,3.468c0.322,0.708,0.73,1.337,1.179,1.927c-2.48-0.072-5.019,0.365-7.439,1.444 c-8.629,3.821-12.523,13.917-8.699,22.546c3.821,8.631,13.921,12.523,22.552,8.704c8.628-3.824,12.517-13.92,8.704-22.549 c-1.215-2.734-3.055-4.986-5.286-6.675c0.545-0.138,1.088-0.297,1.614-0.532c4.828-2.136,6.999-7.787,4.868-12.614 c-1.232-2.781-3.648-4.647-6.378-5.352c2.598-5.002,2.997-11.097,0.535-16.657C305.591,121.114,294.239,116.726,284.534,121.028"/><path fill="#FFF" d="M363.327,254.934c7.679-3.404,11.156-12.385,7.742-20.071c-3.396-7.677-12.385-11.149-20.064-7.743 c-7.684,3.405-11.147,12.387-7.751,20.071C346.653,254.873,355.643,258.338,363.327,254.934"/><path fill="#FFF" d="M305.165,249.546c2.248,5.072,8.182,7.359,13.251,5.114c4.355-1.934,6.636-6.582,5.779-11.068 c1.628,0.149,3.296-0.059,4.896-0.766c5.009-2.217,7.267-8.074,5.05-13.081c-0.599-1.353-1.474-2.479-2.517-3.4 c1.682-0.138,3.364-0.544,4.991-1.263c5.939-2.632,9.416-8.534,9.244-14.651c1.895,0.045,3.812-0.292,5.653-1.113 c6.636-2.939,9.642-10.706,6.69-17.344c-0.371-0.838-0.815-1.623-1.332-2.342c1.536-0.271,3.055-0.707,4.542-1.362 c9.933-4.404,14.406-16.014,10.014-25.944c-3.903-8.806-13.481-13.31-22.525-11.148c2.117-4.004,2.457-8.896,0.476-13.355 c-3.423-7.731-12.472-11.219-20.205-7.797c-7.72,3.423-11.211,12.467-7.793,20.198c2.798,6.308,9.335,9.789,15.849,9.003 c-3.704,5.431-4.61,12.578-1.755,19.026c1.257,2.827,3.101,5.196,5.318,7.059c-4.298,1.938-7.045,5.902-7.625,10.266 c-2.987-0.56-6.165-0.258-9.144,1.065c-7.856,3.479-11.41,12.668-7.929,20.52c1.374,3.085,3.631,5.497,6.337,7.09 c-0.462,0.125-0.924,0.247-1.368,0.447c-4.262,1.895-6.515,6.428-5.713,10.825c-1.677-0.169-3.413,0.037-5.072,0.769 C305.21,238.542,302.921,244.471,305.165,249.546"/><path fill="#FFF" d="M198.252,219.11c-14.167,6.279-20.563,22.851-14.287,37.014c6.277,14.167,22.846,20.565,37.019,14.289 c14.164-6.281,20.561-22.853,14.283-37.012C228.992,219.23,212.416,212.838,198.252,219.11"/><path fill="#FFF" d="M278.881,278.748c7.983-3.543,11.587-12.884,8.051-20.865c-2.856-6.442-9.479-10.023-16.125-9.318 c0.463-2.432,0.225-5.029-0.854-7.458c-2.825-6.376-10.277-9.25-16.646-6.428c-6.372,2.822-9.244,10.275-6.422,16.646 c1.974,4.454,6.218,7.192,10.764,7.471c-1.378,3.729-1.371,7.977,0.365,11.9C261.553,278.673,270.891,282.284,278.881,278.748"/></g><g><g><g><g opacity=".49"><g><g><defs><path id="SVGID_1_" d="M345.71,121.107c-3.499-7.881,0.068-17.109,7.952-20.6c7.883-3.497,17.113,0.063,20.599,7.949 c3.495,7.886-0.062,17.111-7.951,20.602C358.427,132.554,349.206,128.995,345.71,121.107"/></defs><clipPath id="SVGID_2_"><use overflow="visible" xlink:href="#SVGID_1_"/></clipPath><radialGradient id="SVGID_3_" cx="253.61" cy="466.924" r="2.172" gradientTransform="matrix(561.6445 413.1204 413.1204 -561.6445 -336113.8438 158088.7812)" gradientUnits="userSpaceOnUse"><stop offset="0" stop-color="#E00D7B"/><stop offset=".461" stop-color="#EA7224"/><stop offset="1" stop-color="#FECC07"/></radialGradient><polygon fill="url(#SVGID_3_)" points="356.187 89.841 384.928 110.989 363.785 139.726 335.048 118.58" clip-path="url(#SVGID_2_)"/></g></g></g><g opacity=".34"><g><g><defs><path id="SVGID_4_" d="M262.425,221.283c-4.155-9.372,0.08-20.336,9.454-24.493c9.371-4.154,20.334,0.082,24.491,9.452 c4.153,9.375-0.082,20.337-9.452,24.494C277.541,234.888,266.578,230.656,262.425,221.283"/></defs><clipPath id="SVGID_5_"><use overflow="visible" xlink:href="#SVGID_4_"/></clipPath><radialGradient id="SVGID_6_" cx="253.621" cy="466.94" r="2.142" gradientTransform="matrix(561.6497 413.1243 413.1243 -561.6497 -336115.9375 158091.5312)" gradientUnits="userSpaceOnUse"><stop offset="0" stop-color="#E00D7B"/><stop offset=".461" stop-color="#EA7224"/><stop offset="1" stop-color="#FECC07"/></radialGradient><polygon fill="url(#SVGID_6_)" points="274.878 184.117 309.036 209.248 283.913 243.408 249.752 218.28" clip-path="url(#SVGID_5_)"/></g></g></g><g opacity=".71"><g><g><defs><path id="SVGID_7_" d="M334.545,262.165c-1.795-4.048,0.036-8.776,4.08-10.574c4.044-1.793,8.776,0.032,10.566,4.082 c1.791,4.046-0.022,8.779-4.079,10.572C341.068,268.036,336.34,266.213,334.545,262.165"/></defs><clipPath id="SVGID_8_"><use overflow="visible" xlink:href="#SVGID_7_"/></clipPath><radialGradient id="SVGID_9_" cx="253.6" cy="466.868" r="2.236" gradientTransform="matrix(561.623 413.1046 413.1046 -561.623 -336100.8438 158082.8125)" gradientUnits="userSpaceOnUse"><stop offset="0" stop-color="#E00D7B"/><stop offset=".461" stop-color="#EA7224"/><stop offset="1" stop-color="#FECC07"/></radialGradient><polygon fill="url(#SVGID_9_)" points="339.922 246.124 354.668 256.97 343.815 271.714 329.073 260.871" clip-path="url(#SVGID_8_)"/></g></g></g><g opacity=".62"><g><g><defs><path id="SVGID_10_" d="M376.804,163.774c-1.481-3.343,0.037-7.253,3.369-8.733c3.346-1.48,7.253,0.027,8.73,3.371 c1.482,3.339-0.026,7.251-3.358,8.735C382.199,168.625,378.291,167.116,376.804,163.774"/></defs><clipPath id="SVGID_11_"><use overflow="visible" xlink:href="#SVGID_10_"/></clipPath><radialGradient id="SVGID_12_" cx="253.64" cy="466.905" r="2.184" gradientTransform="matrix(561.6497 413.1242 413.1242 -561.6497 -336125.8438 158090.6562)" gradientUnits="userSpaceOnUse"><stop offset="0" stop-color="#E00D7B"/><stop offset=".461" stop-color="#EA7224"/><stop offset="1" stop-color="#FECC07"/></radialGradient><polygon fill="url(#SVGID_12_)" points="381.242 150.521 393.428 159.481 384.471 171.667 372.285 162.702" clip-path="url(#SVGID_11_)"/></g></g></g><g opacity=".45"><g><g><defs><path id="SVGID_13_" d="M274.746,146.389c-4.297-9.704,0.086-21.059,9.79-25.361c9.703-4.295,21.055,0.086,25.361,9.788 c4.297,9.708-0.091,21.059-9.788,25.359C290.4,160.479,279.046,156.095,274.746,146.389"/></defs><clipPath id="SVGID_14_"><use overflow="visible" xlink:href="#SVGID_13_"/></clipPath><radialGradient id="SVGID_15_" cx="253.608" cy="466.893" r="2.203" gradientTransform="matrix(561.6472 413.1223 413.1223 -561.6472 -336114.8438 158089.1875)" gradientUnits="userSpaceOnUse"><stop offset="0" stop-color="#E00D7B"/><stop offset=".461" stop-color="#EA7224"/><stop offset="1" stop-color="#FECC07"/></radialGradient><polygon fill="url(#SVGID_15_)" points="287.644 107.911 323.017 133.927 297 169.303 261.625 143.281" clip-path="url(#SVGID_14_)"/></g></g></g><g opacity=".26"><g><defs><rect id="SVGID_16_" width="19.33" height="19.336" x="210.239" y="228.293" transform="matrix(-0.8056 -0.5925 0.5925 -0.8056 256.0598 559.9478)"/></defs><clipPath id="SVGID_17_"><use overflow="visible" xlink:href="#SVGID_16_"/></clipPath><g clip-path="url(#SVGID_17_)"><defs><path id="SVGID_18_" d="M211.07,241.878c-2.165-4.885,0.036-10.594,4.916-12.754c4.882-2.16,10.592,0.047,12.754,4.923 c2.16,4.88-0.045,10.588-4.92,12.75C218.939,248.959,213.229,246.758,211.07,241.878"/></defs><clipPath id="SVGID_19_"><use overflow="visible" xlink:href="#SVGID_18_"/></clipPath><radialGradient id="SVGID_20_" cx="253.616" cy="466.898" r="2.191" gradientTransform="matrix(561.6453 413.121 413.121 -561.6453 -336112.8438 158089.4375)" gradientUnits="userSpaceOnUse"><stop offset="0" stop-color="#E00D7B"/><stop offset=".461" stop-color="#EA7224"/><stop offset="1" stop-color="#FECC07"/></radialGradient><polygon fill="url(#SVGID_20_)" points="217.552 222.528 235.334 235.613 222.253 253.393 204.469 240.312" clip-path="url(#SVGID_19_)"/></g></g></g><g opacity=".5"><g><g><defs><path id="SVGID_21_" d="M343.254,247.191c-3.396-7.684,0.067-16.669,7.746-20.074c7.685-3.404,16.66,0.066,20.069,7.746 c3.414,7.686-0.063,16.668-7.742,20.071C355.647,258.337,346.653,254.873,343.254,247.191"/></defs><clipPath id="SVGID_22_"><use overflow="visible" xlink:href="#SVGID_21_"/></clipPath><radialGradient id="SVGID_23_" cx="253.615" cy="466.887" r="2.203" gradientTransform="matrix(561.6527 413.1264 413.1264 -561.6527 -336116.625 158090.8125)" gradientUnits="userSpaceOnUse"><stop offset="0" stop-color="#E00D7B"/><stop offset=".461" stop-color="#EA7224"/><stop offset="1" stop-color="#FECC07"/></radialGradient><polygon fill="url(#SVGID_23_)" points="353.462 216.736 381.465 237.327 360.865 265.318 332.877 244.73" clip-path="url(#SVGID_22_)"/></g></g></g><g opacity=".26"><g><g><defs><path id="SVGID_24_" d="M305.169,249.549c-2.249-5.073,0.041-11.007,5.109-13.255c5.077-2.244,11.012,0.042,13.246,5.114 c2.258,5.07-0.036,11.006-5.108,13.253C313.347,256.906,307.413,254.619,305.169,249.549"/></defs><clipPath id="SVGID_25_"><use overflow="visible" xlink:href="#SVGID_24_"/></clipPath><radialGradient id="SVGID_26_" cx="253.608" cy="466.984" r="2.106" gradientTransform="matrix(561.6417 413.1183 413.1183 -561.6417 -336111.1875 158087.9375)" gradientUnits="userSpaceOnUse"><stop offset="0" stop-color="#E00D7B"/><stop offset=".461" stop-color="#EA7224"/><stop offset="1" stop-color="#FECC07"/></radialGradient><polygon fill="url(#SVGID_26_)" points="311.91 229.438 330.388 243.037 316.802 261.519 298.306 247.921" clip-path="url(#SVGID_25_)"/></g></g></g><g opacity=".45"><g><defs><rect id="SVGID_27_" width="11.561" height="11.562" x="211.852" y="226.207" transform="matrix(-0.8056 -0.5925 0.5925 -0.8056 255.4984 547.8182)"/></defs><clipPath id="SVGID_28_"><use overflow="visible" xlink:href="#SVGID_27_"/></clipPath><g clip-path="url(#SVGID_28_)"><defs><path id="SVGID_29_" d="M212.351,234.328c-1.294-2.917,0.02-6.332,2.939-7.625c2.92-1.294,6.337,0.025,7.627,2.944 c1.294,2.917-0.022,6.326-2.941,7.623C217.054,238.562,213.642,237.248,212.351,234.328"/></defs><clipPath id="SVGID_30_"><use overflow="visible" xlink:href="#SVGID_29_"/></clipPath><radialGradient id="SVGID_31_" cx="253.654" cy="466.963" r="2.11" gradientTransform="matrix(561.6356 413.1137 413.1137 -561.6356 -336118.0312 158084.75)" gradientUnits="userSpaceOnUse"><stop offset="0" stop-color="#E00D7B"/><stop offset=".461" stop-color="#EA7224"/><stop offset="1" stop-color="#FECC07"/></radialGradient><polygon fill="url(#SVGID_31_)" points="216.226 222.755 226.863 230.579 219.042 241.219 208.402 233.395" clip-path="url(#SVGID_30_)"/></g></g></g><g opacity=".77"><g><defs><polygon id="SVGID_32_" points="188.111 260.58 207.114 274.562 221.095 255.551 202.087 241.577"/></defs><clipPath id="SVGID_33_"><use overflow="visible" xlink:href="#SVGID_32_"/></clipPath><g clip-path="url(#SVGID_33_)"><defs><path id="SVGID_34_" d="M193.818,262.847c-2.638-5.96,0.05-12.924,6.002-15.564c5.959-2.634,12.924,0.049,15.565,6.006 c2.641,5.952-0.05,12.919-6.006,15.561C203.426,271.485,196.457,268.801,193.818,262.847"/></defs><clipPath id="SVGID_35_"><use overflow="visible" xlink:href="#SVGID_34_"/></clipPath><radialGradient id="SVGID_36_" cx="253.606" cy="466.955" r="2.131" gradientTransform="matrix(561.6498 413.1243 413.1243 -561.6498 -336115.4375 158091.125)" gradientUnits="userSpaceOnUse"><stop offset="0" stop-color="#E00D7B"/><stop offset=".461" stop-color="#EA7224"/><stop offset="1" stop-color="#FECC07"/></radialGradient><polygon fill="url(#SVGID_36_)" points="201.731 239.236 223.437 255.199 207.473 276.902 185.767 260.938" clip-path="url(#SVGID_35_)"/></g></g></g><g opacity=".66"><g><g><defs><path id="SVGID_37_" d="M334.174,202.625c-2.952-6.637,0.045-14.405,6.69-17.346c6.637-2.942,14.402,0.052,17.34,6.695 c2.951,6.639-0.055,14.405-6.69,17.344C344.876,212.263,337.11,209.264,334.174,202.625"/></defs><clipPath id="SVGID_38_"><use overflow="visible" xlink:href="#SVGID_37_"/></clipPath><radialGradient id="SVGID_39_" cx="253.603" cy="466.894" r="2.2" gradientTransform="matrix(561.6312 413.1106 413.1106 -561.6312 -336105.5938 158085.375)" gradientUnits="userSpaceOnUse"><stop offset="0" stop-color="#E00D7B"/><stop offset=".461" stop-color="#EA7224"/><stop offset="1" stop-color="#FECC07"/></radialGradient><polygon fill="url(#SVGID_39_)" points="342.981 176.3 367.193 194.098 349.396 218.296 325.188 200.498" clip-path="url(#SVGID_38_)"/></g></g></g><g opacity=".64"><g><g><defs><path id="SVGID_40_" d="M287.385,147.357c-2.331-5.263,0.045-11.419,5.308-13.752c5.263-2.33,11.424,0.041,13.75,5.307 c2.334,5.266-0.041,11.419-5.3,13.75C295.876,154.993,289.715,152.623,287.385,147.357"/></defs><clipPath id="SVGID_41_"><use overflow="visible" xlink:href="#SVGID_40_"/></clipPath><radialGradient id="SVGID_42_" cx="253.608" cy="466.904" r="2.188" gradientTransform="matrix(561.6459 413.1214 413.1214 -561.6459 -336113.1562 158088.9062)" gradientUnits="userSpaceOnUse"><stop offset="0" stop-color="#E00D7B"/><stop offset=".461" stop-color="#EA7224"/><stop offset="1" stop-color="#FECC07"/></radialGradient><polygon fill="url(#SVGID_42_)" points="294.38 126.488 313.561 140.596 299.444 159.776 280.272 145.67" clip-path="url(#SVGID_41_)"/></g></g></g><g opacity=".31"><g><g><defs><path id="SVGID_43_" d="M316.095,217.163c-3.481-7.852,0.072-17.041,7.929-20.52c7.847-3.481,17.04,0.065,20.508,7.917 c3.482,7.854-0.062,17.041-7.915,20.522C328.76,228.566,319.581,225.015,316.095,217.163"/></defs><clipPath id="SVGID_44_"><use overflow="visible" xlink:href="#SVGID_43_"/></clipPath><radialGradient id="SVGID_45_" cx="253.62" cy="466.903" r="2.201" gradientTransform="matrix(561.6405 413.1175 413.1175 -561.6405 -336119.5625 158088.1562)" gradientUnits="userSpaceOnUse"><stop offset="0" stop-color="#E00D7B"/><stop offset=".461" stop-color="#EA7224"/><stop offset="1" stop-color="#FECC07"/></radialGradient><polygon fill="url(#SVGID_45_)" points="326.535 186.026 355.162 207.078 334.101 235.702 305.487 214.647" clip-path="url(#SVGID_44_)"/></g></g></g><g opacity=".5"><g><g><defs><path id="SVGID_46_" d="M246.883,251.326c-2.82-6.371,0.054-13.824,6.424-16.646c6.369-2.822,13.821,0.052,16.646,6.428 c2.822,6.365-0.055,13.82-6.424,16.642C257.157,260.571,249.707,257.695,246.883,251.326"/></defs><clipPath id="SVGID_47_"><use overflow="visible" xlink:href="#SVGID_46_"/></clipPath><radialGradient id="SVGID_48_" cx="253.612" cy="466.893" r="2.201" gradientTransform="matrix(561.6429 413.1192 413.1192 -561.6429 -336112.4062 158088.7812)" gradientUnits="userSpaceOnUse"><stop offset="0" stop-color="#E00D7B"/><stop offset=".461" stop-color="#EA7224"/><stop offset="1" stop-color="#FECC07"/></radialGradient><polygon fill="url(#SVGID_48_)" points="255.349 226.066 278.565 243.143 261.491 266.363 238.27 249.284" clip-path="url(#SVGID_47_)"/></g></g></g><g opacity=".62"><g><g><defs><path id="SVGID_49_" d="M335.474,178.253c-4.396-9.923,0.082-21.54,10.015-25.932c9.929-4.404,21.538,0.076,25.939,10.005 c4.393,9.93-0.095,21.54-10.014,25.944C351.49,192.661,339.871,188.179,335.474,178.253"/></defs><clipPath id="SVGID_50_"><use overflow="visible" xlink:href="#SVGID_49_"/></clipPath><radialGradient id="SVGID_51_" cx="253.619" cy="466.897" r="2.19" gradientTransform="matrix(561.6274 413.1078 413.1078 -561.6274 -336102.375 158083.875)" gradientUnits="userSpaceOnUse"><stop offset="0" stop-color="#E00D7B"/><stop offset=".461" stop-color="#EA7224"/><stop offset="1" stop-color="#FECC07"/></radialGradient><polygon fill="url(#SVGID_51_)" points="348.666 138.894 384.842 165.503 358.236 201.686 322.056 175.073" clip-path="url(#SVGID_50_)"/></g></g></g><g opacity=".73"><g><g><defs><path id="SVGID_52_" d="M283.288,186.491c-3.824-8.629,0.072-18.725,8.699-22.546c8.632-3.826,18.731,0.07,22.558,8.702 c3.812,8.629-0.076,18.725-8.704,22.549C297.208,199.014,287.109,195.12,283.288,186.491"/></defs><clipPath id="SVGID_53_"><use overflow="visible" xlink:href="#SVGID_52_"/></clipPath><radialGradient id="SVGID_54_" cx="253.624" cy="466.901" r="2.181" gradientTransform="matrix(561.6534 413.1269 413.1269 -561.6534 -336118 158091.3438)" gradientUnits="userSpaceOnUse"><stop offset="0" stop-color="#E00D7B"/><stop offset=".461" stop-color="#EA7224"/><stop offset="1" stop-color="#FECC07"/></radialGradient><polygon fill="url(#SVGID_54_)" points="294.757 152.271 326.208 175.409 303.07 206.863 271.619 183.728" clip-path="url(#SVGID_53_)"/></g></g></g><g opacity=".49"><g><g><defs><path id="SVGID_55_" d="M183.965,256.126c-6.276-14.166,0.123-30.74,14.287-37.017c14.164-6.271,30.74,0.12,37.015,14.287 c6.278,14.164-0.119,30.736-14.283,37.017C206.811,276.689,190.242,270.291,183.965,256.126"/></defs><clipPath id="SVGID_56_"><use overflow="visible" xlink:href="#SVGID_55_"/></clipPath><radialGradient id="SVGID_57_" cx="253.62" cy="466.906" r="2.18" gradientTransform="matrix(561.6432 413.1194 413.1194 -561.6432 -336111.5625 158088.0312)" gradientUnits="userSpaceOnUse"><stop offset="0" stop-color="#E00D7B"/><stop offset=".461" stop-color="#EA7224"/><stop offset="1" stop-color="#FECC07"/></radialGradient><polygon fill="url(#SVGID_57_)" points="202.79 199.957 254.419 237.932 216.441 289.564 164.812 251.589" clip-path="url(#SVGID_56_)"/></g></g></g><g opacity=".61"><g><g><defs><path id="SVGID_58_" d="M353.97,125.486c-3.105-7.008,0.055-15.204,7.067-18.307c7.009-3.104,15.205,0.057,18.311,7.065 s-0.063,15.207-7.067,18.315C365.267,135.661,357.075,132.492,353.97,125.486"/></defs><clipPath id="SVGID_59_"><use overflow="visible" xlink:href="#SVGID_58_"/></clipPath><radialGradient id="SVGID_60_" cx="253.615" cy="466.904" r="2.185" gradientTransform="matrix(561.6627 413.1339 413.1339 -561.6627 -336123.0312 158094.9375)" gradientUnits="userSpaceOnUse"><stop offset="0" stop-color="#E00D7B"/><stop offset=".461" stop-color="#EA7224"/><stop offset="1" stop-color="#FECC07"/></radialGradient><polygon fill="url(#SVGID_60_)" points="363.286 97.7 388.822 116.488 370.036 142.028 344.486 123.24" clip-path="url(#SVGID_59_)"/></g></g></g><g opacity=".38"><g><defs><rect id="SVGID_61_" width="21.707" height="21.704" x="200.456" y="242.047" transform="matrix(-0.8056 -0.5925 0.5925 -0.8056 231.6963 581.8274)"/></defs><clipPath id="SVGID_62_"><use overflow="visible" xlink:href="#SVGID_61_"/></clipPath><g clip-path="url(#SVGID_62_)"><defs><path id="SVGID_63_" d="M201.389,257.29c-2.427-5.472,0.05-11.887,5.526-14.312c5.481-2.43,11.891,0.045,14.316,5.521 c2.43,5.483-0.047,11.889-5.523,14.318C210.229,265.25,203.821,262.77,201.389,257.29"/></defs><clipPath id="SVGID_64_"><use overflow="visible" xlink:href="#SVGID_63_"/></clipPath><radialGradient id="SVGID_65_" cx="253.601" cy="466.871" r="2.238" gradientTransform="matrix(561.6483 413.1232 413.1232 -561.6483 -336116.0625 158090.3438)" gradientUnits="userSpaceOnUse"><stop offset="0" stop-color="#E00D7B"/><stop offset=".461" stop-color="#EA7224"/><stop offset="1" stop-color="#FECC07"/></radialGradient><polygon fill="url(#SVGID_65_)" points="208.671 235.57 228.638 250.256 213.95 270.223 193.986 255.537" clip-path="url(#SVGID_64_)"/></g></g></g><g opacity=".66"><g><g><defs><path id="SVGID_66_" d="M258.014,270.696c-3.534-7.99,0.068-17.328,8.053-20.867c7.983-3.538,17.324,0.068,20.86,8.054 c3.545,7.982-0.063,17.324-8.044,20.865C270.889,282.284,261.553,278.677,258.014,270.696"/></defs><clipPath id="SVGID_67_"><use overflow="visible" xlink:href="#SVGID_66_"/></clipPath><radialGradient id="SVGID_68_" cx="253.597" cy="466.893" r="2.208" gradientTransform="matrix(561.6455 413.1212 413.1212 -561.6455 -336112.4688 158089.125)" gradientUnits="userSpaceOnUse"><stop offset="0" stop-color="#E00D7B"/><stop offset=".461" stop-color="#EA7224"/><stop offset="1" stop-color="#FECC07"/></radialGradient><polygon fill="url(#SVGID_68_)" points="268.622 239.036 297.721 260.44 276.321 289.542 247.218 268.138" clip-path="url(#SVGID_67_)"/></g></g></g><g opacity=".64"><g><g><defs><path id="SVGID_69_" d="M321.39,150.225c-3.428-7.731,0.063-16.775,7.783-20.198c7.733-3.422,16.782,0.066,20.205,7.797 c3.428,7.734-0.068,16.776-7.793,20.203C333.852,161.451,324.816,157.958,321.39,150.225"/></defs><clipPath id="SVGID_70_"><use overflow="visible" xlink:href="#SVGID_69_"/></clipPath><radialGradient id="SVGID_71_" cx="253.606" cy="466.918" r="2.173" gradientTransform="matrix(561.6691 413.1384 413.1384 -561.6691 -336126.125 158094.5312)" gradientUnits="userSpaceOnUse"><stop offset="0" stop-color="#E00D7B"/><stop offset=".461" stop-color="#EA7224"/><stop offset="1" stop-color="#FECC07"/></radialGradient><polygon fill="url(#SVGID_71_)" points="331.662 119.573 359.827 140.298 339.105 168.479 310.931 147.75" clip-path="url(#SVGID_70_)"/></g></g></g><g opacity=".71"><g><g><defs><path id="SVGID_72_" d="M316.018,237.775c-2.222-5.006,0.036-10.856,5.046-13.076c5.005-2.22,10.856,0.041,13.078,5.045 c2.217,5.007-0.041,10.864-5.05,13.081C324.087,245.04,318.234,242.78,316.018,237.775"/></defs><clipPath id="SVGID_73_"><use overflow="visible" xlink:href="#SVGID_72_"/></clipPath><radialGradient id="SVGID_74_" cx="253.621" cy="466.897" r="2.189" gradientTransform="matrix(561.6476 413.1227 413.1227 -561.6476 -336116.1562 158089.625)" gradientUnits="userSpaceOnUse"><stop offset="0" stop-color="#E00D7B"/><stop offset=".461" stop-color="#EA7224"/><stop offset="1" stop-color="#FECC07"/></radialGradient><polygon fill="url(#SVGID_74_)" points="322.668 217.931 340.91 231.354 327.491 249.591 309.245 236.171" clip-path="url(#SVGID_73_)"/></g></g></g><g opacity=".68"><g><g><defs><path id="SVGID_75_" d="M298.247,160.574c-2.135-4.828,0.049-10.485,4.869-12.623c4.832-2.138,10.48,0.043,12.624,4.871 c2.131,4.83-0.049,10.479-4.868,12.617C306.035,167.58,300.387,165.397,298.247,160.574"/></defs><clipPath id="SVGID_76_"><use overflow="visible" xlink:href="#SVGID_75_"/></clipPath><radialGradient id="SVGID_77_" cx="253.63" cy="466.941" r="2.135" gradientTransform="matrix(561.6406 413.1175 413.1175 -561.6406 -336110.0625 158087.6875)" gradientUnits="userSpaceOnUse"><stop offset="0" stop-color="#E00D7B"/><stop offset=".461" stop-color="#EA7224"/><stop offset="1" stop-color="#FECC07"/></radialGradient><polygon fill="url(#SVGID_77_)" points="304.667 141.425 322.265 154.368 309.322 171.968 291.719 159.021" clip-path="url(#SVGID_76_)"/></g></g></g></g></g></g></g></g><path fill="#426580" d="M345.746,172.619l-13.907-4.821c-0.753-0.263-1.587-0.141-2.24,0.321c-0.647,0.463-1.028,1.213-1.028,2.011 v0.533c-0.046,0.041-0.1,0.085-0.136,0.126c-1.551,1.458-5.183,4.871-12.096,7.513c-10.122,3.862-19.071,3.635-19.166,3.64 c-0.64-0.036-1.315,0.231-1.795,0.698c-0.485,0.469-0.753,1.11-0.749,1.779l0.322,73.296c-1.863-0.267-3.78-0.428-5.739-0.428 c-1.791,0-3.599,0.163-5.396,0.444l0.301-52.355c0.003-0.639-0.271-1.249-0.748-1.672c-0.476-0.426-1.115-0.637-1.75-0.549 c-0.091,0.012-8.598,1-18.725-2.142c-7.825-2.428-11.521-6.871-12.714-8.6v-0.587c0-0.712-0.337-1.378-0.913-1.797 c-0.571-0.417-1.31-0.538-1.988-0.322l-13.908,4.449c-0.922,0.297-1.548,1.152-1.548,2.122v84.004c0,0.968,0.625,1.825,1.548,2.12 l13.908,4.452c0.031,0.009,0.068,0.004,0.102,0.016l0.018,0.088c0.077,0,0.147-0.002,0.288-0.041 c0.09,0.011,0.176,0.041,0.27,0.041c0.465,0,0.924-0.147,1.31-0.428c0.154-0.113,0.288-0.248,0.408-0.393 c2.058-0.866,6.188-2.656,14.727-6.369l1.96,8.758c0.131,0.624,0.521,1.161,1.074,1.477c0.285,0.165,7.172,4.002,21.685,4.002 c14.425,0,21.434-3.228,21.724-3.366c0.64-0.301,1.093-0.887,1.229-1.577l2.103-9.817l14.933,7.388 c0.154,0.192,0.331,0.37,0.54,0.512c0.407,0.283,0.893,0.426,1.382,0.426c0.309,0,0.612-0.054,0.902-0.17l13.912-5.474 c0.943-0.372,1.56-1.283,1.56-2.298V174.952C347.405,173.899,346.749,172.963,345.746,172.619z M245.731,281.683l-9.458-3.025 V197.9l9.458-3.025V281.683z M250.18,281.098v-82.095c2.58,2.28,6.304,4.68,11.395,6.26c6.448,2.002,13.692,2.72,18.076,2.494 l-0.292,50.924c-11.075,2.886-20.645,9.307-21.159,9.656c-0.703,0.478-1.072,1.316-0.95,2.16c0.125,0.844,0.716,1.542,1.527,1.797 c0.198,0.064,1.848,1.569,4.453,2.237l0.181,0.814C260.39,276.66,254.172,279.362,250.18,281.098z M307.948,286.996 c-2.28,0.797-8.491,2.557-18.827,2.557c-10.433,0-16.517-2.12-18.629-3.019l-2.478-11.862c5.506,1.183,12.815,2.364,20.091,2.364 c7.779,0,16.189-1.326,22.335-2.559L307.948,286.996z M288.106,272.584c-8.706,0-17.7-1.845-23.065-3.18 c5.472-3.046,15.244-7.668,24.171-7.668c9.965,0,19.112,4.518,24.153,7.562C307.468,270.621,297.195,272.584,288.106,272.584z M328.57,280.853l-13.011-6.43c2.212-0.624,3.631-1.956,3.821-2.009c0.812-0.222,1.429-0.881,1.601-1.702 c0.158-0.825-0.149-1.67-0.808-2.191c-0.448-0.356-8.854-6.868-20.286-9.805l-0.313-71.869c4.987-0.156,13.051-1.843,18.523-3.933 c4.764-1.82,8.146-3.967,10.472-5.746V280.853z M342.474,277.948l-8.972,3.531V173.598l8.972,3.11V277.948z"/><g><path fill="#F3C576" d="M315.649,336.429c7.073,0,12.803-5.73,12.803-12.799c0-7.067-5.729-12.797-12.803-12.797 c-7.062,0-12.792,5.73-12.792,12.797C302.857,330.699,308.587,336.429,315.649,336.429"/><path fill="#F6D59D" d="M369.161,336.429c7.067,0,12.798-5.73,12.798-12.799c0-7.067-5.73-12.797-12.798-12.797 s-12.803,5.73-12.803,12.797C356.358,330.699,362.094,336.429,369.161,336.429"/><path fill="#40637F" d="M358.834,375.338c0-3.255,1.229-6.278,3.464-8.507c2.303-2.303,5.285-3.575,8.419-3.575 c3.186,0,6.206,1.311,8.431,3.575c2.267,2.31,3.459,5.252,3.459,8.507c0,3.3-1.232,6.319-3.459,8.586 c-2.262,2.312-5.209,3.541-8.431,3.541c-3.134,0-6.234-1.31-8.419-3.541C360.1,381.658,358.834,378.562,358.834,375.338 M356.445,375.262c0,3.812,1.469,7.357,4.175,10.059c2.63,2.625,6.284,4.093,10.097,4.093c4.854,0,9.147-2.267,11.854-6.202 c1.587-2.307,2.421-5.009,2.421-7.874c0-3.772-1.433-7.192-4.175-9.896c-2.697-2.663-6.233-4.096-10.1-4.096 c-3.812,0-7.354,1.433-10.097,4.096C357.964,368.064,356.445,371.603,356.445,375.262 M342.129,388.938h2.354v-25.205h10.1v-1.947 h-22.544v1.947h10.091V388.938z M304.253,388.938h2.185v-24.013l20.119,24.013h2.018v-27.152h-2.186v23.688l-19.87-23.688h-2.267 V388.938z M273.362,375.338c0-3.255,1.233-6.278,3.458-8.507c2.306-2.303,5.289-3.575,8.428-3.575 c3.181,0,6.204,1.311,8.425,3.575c2.272,2.31,3.464,5.252,3.464,8.507c0,3.3-1.238,6.319-3.464,8.586 c-2.261,2.312-5.204,3.541-8.425,3.541c-3.139,0-6.242-1.31-8.428-3.541C274.633,381.658,273.362,378.562,273.362,375.338 M270.979,375.262c0,3.812,1.469,7.357,4.171,10.059c2.626,2.625,6.28,4.093,10.097,4.093c4.854,0,9.146-2.267,11.852-6.202 c1.587-2.307,2.417-5.009,2.417-7.874c0-3.772-1.433-7.192-4.176-9.896c-2.697-2.663-6.238-4.096-10.093-4.096 c-3.817,0-7.355,1.433-10.097,4.096C272.486,368.064,270.979,371.603,270.979,375.262 M252.493,363.613h4.531 c4.173,0,6.439,1.871,6.439,4.971c0,2.303-0.996,3.894-2.981,4.769c-1.512,0.675-3.579,0.675-6.324,0.675h-1.666V363.613z M250.303,361.786v27.152h2.189v-13.042h2.225c2.623,0,4.293,0.24,5.363,1.31c0.718,0.716,1.95,2.389,3.699,5.05l4.333,6.682 h2.464l-7.473-11.451c-0.637-0.952-1.432-1.704-2.426-2.267c3.459-1.115,5.168-3.3,5.168-6.636c0-4.296-3.06-6.798-8.944-6.798 H250.303z M219.413,375.338c0-3.255,1.235-6.278,3.461-8.507c2.305-2.303,5.286-3.575,8.427-3.575 c3.181,0,6.202,1.311,8.428,3.575c2.267,2.31,3.459,5.252,3.459,8.507c0,3.3-1.228,6.319-3.459,8.586 c-2.264,2.312-5.207,3.541-8.428,3.541c-3.141,0-6.242-1.31-8.427-3.541C220.688,381.658,219.413,378.562,219.413,375.338 M217.031,375.262c0,3.812,1.471,7.357,4.175,10.059c2.62,2.625,6.278,4.093,10.095,4.093c4.851,0,9.144-2.267,11.849-6.202 c1.591-2.307,2.425-5.009,2.425-7.874c0-3.772-1.433-7.192-4.177-9.896c-2.702-2.663-6.24-4.096-10.096-4.096 c-3.817,0-7.354,1.433-10.095,4.096C218.54,368.064,217.031,371.603,217.031,375.262 M202.719,388.938h2.344v-25.205h10.1v-1.947 h-22.542v1.947h10.098V388.938z"/><path fill="#40637F" d="M356.649,323.656c0-3.259,1.229-6.28,3.45-8.509c2.316-2.305,5.294-3.577,8.432-3.577 c3.187,0,6.206,1.312,8.428,3.577c2.267,2.307,3.463,5.25,3.463,8.509c0,3.298-1.233,6.319-3.463,8.586 c-2.271,2.308-5.205,3.539-8.428,3.539c-3.138,0-6.247-1.312-8.432-3.539C357.914,329.976,356.649,326.875,356.649,323.656 M354.261,323.577c0,3.815,1.468,7.353,4.17,10.057c2.634,2.625,6.287,4.093,10.101,4.093c4.854,0,9.144-2.264,11.841-6.199 c1.601-2.307,2.43-5.012,2.43-7.872c0-3.776-1.428-7.196-4.171-9.9c-2.711-2.664-6.246-4.094-10.1-4.094 c-3.813,0-7.354,1.43-10.101,4.094C355.778,316.381,354.261,319.919,354.261,323.577 M333.829,337.252h17.136v-2.029H338.28 c6.646-7.471,10.096-13.12,10.096-17.571c0-4.77-3.296-8.031-7.987-8.031c-2.227,0-4.217,0.795-6.166,2.466v2.226 c1.986-1.868,3.858-2.822,5.771-2.822c3.735,0,6.314,2.423,6.314,6.002c0,4.333-4.048,11.011-12.479,19.4V337.252z M304.086,323.656c0-3.259,1.233-6.28,3.459-8.509c2.308-2.305,5.295-3.577,8.432-3.577c3.178,0,6.197,1.312,8.428,3.577 c2.271,2.307,3.454,5.25,3.454,8.509c0,3.298-1.225,6.319-3.454,8.586c-2.263,2.308-5.214,3.539-8.428,3.539 c-3.137,0-6.242-1.312-8.432-3.539C305.359,329.976,304.086,326.875,304.086,323.656 M301.702,323.577 c0,3.815,1.473,7.353,4.18,10.057c2.625,2.625,6.278,4.093,10.095,4.093c4.851,0,9.148-2.264,11.85-6.199 c1.587-2.307,2.426-5.012,2.426-7.872c0-3.776-1.433-7.196-4.18-9.9c-2.702-2.664-6.242-4.094-10.096-4.094 c-3.817,0-7.353,1.43-10.095,4.094C303.215,316.381,301.702,319.919,301.702,323.577 M281.27,337.252h17.131v-2.029h-12.675 c6.637-7.471,10.095-13.12,10.095-17.571c0-4.77-3.3-8.031-7.987-8.031c-2.228,0-4.216,0.795-6.163,2.466v2.226 c1.986-1.868,3.855-2.822,5.764-2.822c3.736,0,6.32,2.423,6.32,6.002c0,4.333-4.058,11.011-12.484,19.4V337.252z M267.597,335.223 v-2.305c-3.54,1.87-6.641,2.863-9.581,2.863c-3.459,0-6.562-1.274-8.747-3.539c-2.187-2.267-3.461-5.367-3.461-8.586 c0-4.134,1.952-7.792,5.329-10.059c1.99-1.312,4.295-2.026,6.879-2.026c2.981,0,6.082,0.993,9.581,2.86v-2.264 c-3.3-1.671-6.442-2.545-9.501-2.545c-4.094,0-7.711,1.433-10.497,4.135c-2.664,2.583-4.171,6.163-4.171,9.821 c0,4.81,2.303,9.141,6.279,11.728c2.423,1.589,5.249,2.423,8.389,2.423C261.237,337.728,264.376,336.894,267.597,335.223 M240.208,335.223v-2.305c-3.539,1.87-6.637,2.863-9.581,2.863c-3.459,0-6.56-1.274-8.747-3.539 c-2.188-2.267-3.459-5.367-3.459-8.586c0-4.134,1.95-7.792,5.327-10.059c1.988-1.312,4.295-2.026,6.879-2.026 c2.983,0,6.082,0.993,9.581,2.86v-2.264c-3.301-1.671-6.442-2.545-9.502-2.545c-4.095,0-7.71,1.433-10.497,4.135 c-2.661,2.583-4.173,6.163-4.173,9.821c0,4.81,2.306,9.141,6.281,11.728c2.425,1.589,5.25,2.423,8.389,2.423 C233.845,337.728,236.986,336.894,240.208,335.223 M197.71,324.371h5.167c4.531,0,7.317,2.266,7.317,5.646 c0,3.855-2.586,5.406-7.992,5.406h-4.493V324.371z M197.71,311.848h4.055c3.896,0,6.24,2.03,6.24,5.29 c0,3.219-2.343,5.406-5.882,5.406h-4.413V311.848z M195.523,337.252h6.4c3.062,0,5.485-0.08,7.474-1.351 c2.067-1.312,3.221-3.3,3.221-5.646c0-3.738-2.106-6.202-6.242-7.235c2.583-1.233,3.858-3.259,3.858-6.041 c0-4.136-3.103-6.879-8.31-6.879h-6.4V337.252z"/></g><line x1="192.342" x2="381.392" y1="349.703" y2="349.703" fill="none" stroke="#EAA822" stroke-width=".946"/><g><path fill="none" stroke="#EAA822" d="M253.639,522.271c0,0-7.537,17.902-19.379,33.089 c-11.846,15.187-23.036,22.734-33.889,27.376c-10.852,4.644-13.606,5.319-22.879,8.418c-3.552,1.189-26.026,5.658-28.635,6.448"/><path fill="none" stroke="#EAA822" d="M250.017,535.159c0,0-7.788,10.276-12.87,14.434c-5.081,4.148-30.459,17.499-30.459,17.499"/><line x1="262.99" x2="260.181" y1="481.354" y2="495.293" fill="none" stroke="#EAA822"/><line x1="266.432" x2="255.983" y1="484.337" y2="493.335" fill="none" stroke="#EAA822"/><path fill="none" stroke="#EAA822" d="M206.852,576.68c0,0,31.338,14.711,35.983,17.902c4.642,3.187,15.089,9.52,15.089,9.52"/><path fill="none" stroke="#EAA822" d="M258.236,590.806c0,0-6.612-4.189-13.319-6.415 c-6.705-2.226-14.433-5.209-26.978-3.164c-12.55,2.044-16.363,6.002-22.054,11.283c-5.689,5.285-12.745,16.102-12.745,16.102" opacity=".75"/><path fill="none" stroke="#EAA822" d="M182.909,604.609c0,0,6.392-8.419,16.009-10.086c12.149-2.117,20.264,3.399,21.139,4.048"/><path fill="none" stroke="#EAA822" d="M230.605,576.565c0,0-3.832,5.521-11.539,12.934 c-7.703,7.409-24.412,23.075-24.412,23.075" opacity=".75"/><path fill="none" stroke="#EAA822" d="M218.867,599.269c0,0-8.006,6.288-15.945,7.883c-7.938,1.605-14.621,2.104-14.621,2.104"/><line x1="257.384" x2="233.178" y1="592.882" y2="607.093" fill="none" stroke="#EAA822" opacity=".75"/><line x1="237.009" x2="227.535" y1="507.787" y2="512.09" fill="none" stroke="#EAA822" opacity=".5"/><polyline fill="none" stroke="#EAA822" points="262.035 480.202 222.668 531.274 176.182 598.761"/><path fill="none" stroke="#EAA822" d="M270.739,486.146c0,0-1.833,10.159-2.783,13.287 c-0.955,3.132-3.343,11.293-3.343,11.293" opacity=".5"/><line x1="270.279" x2="263.346" y1="487.388" y2="507.543" fill="none" stroke="#EAA822"/><path fill="none" stroke="#EAA822" d="M256.867,470.986c0,0-12.117,52.636-27.032,85.176 c-9.569,20.884-22.136,41.434-40.201,51.589"/><path fill="none" stroke="#EAA822" d="M247.341,614.81c0,0-12.841-2.462-25.484-2.743s-25.524,1.287-25.524,1.287"/><path fill="none" stroke="#EAA822" d="M174.796,576.889c0,0-6.122,1.835-12.166,3.898c-6.128,2.099-18.053,6.841-18.053,6.841"/><path fill="none" stroke="#EAA822" d="M205.106,511.087c0,0-13.447,27.478-28.004,41.285c-12.213,11.592-38.18,27.55-38.18,27.55"/><path fill="none" stroke="#EAA822" d="M198.102,508.861c0,0-11.156,26.81-21.402,44.063 c-9.923,16.71-33.868,31.562-33.868,31.562" opacity=".75"/><path fill="none" stroke="#EAA822" d="M190.817,504.515c0,0-6.469,32.34-18.391,48.479 c-10.009,13.54-31.955,29.417-31.955,29.417" opacity=".5"/><g><g><path fill="#FFF" d="M257.81,477.151c2.204,4.973,6.685,8.223,11.669,9.07c3.942,3.546,9.74,4.666,14.903,2.381 c7.006-3.105,10.166-11.306,7.061-18.314c-1.143-2.594-2.996-4.66-5.227-6.079c-3.588-7.675-12.672-11.106-20.456-7.652 C257.876,460.047,254.315,469.268,257.81,477.151"/><path fill="#FFF" d="M199.02,586.784c9.371-4.161,13.604-15.123,9.45-24.493c-4.155-9.375-15.118-13.609-24.491-9.452 c-9.376,4.152-13.609,15.113-9.452,24.489C178.679,586.703,189.646,590.932,199.02,586.784"/><path fill="#FFF" d="M246.647,618.209c1.793,4.049,6.526,5.87,10.571,4.08c4.046-1.791,5.867-6.524,4.075-10.572 c-1.79-4.043-6.523-5.87-10.569-4.075C246.681,609.438,244.854,614.166,246.647,618.209"/><path fill="#FFF" d="M292.277,511.087c-3.346,1.483-4.851,5.391-3.364,8.731c1.478,3.346,5.386,4.855,8.727,3.378 c3.341-1.487,4.85-5.399,3.373-8.736C299.53,511.115,295.622,509.604,292.277,511.087"/><path fill="#FFF" d="M196.636,477.074c-9.704,4.302-14.09,15.658-9.788,25.359c3.915,8.835,13.67,13.237,22.711,10.717 c0.048,1.16,0.291,2.339,0.789,3.468c0.318,0.712,0.726,1.342,1.177,1.927c-2.482-0.068-5.019,0.367-7.437,1.445 c-8.63,3.822-12.526,13.918-8.702,22.549c3.826,8.632,13.921,12.521,22.553,8.7c8.627-3.822,12.523-13.918,8.702-22.545 c-1.212-2.733-3.057-4.991-5.283-6.677c0.542-0.137,1.085-0.295,1.616-0.53c4.823-2.136,7.001-7.789,4.864-12.616 c-1.233-2.779-3.642-4.647-6.376-5.354c2.6-5,2.999-11.098,0.533-16.655C217.695,477.16,206.341,472.772,196.636,477.074"/><path fill="#FFF" d="M275.427,610.983c7.681-3.405,11.156-12.39,7.743-20.073c-3.398-7.681-12.385-11.147-20.064-7.743 c-7.687,3.408-11.15,12.39-7.75,20.068C258.757,610.919,267.744,614.388,275.427,610.983"/><path fill="#FFF" d="M217.267,605.593c2.249,5.072,8.182,7.362,13.253,5.113c4.354-1.931,6.636-6.582,5.775-11.07 c1.625,0.15,3.298-0.054,4.898-0.761c5.007-2.217,7.267-8.079,5.045-13.084c-0.593-1.351-1.473-2.479-2.509-3.399 c1.675-0.141,3.357-0.545,4.987-1.266c5.941-2.628,9.416-8.53,9.245-14.651c1.888,0.05,3.811-0.289,5.651-1.109 c6.641-2.938,9.643-10.703,6.698-17.345c-0.372-0.839-0.82-1.623-1.335-2.34c1.53-0.271,3.055-0.712,4.54-1.364 c9.928-4.406,14.409-16.012,10.01-25.943c-3.899-8.804-13.478-13.311-22.517-11.148c2.11-4.002,2.451-8.894,0.471-13.354 c-3.425-7.729-12.466-11.221-20.202-7.798c-7.729,3.423-11.215,12.468-7.795,20.2c2.794,6.307,9.334,9.788,15.843,8.999 c-3.699,5.436-4.605,12.58-1.751,19.026c1.255,2.828,3.105,5.199,5.319,7.059c-4.3,1.939-7.049,5.907-7.627,10.268 c-2.985-0.558-6.163-0.258-9.146,1.065c-7.854,3.481-11.404,12.667-7.922,20.518c1.37,3.087,3.627,5.498,6.333,7.095 c-0.462,0.121-0.92,0.245-1.366,0.444c-4.269,1.895-6.515,6.429-5.714,10.825c-1.677-0.168-3.412,0.036-5.068,0.771 C217.31,594.586,215.022,600.521,217.267,605.593"/><path fill="#FFF" d="M110.354,575.155c-14.167,6.28-20.563,22.854-14.287,37.015c6.274,14.168,22.845,20.562,37.017,14.289 c14.165-6.278,20.561-22.852,14.282-37.014C141.091,575.278,124.515,568.882,110.354,575.155"/><path fill="#FFF" d="M190.983,634.796c7.981-3.545,11.587-12.884,8.048-20.866c-2.854-6.441-9.479-10.023-16.123-9.32 c0.462-2.43,0.222-5.027-0.854-7.452c-2.827-6.379-10.277-9.253-16.646-6.433c-6.372,2.822-9.246,10.276-6.421,16.649 c1.972,4.452,6.217,7.189,10.762,7.472c-1.378,3.726-1.371,7.974,0.367,11.896C173.652,634.72,182.993,638.332,190.983,634.796"/></g><g><g><g><g opacity=".49"><g><g><defs><path id="SVGID_78_" d="M257.81,477.151c-3.495-7.879,0.064-17.104,7.952-20.6c7.885-3.495,17.108,0.067,20.603,7.951 c3.491,7.889-0.063,17.109-7.951,20.6C270.526,488.598,261.303,485.039,257.81,477.151"/></defs><clipPath id="SVGID_79_"><use overflow="visible" xlink:href="#SVGID_78_"/></clipPath><radialGradient id="SVGID_80_" cx="253.819" cy="466.438" r="2.167" gradientTransform="matrix(561.6445 413.1204 413.1204 -561.6445 -336113.8438 158088.7812)" gradientUnits="userSpaceOnUse"><stop offset="0" stop-color="#E00D7B"/><stop offset=".461" stop-color="#EA7224"/><stop offset="1" stop-color="#FECC07"/></radialGradient><polygon fill="url(#SVGID_80_)" points="268.284 445.89 297.023 467.033 275.887 495.773 247.148 474.626" clip-path="url(#SVGID_79_)"/></g></g></g><g opacity=".34"><g><g><defs><path id="SVGID_81_" d="M174.527,577.328c-4.157-9.371,0.077-20.337,9.452-24.489c9.371-4.157,20.338,0.077,24.493,9.452 c4.148,9.375-0.081,20.332-9.452,24.493C189.644,590.932,178.679,586.703,174.527,577.328"/></defs><clipPath id="SVGID_82_"><use overflow="visible" xlink:href="#SVGID_81_"/></clipPath><radialGradient id="SVGID_83_" cx="253.829" cy="466.453" r="2.137" gradientTransform="matrix(561.6497 413.1243 413.1243 -561.6497 -336115.9375 158091.5312)" gradientUnits="userSpaceOnUse"><stop offset="0" stop-color="#E00D7B"/><stop offset=".461" stop-color="#EA7224"/><stop offset="1" stop-color="#FECC07"/></radialGradient><polygon fill="url(#SVGID_83_)" points="186.979 540.164 221.143 565.292 196.012 599.454 161.854 574.327" clip-path="url(#SVGID_82_)"/></g></g></g><g opacity=".71"><g><g><defs><path id="SVGID_84_" d="M246.647,618.209c-1.793-4.043,0.034-8.771,4.078-10.567c4.046-1.795,8.779,0.028,10.569,4.075 c1.792,4.048-0.029,8.781-4.075,10.572C253.17,624.079,248.44,622.262,246.647,618.209"/></defs><clipPath id="SVGID_85_"><use overflow="visible" xlink:href="#SVGID_84_"/></clipPath><radialGradient id="SVGID_86_" cx="253.781" cy="466.382" r="2.25" gradientTransform="matrix(561.623 413.1046 413.1046 -561.623 -336100.8438 158082.8125)" gradientUnits="userSpaceOnUse"><stop offset="0" stop-color="#E00D7B"/><stop offset=".461" stop-color="#EA7224"/><stop offset="1" stop-color="#FECC07"/></radialGradient><polygon fill="url(#SVGID_86_)" points="252.023 602.171 266.768 613.019 255.919 627.761 241.175 616.917" clip-path="url(#SVGID_85_)"/></g></g></g><g opacity=".62"><g><g><defs><path id="SVGID_87_" d="M288.904,519.818c-1.479-3.341,0.031-7.253,3.373-8.731c3.345-1.478,7.253,0.028,8.735,3.369 c1.478,3.341-0.027,7.253-3.373,8.74C294.299,524.674,290.391,523.164,288.904,519.818"/></defs><clipPath id="SVGID_88_"><use overflow="visible" xlink:href="#SVGID_87_"/></clipPath><radialGradient id="SVGID_89_" cx="253.841" cy="466.349" r="2.257" gradientTransform="matrix(561.6497 413.1242 413.1242 -561.6497 -336125.8438 158090.6562)" gradientUnits="userSpaceOnUse"><stop offset="0" stop-color="#E00D7B"/><stop offset=".461" stop-color="#EA7224"/><stop offset="1" stop-color="#FECC07"/></radialGradient><polygon fill="url(#SVGID_89_)" points="293.347 506.568 305.532 515.53 296.574 527.711 284.387 518.749" clip-path="url(#SVGID_88_)"/></g></g></g><g opacity=".45"><g><g><defs><path id="SVGID_90_" d="M186.848,502.438c-4.3-9.705,0.084-21.062,9.79-25.363c9.704-4.298,21.055,0.086,25.357,9.787 c4.299,9.711-0.082,21.062-9.787,25.359C202.504,516.522,191.148,512.14,186.848,502.438"/></defs><clipPath id="SVGID_91_"><use overflow="visible" xlink:href="#SVGID_90_"/></clipPath><radialGradient id="SVGID_92_" cx="253.81" cy="466.406" r="2.203" gradientTransform="matrix(561.6472 413.1223 413.1223 -561.6472 -336114.8438 158089.1875)" gradientUnits="userSpaceOnUse"><stop offset="0" stop-color="#E00D7B"/><stop offset=".461" stop-color="#EA7224"/><stop offset="1" stop-color="#FECC07"/></radialGradient><polygon fill="url(#SVGID_92_)" points="199.748 463.955 235.116 489.972 209.098 525.35 173.727 499.328" clip-path="url(#SVGID_91_)"/></g></g></g><g opacity=".26"><g><defs><rect id="SVGID_93_" width="19.332" height="19.335" x="122.338" y="584.341" transform="matrix(-0.8055 -0.5926 0.5926 -0.8055 -113.6752 1150.7063)"/></defs><clipPath id="SVGID_94_"><use overflow="visible" xlink:href="#SVGID_93_"/></clipPath><g clip-path="url(#SVGID_94_)"><defs><path id="SVGID_95_" d="M123.171,597.928c-2.167-4.888,0.036-10.601,4.914-12.758c4.882-2.162,10.594,0.047,12.757,4.924 c2.16,4.883-0.045,10.589-4.923,12.747C131.042,605.008,125.329,602.805,123.171,597.928"/></defs><clipPath id="SVGID_96_"><use overflow="visible" xlink:href="#SVGID_95_"/></clipPath><radialGradient id="SVGID_97_" cx="253.816" cy="466.412" r="2.191" gradientTransform="matrix(561.6453 413.121 413.121 -561.6453 -336112.8438 158089.4375)" gradientUnits="userSpaceOnUse"><stop offset="0" stop-color="#E00D7B"/><stop offset=".461" stop-color="#EA7224"/><stop offset="1" stop-color="#FECC07"/></radialGradient><polygon fill="url(#SVGID_97_)" points="129.651 578.575 147.436 591.658 134.353 609.438 116.571 596.358" clip-path="url(#SVGID_96_)"/></g></g></g><g opacity=".5"><g><g><defs><path id="SVGID_98_" d="M255.353,603.235c-3.398-7.679,0.068-16.665,7.75-20.068c7.681-3.404,16.664,0.062,20.066,7.743 c3.413,7.684-0.062,16.668-7.741,20.073C267.748,614.384,258.757,610.919,255.353,603.235"/></defs><clipPath id="SVGID_99_"><use overflow="visible" xlink:href="#SVGID_98_"/></clipPath><radialGradient id="SVGID_100_" cx="253.806" cy="466.4" r="2.21" gradientTransform="matrix(561.6527 413.1264 413.1264 -561.6527 -336116.625 158090.8125)" gradientUnits="userSpaceOnUse"><stop offset="0" stop-color="#E00D7B"/><stop offset=".461" stop-color="#EA7224"/><stop offset="1" stop-color="#FECC07"/></radialGradient><polygon fill="url(#SVGID_100_)" points="265.562 572.78 293.56 593.376 272.967 621.364 244.972 600.779" clip-path="url(#SVGID_99_)"/></g></g></g><g opacity=".26"><g><g><defs><path id="SVGID_101_" d="M217.271,605.598c-2.246-5.072,0.039-11.012,5.112-13.255c5.072-2.245,11.002,0.041,13.249,5.113 c2.251,5.067-0.039,11.007-5.111,13.25C225.449,612.955,219.515,610.665,217.271,605.598"/></defs><clipPath id="SVGID_102_"><use overflow="visible" xlink:href="#SVGID_101_"/></clipPath><radialGradient id="SVGID_103_" cx="253.824" cy="466.46" r="2.136" gradientTransform="matrix(561.6417 413.1183 413.1183 -561.6417 -336111.1875 158087.9375)" gradientUnits="userSpaceOnUse"><stop offset="0" stop-color="#E00D7B"/><stop offset=".461" stop-color="#EA7224"/><stop offset="1" stop-color="#FECC07"/></radialGradient><polygon fill="url(#SVGID_103_)" points="224.007 585.483 242.487 599.084 228.896 617.565 210.407 603.965" clip-path="url(#SVGID_102_)"/></g></g></g><g opacity=".45"><g><defs><rect id="SVGID_104_" width="11.561" height="11.559" x="123.953" y="582.254" transform="matrix(-0.8056 -0.5924 0.5924 -0.8056 -114.097 1138.6334)"/></defs><clipPath id="SVGID_105_"><use overflow="visible" xlink:href="#SVGID_104_"/></clipPath><g clip-path="url(#SVGID_105_)"><defs><path id="SVGID_106_" d="M124.45,590.374c-1.292-2.919,0.022-6.332,2.939-7.625c2.922-1.291,6.338,0.027,7.63,2.943 c1.294,2.919-0.022,6.328-2.944,7.624C129.153,594.608,125.742,593.293,124.45,590.374"/></defs><clipPath id="SVGID_107_"><use overflow="visible" xlink:href="#SVGID_106_"/></clipPath><radialGradient id="SVGID_108_" cx="253.834" cy="466.477" r="2.126" gradientTransform="matrix(561.6356 413.1137 413.1137 -561.6356 -336118.0312 158084.75)" gradientUnits="userSpaceOnUse"><stop offset="0" stop-color="#E00D7B"/><stop offset=".461" stop-color="#EA7224"/><stop offset="1" stop-color="#FECC07"/></radialGradient><polygon fill="url(#SVGID_108_)" points="128.328 578.802 138.965 586.625 131.141 597.266 120.501 589.44" clip-path="url(#SVGID_107_)"/></g></g></g><g opacity=".77"><g><defs><polygon id="SVGID_109_" points="100.21 616.627 119.216 630.612 133.194 611.595 114.189 597.623"/></defs><clipPath id="SVGID_110_"><use overflow="visible" xlink:href="#SVGID_109_"/></clipPath><g clip-path="url(#SVGID_110_)"><defs><path id="SVGID_111_" d="M105.918,618.895c-2.636-5.962,0.052-12.926,6.004-15.569c5.959-2.634,12.924,0.052,15.564,6.009 c2.639,5.956-0.049,12.924-6.006,15.562C115.526,627.534,108.556,624.85,105.918,618.895"/></defs><clipPath id="SVGID_112_"><use overflow="visible" xlink:href="#SVGID_111_"/></clipPath><radialGradient id="SVGID_113_" cx="253.807" cy="466.499" r="2.096" gradientTransform="matrix(561.6498 413.1243 413.1243 -561.6498 -336115.4375 158091.125)" gradientUnits="userSpaceOnUse"><stop offset="0" stop-color="#E00D7B"/><stop offset=".461" stop-color="#EA7224"/><stop offset="1" stop-color="#FECC07"/></radialGradient><polygon fill="url(#SVGID_113_)" points="113.831 595.28 135.539 611.246 119.574 632.95 97.867 616.985" clip-path="url(#SVGID_112_)"/></g></g></g><g opacity=".66"><g><g><defs><path id="SVGID_114_" d="M246.271,558.674c-2.947-6.637,0.049-14.407,6.693-17.35c6.641-2.942,14.402,0.055,17.346,6.696 c2.945,6.642-0.057,14.406-6.698,17.345C256.976,568.312,249.21,565.31,246.271,558.674"/></defs><clipPath id="SVGID_115_"><use overflow="visible" xlink:href="#SVGID_114_"/></clipPath><radialGradient id="SVGID_116_" cx="253.804" cy="466.409" r="2.2" gradientTransform="matrix(561.6312 413.1106 413.1106 -561.6312 -336105.5938 158085.375)" gradientUnits="userSpaceOnUse"><stop offset="0" stop-color="#E00D7B"/><stop offset=".461" stop-color="#EA7224"/><stop offset="1" stop-color="#FECC07"/></radialGradient><polygon fill="url(#SVGID_116_)" points="255.087 532.344 279.289 550.146 261.491 574.345 237.291 556.547" clip-path="url(#SVGID_115_)"/></g></g></g><g opacity=".64"><g><g><defs><path id="SVGID_117_" d="M199.487,503.403c-2.33-5.263,0.045-11.419,5.306-13.754c5.263-2.325,11.419,0.046,13.754,5.309 c2.33,5.264-0.048,11.419-5.307,13.75C207.976,511.042,201.817,508.666,199.487,503.403"/></defs><clipPath id="SVGID_118_"><use overflow="visible" xlink:href="#SVGID_117_"/></clipPath><radialGradient id="SVGID_119_" cx="253.81" cy="466.418" r="2.188" gradientTransform="matrix(561.6459 413.1214 413.1214 -561.6459 -336113.1562 158088.9062)" gradientUnits="userSpaceOnUse"><stop offset="0" stop-color="#E00D7B"/><stop offset=".461" stop-color="#EA7224"/><stop offset="1" stop-color="#FECC07"/></radialGradient><polygon fill="url(#SVGID_119_)" points="206.482 482.537 225.66 496.645 211.548 515.824 192.375 501.717" clip-path="url(#SVGID_118_)"/></g></g></g><g opacity=".31"><g><g><defs><path id="SVGID_120_" d="M228.198,573.207c-3.481-7.851,0.068-17.036,7.922-20.518c7.849-3.481,17.038,0.068,20.515,7.916 c3.482,7.856-0.061,17.044-7.919,20.521C240.862,584.612,231.682,581.059,228.198,573.207"/></defs><clipPath id="SVGID_121_"><use overflow="visible" xlink:href="#SVGID_120_"/></clipPath><radialGradient id="SVGID_122_" cx="253.83" cy="466.444" r="2.166" gradientTransform="matrix(561.6405 413.1175 413.1175 -561.6405 -336119.5625 158088.1562)" gradientUnits="userSpaceOnUse"><stop offset="0" stop-color="#E00D7B"/><stop offset=".461" stop-color="#EA7224"/><stop offset="1" stop-color="#FECC07"/></radialGradient><polygon fill="url(#SVGID_122_)" points="238.634 542.072 267.257 563.125 246.203 591.748 217.583 570.691" clip-path="url(#SVGID_121_)"/></g></g></g><g opacity=".5"><g><g><defs><path id="SVGID_123_" d="M158.984,607.374c-2.822-6.373,0.054-13.827,6.424-16.649c6.369-2.82,13.819,0.054,16.646,6.428 c2.82,6.368-0.054,13.822-6.424,16.641C169.257,616.618,161.808,613.744,158.984,607.374"/></defs><clipPath id="SVGID_124_"><use overflow="visible" xlink:href="#SVGID_123_"/></clipPath><radialGradient id="SVGID_125_" cx="253.813" cy="466.376" r="2.236" gradientTransform="matrix(561.6429 413.1192 413.1192 -561.6429 -336112.4062 158088.7812)" gradientUnits="userSpaceOnUse"><stop offset="0" stop-color="#E00D7B"/><stop offset=".461" stop-color="#EA7224"/><stop offset="1" stop-color="#FECC07"/></radialGradient><polygon fill="url(#SVGID_125_)" points="167.451 582.115 190.665 599.191 173.59 622.406 150.371 605.33" clip-path="url(#SVGID_124_)"/></g></g></g><g opacity=".62"><g><g><defs><path id="SVGID_126_" d="M247.574,534.298c-4.4-9.919,0.085-21.538,10.013-25.931c9.926-4.406,21.541,0.077,25.938,10.006 c4.395,9.928-0.086,21.537-10.01,25.943C263.59,548.71,251.976,544.226,247.574,534.298"/></defs><clipPath id="SVGID_127_"><use overflow="visible" xlink:href="#SVGID_126_"/></clipPath><radialGradient id="SVGID_128_" cx="253.82" cy="466.411" r="2.19" gradientTransform="matrix(561.6274 413.1078 413.1078 -561.6274 -336102.375 158083.875)" gradientUnits="userSpaceOnUse"><stop offset="0" stop-color="#E00D7B"/><stop offset=".461" stop-color="#EA7224"/><stop offset="1" stop-color="#FECC07"/></radialGradient><polygon fill="url(#SVGID_128_)" points="260.768 494.94 296.946 521.55 270.335 557.731 234.157 531.12" clip-path="url(#SVGID_127_)"/></g></g></g><g opacity=".73"><g><g><defs><path id="SVGID_129_" d="M195.387,542.539c-3.821-8.631,0.072-18.727,8.702-22.549c8.633-3.825,18.729,0.073,22.552,8.704 c3.822,8.627-0.074,18.723-8.702,22.545C209.308,555.061,199.211,551.166,195.387,542.539"/></defs><clipPath id="SVGID_130_"><use overflow="visible" xlink:href="#SVGID_129_"/></clipPath><radialGradient id="SVGID_131_" cx="253.818" cy="466.415" r="2.186" gradientTransform="matrix(561.6534 413.1269 413.1269 -561.6534 -336118 158091.3438)" gradientUnits="userSpaceOnUse"><stop offset="0" stop-color="#E00D7B"/><stop offset=".461" stop-color="#EA7224"/><stop offset="1" stop-color="#FECC07"/></radialGradient><polygon fill="url(#SVGID_131_)" points="206.856 508.318 238.308 531.455 215.17 562.907 183.718 539.774" clip-path="url(#SVGID_130_)"/></g></g></g><g opacity=".49"><g><g><defs><path id="SVGID_132_" d="M96.067,612.176c-6.276-14.167,0.12-30.74,14.287-37.021 c14.161-6.273,30.737,0.123,37.012,14.285c6.278,14.167-0.118,30.74-14.282,37.019 C118.912,632.732,102.341,626.338,96.067,612.176"/></defs><clipPath id="SVGID_133_"><use overflow="visible" xlink:href="#SVGID_132_"/></clipPath><radialGradient id="SVGID_134_" cx="253.816" cy="466.421" r="2.183" gradientTransform="matrix(561.6432 413.1194 413.1194 -561.6432 -336111.5625 158088.0312)" gradientUnits="userSpaceOnUse"><stop offset="0" stop-color="#E00D7B"/><stop offset=".461" stop-color="#EA7224"/><stop offset="1" stop-color="#FECC07"/></radialGradient><polygon fill="url(#SVGID_134_)" points="114.892 556.004 166.521 593.979 128.543 645.612 76.914 607.639" clip-path="url(#SVGID_133_)"/></g></g></g><g opacity=".61"><g><g><defs><path id="SVGID_135_" d="M266.072,481.535c-3.107-7.009,0.059-15.209,7.065-18.311c7.006-3.104,15.205,0.055,18.314,7.063 c3.096,7.009-0.064,15.209-7.07,18.314C277.374,491.707,269.172,488.539,266.072,481.535"/></defs><clipPath id="SVGID_136_"><use overflow="visible" xlink:href="#SVGID_135_"/></clipPath><radialGradient id="SVGID_137_" cx="253.816" cy="466.418" r="2.185" gradientTransform="matrix(561.6627 413.1339 413.1339 -561.6627 -336123.0312 158094.9375)" gradientUnits="userSpaceOnUse"><stop offset="0" stop-color="#E00D7B"/><stop offset=".461" stop-color="#EA7224"/><stop offset="1" stop-color="#FECC07"/></radialGradient><polygon fill="url(#SVGID_137_)" points="275.381 453.745 300.926 472.536 282.136 498.077 256.593 479.286" clip-path="url(#SVGID_136_)"/></g></g></g><g opacity=".38"><g><defs><rect id="SVGID_138_" width="21.706" height="21.705" x="112.559" y="598.093" transform="matrix(-0.8057 -0.5924 0.5924 -0.8057 -137.8689 1172.6627)"/></defs><clipPath id="SVGID_139_"><use overflow="visible" xlink:href="#SVGID_138_"/></clipPath><g clip-path="url(#SVGID_139_)"><defs><path id="SVGID_140_" d="M113.491,613.335c-2.43-5.472,0.047-11.885,5.526-14.312c5.479-2.43,11.889,0.047,14.314,5.521 c2.43,5.48-0.045,11.891-5.524,14.322C122.328,621.297,115.92,618.816,113.491,613.335"/></defs><clipPath id="SVGID_141_"><use overflow="visible" xlink:href="#SVGID_140_"/></clipPath><radialGradient id="SVGID_142_" cx="253.802" cy="466.349" r="2.282" gradientTransform="matrix(561.6483 413.1232 413.1232 -561.6483 -336116.0625 158090.3438)" gradientUnits="userSpaceOnUse"><stop offset="0" stop-color="#E00D7B"/><stop offset=".461" stop-color="#EA7224"/><stop offset="1" stop-color="#FECC07"/></radialGradient><polygon fill="url(#SVGID_142_)" points="120.773 591.616 140.74 606.305 126.052 626.27 106.085 611.581" clip-path="url(#SVGID_141_)"/></g></g></g><g opacity=".66"><g><g><defs><path id="SVGID_143_" d="M170.114,626.744c-3.534-7.991,0.07-17.33,8.056-20.87c7.98-3.536,17.324,0.072,20.86,8.056 c3.543,7.982-0.063,17.321-8.046,20.866C182.991,638.332,173.654,634.724,170.114,626.744"/></defs><clipPath id="SVGID_144_"><use overflow="visible" xlink:href="#SVGID_143_"/></clipPath><radialGradient id="SVGID_145_" cx="253.798" cy="466.408" r="2.208" gradientTransform="matrix(561.6455 413.1212 413.1212 -561.6455 -336112.4688 158089.125)" gradientUnits="userSpaceOnUse"><stop offset="0" stop-color="#E00D7B"/><stop offset=".461" stop-color="#EA7224"/><stop offset="1" stop-color="#FECC07"/></radialGradient><polygon fill="url(#SVGID_145_)" points="180.724 595.085 209.828 616.491 188.423 645.585 159.32 624.185" clip-path="url(#SVGID_144_)"/></g></g></g><g opacity=".64"><g><g><defs><path id="SVGID_146_" d="M233.485,506.272c-3.423-7.732,0.063-16.777,7.792-20.2c7.736-3.423,16.777,0.068,20.202,7.798 c3.428,7.733-0.063,16.773-7.794,20.2C245.953,517.497,236.911,514.007,233.485,506.272"/></defs><clipPath id="SVGID_147_"><use overflow="visible" xlink:href="#SVGID_146_"/></clipPath><radialGradient id="SVGID_148_" cx="253.807" cy="466.461" r="2.142" gradientTransform="matrix(561.6691 413.1384 413.1384 -561.6691 -336126.125 158094.5312)" gradientUnits="userSpaceOnUse"><stop offset="0" stop-color="#E00D7B"/><stop offset=".461" stop-color="#EA7224"/><stop offset="1" stop-color="#FECC07"/></radialGradient><polygon fill="url(#SVGID_148_)" points="243.757 475.619 271.936 496.345 251.208 524.524 223.033 503.798" clip-path="url(#SVGID_147_)"/></g></g></g><g opacity=".71"><g><g><defs><path id="SVGID_149_" d="M228.115,593.825c-2.217-5.01,0.042-10.858,5.05-13.079c5.002-2.217,10.857,0.041,13.073,5.045 c2.222,5.005-0.038,10.867-5.045,13.084C236.188,601.087,230.332,598.825,228.115,593.825"/></defs><clipPath id="SVGID_150_"><use overflow="visible" xlink:href="#SVGID_149_"/></clipPath><radialGradient id="SVGID_151_" cx="253.822" cy="466.413" r="2.188" gradientTransform="matrix(561.6476 413.1227 413.1227 -561.6476 -336116.1562 158089.625)" gradientUnits="userSpaceOnUse"><stop offset="0" stop-color="#E00D7B"/><stop offset=".461" stop-color="#EA7224"/><stop offset="1" stop-color="#FECC07"/></radialGradient><polygon fill="url(#SVGID_151_)" points="234.765 573.979 253.012 587.401 239.593 605.638 221.349 592.22" clip-path="url(#SVGID_150_)"/></g></g></g><g opacity=".68"><g><g><defs><path id="SVGID_152_" d="M210.351,516.618c-2.14-4.824,0.043-10.481,4.869-12.621c4.828-2.135,10.478,0.046,12.618,4.874 c2.138,4.827-0.043,10.477-4.868,12.616C218.142,523.627,212.489,521.445,210.351,516.618"/></defs><clipPath id="SVGID_153_"><use overflow="visible" xlink:href="#SVGID_152_"/></clipPath><radialGradient id="SVGID_154_" cx="253.832" cy="466.41" r="2.185" gradientTransform="matrix(561.6406 413.1175 413.1175 -561.6406 -336110.0625 158087.6875)" gradientUnits="userSpaceOnUse"><stop offset="0" stop-color="#E00D7B"/><stop offset=".461" stop-color="#EA7224"/><stop offset="1" stop-color="#FECC07"/></radialGradient><polygon fill="url(#SVGID_154_)" points="216.768 497.469 234.368 510.417 221.419 528.015 203.821 515.067" clip-path="url(#SVGID_153_)"/></g></g></g></g></g></g></g></g><path fill="#426580" d="M257.851,528.668l-13.909-4.823c-0.754-0.264-1.588-0.142-2.242,0.321c-0.648,0.463-1.033,1.21-1.033,2.013 v0.531c-0.046,0.04-0.093,0.085-0.136,0.126c-1.55,1.46-5.175,4.873-12.093,7.512c-10.122,3.862-19.073,3.636-19.164,3.641 c-0.644-0.036-1.317,0.231-1.797,0.698c-0.478,0.467-0.75,1.11-0.746,1.78l0.321,73.295c-1.863-0.268-3.778-0.427-5.734-0.427 c-1.795,0-3.606,0.159-5.401,0.44l0.3-52.351c0.004-0.644-0.271-1.251-0.747-1.677c-0.478-0.422-1.117-0.636-1.751-0.544 c-0.089,0.009-8.595,0.997-18.723-2.145c-7.827-2.43-11.524-6.872-12.713-8.6v-0.585c0-0.711-0.34-1.383-0.916-1.799 c-0.571-0.418-1.31-0.54-1.988-0.322l-13.908,4.451c-0.922,0.294-1.548,1.151-1.548,2.117v84.007c0,0.97,0.625,1.821,1.548,2.12 l13.908,4.448c0.035,0.014,0.068,0.009,0.103,0.018l0.018,0.092c0.077,0,0.15-0.006,0.291-0.047 c0.09,0.014,0.176,0.047,0.267,0.047c0.465,0,0.927-0.15,1.31-0.431c0.156-0.114,0.29-0.245,0.41-0.391 c2.059-0.866,6.186-2.661,14.727-6.37l1.958,8.759c0.131,0.622,0.521,1.161,1.074,1.474c0.288,0.163,7.174,4.003,21.689,4.003 c14.425,0,21.427-3.227,21.719-3.363c0.637-0.304,1.095-0.89,1.233-1.578l2.096-9.819l14.937,7.385 c0.155,0.195,0.327,0.372,0.536,0.512c0.415,0.286,0.899,0.432,1.387,0.432c0.306,0,0.613-0.055,0.905-0.173l13.908-5.472 c0.945-0.376,1.562-1.287,1.562-2.302V530.997C259.508,529.945,258.844,529.013,257.851,528.668z M157.831,637.729l-9.457-3.022 V553.95l9.457-3.028V637.729z M162.283,637.145v-82.093c2.577,2.28,6.303,4.678,11.394,6.259c6.449,2,13.693,2.717,18.076,2.494 l-0.294,50.923c-11.075,2.883-20.643,9.307-21.157,9.656c-0.703,0.48-1.072,1.318-0.95,2.158c0.123,0.842,0.716,1.54,1.527,1.799 c0.195,0.062,1.845,1.569,4.452,2.239l0.181,0.812C172.489,632.706,166.274,635.408,162.283,637.145z M220.048,643.043 c-2.283,0.797-8.489,2.556-18.823,2.556c-10.438,0-16.521-2.12-18.631-3.019l-2.48-11.864c5.508,1.188,12.815,2.367,20.091,2.367 c7.784,0,16.189-1.325,22.333-2.562L220.048,643.043z M200.206,628.631c-8.706,0-17.698-1.845-23.065-3.183 c5.472-3.046,15.245-7.665,24.178-7.665c9.962,0,19.108,4.515,24.144,7.562C219.572,626.668,209.297,628.631,200.206,628.631z M240.667,636.899l-13.004-6.428c2.208-0.626,3.629-1.958,3.819-2.013c0.81-0.218,1.426-0.88,1.593-1.699 c0.168-0.826-0.143-1.673-0.803-2.191c-0.448-0.357-8.853-6.866-20.281-9.805l-0.315-71.871c4.982-0.158,13.049-1.844,18.523-3.935 c4.764-1.817,8.142-3.962,10.467-5.743V636.899z M254.575,633.994l-8.976,3.532V529.643l8.976,3.114V633.994z"/></g><g id="Layer_2"><g><path fill="#F3C576" d="M419.149,573.429c7.073,0,12.803-5.729,12.803-12.8c0-7.066-5.729-12.797-12.803-12.797 c-7.062,0-12.792,5.73-12.792,12.797C406.357,567.699,412.087,573.429,419.149,573.429"/><path fill="#F6D59D" d="M472.661,573.429c7.067,0,12.798-5.729,12.798-12.8c0-7.066-5.73-12.797-12.798-12.797 s-12.803,5.73-12.803,12.797C459.858,567.699,465.594,573.429,472.661,573.429"/><path fill="#40637F" d="M462.334,612.338c0-3.254,1.229-6.277,3.464-8.506c2.303-2.304,5.285-3.575,8.419-3.575 c3.186,0,6.206,1.311,8.431,3.575c2.267,2.309,3.459,5.252,3.459,8.506c0,3.301-1.232,6.32-3.459,8.586 c-2.262,2.312-5.209,3.541-8.431,3.541c-3.134,0-6.234-1.311-8.419-3.541C463.6,618.658,462.334,615.562,462.334,612.338 M459.945,612.262c0,3.812,1.469,7.357,4.175,10.059c2.63,2.625,6.284,4.094,10.097,4.094c4.854,0,9.147-2.267,11.854-6.201 c1.587-2.308,2.421-5.01,2.421-7.875c0-3.771-1.433-7.191-4.175-9.896c-2.697-2.662-6.233-4.096-10.1-4.096 c-3.812,0-7.354,1.434-10.097,4.096C461.464,605.064,459.945,608.604,459.945,612.262 M445.629,625.938h2.354v-25.205h10.1v-1.946 h-22.544v1.946h10.091V625.938z M407.754,625.938h2.185v-24.012l20.119,24.012h2.018v-27.151h-2.186v23.688l-19.87-23.688h-2.266 V625.938z M376.861,612.338c0-3.254,1.233-6.277,3.459-8.506c2.306-2.304,5.288-3.575,8.428-3.575c3.18,0,6.203,1.311,8.424,3.575 c2.272,2.309,3.465,5.252,3.465,8.506c0,3.301-1.238,6.32-3.465,8.586c-2.261,2.312-5.203,3.541-8.424,3.541 c-3.14,0-6.242-1.311-8.428-3.541C378.133,618.658,376.861,615.562,376.861,612.338 M374.479,612.262 c0,3.812,1.47,7.357,4.172,10.059c2.626,2.625,6.28,4.094,10.098,4.094c4.854,0,9.146-2.267,11.852-6.201 c1.587-2.308,2.417-5.01,2.417-7.875c0-3.771-1.433-7.191-4.176-9.896c-2.696-2.662-6.237-4.096-10.093-4.096 c-3.817,0-7.355,1.434-10.098,4.096C375.986,605.064,374.479,608.604,374.479,612.262 M355.992,600.613h4.531 c4.174,0,6.439,1.87,6.439,4.971c0,2.303-0.995,3.894-2.98,4.77c-1.512,0.674-3.578,0.674-6.324,0.674h-1.666V600.613z M353.803,598.786v27.151h2.189v-13.041h2.226c2.623,0,4.294,0.24,5.363,1.31c0.718,0.716,1.95,2.39,3.699,5.05l4.333,6.682h2.465 l-7.473-11.451c-0.638-0.951-1.433-1.703-2.426-2.266c3.459-1.115,5.168-3.301,5.168-6.637c0-4.296-3.061-6.798-8.943-6.798 H353.803z M322.913,612.338c0-3.254,1.235-6.277,3.462-8.506c2.305-2.304,5.285-3.575,8.426-3.575 c3.182,0,6.202,1.311,8.428,3.575c2.268,2.309,3.459,5.252,3.459,8.506c0,3.301-1.228,6.32-3.459,8.586 c-2.264,2.312-5.206,3.541-8.428,3.541c-3.141,0-6.242-1.311-8.426-3.541C324.188,618.658,322.913,615.562,322.913,612.338 M320.531,612.262c0,3.812,1.471,7.357,4.175,10.059c2.62,2.625,6.278,4.094,10.095,4.094c4.852,0,9.145-2.267,11.85-6.201 c1.59-2.308,2.424-5.01,2.424-7.875c0-3.771-1.432-7.191-4.177-9.896c-2.702-2.662-6.24-4.096-10.097-4.096 c-3.816,0-7.354,1.434-10.095,4.096C322.04,605.064,320.531,608.604,320.531,612.262 M306.219,625.938h2.345v-25.205h10.1v-1.946 h-22.542v1.946h10.098V625.938z"/><path fill="#40637F" d="M460.149,560.656c0-3.26,1.229-6.28,3.45-8.509c2.316-2.306,5.294-3.577,8.432-3.577 c3.187,0,6.206,1.312,8.428,3.577c2.267,2.308,3.463,5.249,3.463,8.509c0,3.299-1.233,6.319-3.463,8.586 c-2.271,2.309-5.205,3.539-8.428,3.539c-3.138,0-6.247-1.312-8.432-3.539C461.414,566.976,460.149,563.875,460.149,560.656 M457.761,560.577c0,3.815,1.468,7.353,4.17,10.058c2.634,2.625,6.287,4.093,10.101,4.093c4.854,0,9.144-2.265,11.841-6.199 c1.601-2.308,2.43-5.012,2.43-7.872c0-3.775-1.428-7.196-4.171-9.9c-2.711-2.664-6.246-4.094-10.1-4.094 c-3.813,0-7.354,1.43-10.101,4.094C459.278,553.381,457.761,556.919,457.761,560.577 M437.329,574.252h17.136v-2.029H441.78 c6.646-7.471,10.096-13.119,10.096-17.57c0-4.77-3.296-8.031-7.987-8.031c-2.227,0-4.217,0.795-6.166,2.467v2.226 c1.986-1.868,3.858-2.821,5.771-2.821c3.735,0,6.314,2.422,6.314,6.002c0,4.333-4.048,11.011-12.479,19.399V574.252z M407.586,560.656c0-3.26,1.232-6.28,3.459-8.509c2.308-2.306,5.295-3.577,8.432-3.577c3.178,0,6.197,1.312,8.428,3.577 c2.271,2.308,3.454,5.249,3.454,8.509c0,3.299-1.225,6.319-3.454,8.586c-2.263,2.309-5.214,3.539-8.428,3.539 c-3.137,0-6.242-1.312-8.432-3.539C408.859,566.976,407.586,563.875,407.586,560.656 M405.201,560.577 c0,3.815,1.474,7.353,4.18,10.058c2.625,2.625,6.278,4.093,10.096,4.093c4.851,0,9.148-2.265,11.85-6.199 c1.587-2.308,2.426-5.012,2.426-7.872c0-3.775-1.433-7.196-4.18-9.9c-2.702-2.664-6.242-4.094-10.096-4.094 c-3.817,0-7.353,1.43-10.096,4.094C406.715,553.381,405.201,556.919,405.201,560.577 M384.77,574.252H401.9v-2.029h-12.674 c6.637-7.471,10.095-13.119,10.095-17.57c0-4.77-3.3-8.031-7.987-8.031c-2.229,0-4.217,0.795-6.163,2.467v2.226 c1.985-1.868,3.855-2.821,5.764-2.821c3.736,0,6.319,2.422,6.319,6.002c0,4.333-4.057,11.011-12.484,19.399V574.252z M371.098,572.223v-2.305c-3.541,1.869-6.641,2.863-9.582,2.863c-3.459,0-6.562-1.274-8.746-3.539 c-2.188-2.267-3.461-5.367-3.461-8.586c0-4.134,1.951-7.793,5.328-10.059c1.99-1.312,4.295-2.027,6.879-2.027 c2.981,0,6.082,0.994,9.582,2.861v-2.265c-3.301-1.671-6.442-2.546-9.502-2.546c-4.094,0-7.711,1.434-10.496,4.135 c-2.664,2.584-4.172,6.163-4.172,9.821c0,4.81,2.303,9.142,6.279,11.728c2.423,1.589,5.249,2.423,8.389,2.423 C364.737,574.728,367.877,573.894,371.098,572.223 M343.707,572.223v-2.305c-3.538,1.869-6.637,2.863-9.58,2.863 c-3.459,0-6.561-1.274-8.748-3.539c-2.188-2.267-3.459-5.367-3.459-8.586c0-4.134,1.949-7.793,5.327-10.059 c1.987-1.312,4.295-2.027,6.88-2.027c2.982,0,6.081,0.994,9.58,2.861v-2.265c-3.301-1.671-6.441-2.546-9.502-2.546 c-4.096,0-7.711,1.434-10.496,4.135c-2.662,2.584-4.174,6.163-4.174,9.821c0,4.81,2.307,9.142,6.281,11.728 c2.426,1.589,5.25,2.423,8.389,2.423C337.346,574.728,340.486,573.894,343.707,572.223 M301.21,561.371h5.167 c4.531,0,7.318,2.266,7.318,5.646c0,3.854-2.587,5.405-7.993,5.405h-4.493V561.371z M301.21,548.848h4.055 c3.897,0,6.24,2.03,6.24,5.29c0,3.219-2.343,5.405-5.882,5.405h-4.413V548.848z M299.023,574.252h6.4 c3.063,0,5.485-0.08,7.473-1.352c2.067-1.312,3.221-3.3,3.221-5.646c0-3.738-2.105-6.202-6.242-7.235 c2.584-1.232,3.858-3.26,3.858-6.041c0-4.137-3.103-6.879-8.31-6.879h-6.4V574.252z"/></g><line x1="295.842" x2="484.892" y1="586.703" y2="586.703" fill="none" stroke="#EAA822" stroke-width=".946"/></g></svg>